<?xml version="1.0" standalone="no"?>
<!DOCTYPE svg PUBLIC "-//W3C//DTD SVG 1.1//EN" "http://www.w3.org/Graphics/SVG/1.1/DTD/svg11.dtd" >
<svg>
<metadata>
Created by FontForge 20090914 at Mon Mar  2 01:23:55 2015
 By www-data
Copyright 1992-2003 Adobe Systems Incorporated. All Rights Reserved. U.S. Patent Des. 454,582.
</metadata>
<defs>
<font id="MyriadWebPro-Bold" horiz-adv-x="600" >
  <font-face 
    font-family="Myriad Web Pro"
    font-weight="700"
    font-stretch="normal"
    units-per-em="2000"
    panose-1="2 11 8 3 3 4 3 2 2 4"
    ascent="1520"
    descent="-480"
    x-height="978"
    cap-height="1348"
    bbox="-96 -500 2586 1766"
    underline-thickness="100"
    underline-position="-150"
    unicode-range="U+0020-U+FB02"
  />
<missing-glyph horiz-adv-x="1000" 
d="M0 1400h1000v-1400h-1000v1400zM840 1300h-680l340 -510zM900 190v1020l-340 -510zM840 100l-340 510l-340 -510h680zM100 190l340 510l-340 510v-1020z" />
    <glyph glyph-name="f_i" unicode="fi" horiz-adv-x="1200" 
d="M468 0h-310.001v750h-128v228h128v40c0 134 47 238.833 141 314.5s220.333 113.5 379 113.5c126 0 224.667 -21.333 296 -64l-62 -230c-61.333 33.333 -136.666 50 -225.999 50c-146.667 0 -220 -63.333 -220 -190v-34h608v-978h-310v750h-296v-750z" />
    <glyph glyph-name="f_l" unicode="fl" horiz-adv-x="1200" 
d="M468 0h-310v750h-128v228h128v42c0 114 44.5 213.5 133.5 298.5s221.167 127.5 396.5 127.5c152 0 280.667 -28.667 386 -86v-1360h-310v1196c-23.333 14.667 -63.333 22 -120 22s-100.5 -18 -131.5 -54s-46.5 -85.333 -46.5 -148v-38h182v-228h-180v-750z" />
    <glyph glyph-name=".notdef" horiz-adv-x="1000" 
d="M0 1400h1000v-1400h-1000v1400zM840 1300h-680l340 -510zM900 190v1020l-340 -510zM840 100l-340 510l-340 -510h680zM100 190l340 510l-340 510v-1020z" />
    <glyph glyph-name="space" unicode=" " horiz-adv-x="414" 
 />
    <glyph glyph-name="exclam" unicode="!" horiz-adv-x="542" 
d="M386 442h-230l-44 906h318zM452 162c0 -54 -16.833 -98.167 -50.5 -132.5s-77.5 -51.5 -131.5 -51.5c-53.333 0 -97 17.333 -131 52s-51 78.667 -51 132c0 54 17 98.167 51 132.5s77.667 51.5 131 51.5s97 -17.167 131 -51.5s51 -78.5 51 -132.5z" />
    <glyph glyph-name="quotedbl" unicode="&#x22;" horiz-adv-x="810" 
d="M72 1386h276l-48 -544h-182zM462 1386h276l-46 -544h-182z" />
    <glyph glyph-name="numbersign" unicode="#" horiz-adv-x="1130" 
d="M374 0h-182l52 354h-166v188h198l32 224h-170v188h200l50 346h180l-50 -346h188l52 346h180l-50 -346h162v-188h-192l-32 -224h166v-188h-198l-50 -354h-184l52 354h-186zM458 542h186l32 224h-186z" />
    <glyph glyph-name="dollar" unicode="$" horiz-adv-x="1140" 
d="M664 -176l-199.999 -0.00292969v190c-140.667 7.33301 -258.667 36.666 -354 87.999l62 238c114 -61.333 229.333 -92 346 -92c60.667 0 108.834 11.167 144.501 33.5s53.5 52.5 53.5 90.5c0 37.333 -16.833 68.833 -50.5 94.5s-90.167 50.834 -169.5 75.501
c-131.333 40.667 -226.5 90.667 -285.5 150s-88.5 132 -88.5 218c0 90 30.5 167.333 91.5 232s147.167 107.334 258.5 128.001v188h200v-176c115.333 -4.66699 215.333 -26.667 300 -66l-62 -230c-96 48 -196 72 -300 72c-56.667 0 -99.834 -10.167 -129.501 -30.5
s-44.5 -47.5 -44.5 -81.5c0 -31.333 18.833 -59.666 56.5 -84.999s101.5 -53.666 191.5 -84.999c124 -42.667 212.667 -92.834 266 -150.501s80 -133.5 80 -227.5c0 -91.333 -31.833 -170.666 -95.5 -237.999s-153.834 -111.333 -270.501 -132v-204z" />
    <glyph glyph-name="percent" unicode="%" horiz-adv-x="1812" 
d="M56 912c0 119.333 34.332 217.5 102.999 294.5s159 115.5 271 115.5c110.667 0 198.667 -35.333 264 -106s98 -164 98 -280c0 -130 -36.167 -231.833 -108.5 -305.5s-160.166 -110.5 -263.499 -110.5c-104.667 0 -191.5 36 -260.5 108s-103.5 166.667 -103.5 284z
M561.999 922c0 69.333 -11.001 125 -33.001 167s-55.667 63 -101 63c-43.333 0 -77.166 -20.833 -101.499 -62.5s-36.5 -98.167 -36.5 -169.5c0 -68 12 -123.333 36 -166s58 -64 102 -64c89.333 0 134 77.333 134 232zM609.998 -22h-166l752 1342h166zM1018 374
c0 119.333 34.668 217.167 104.001 293.5s159.333 114.5 270 114.5s198.667 -35.167 264 -105.5s98 -163.833 98 -280.5c0 -129.333 -36.333 -231 -109 -305s-160.334 -111 -263.001 -111c-104.667 0 -191.5 36 -260.5 108s-103.5 167.333 -103.5 286zM1524 382.001
c0 69.333 -11.002 125 -33.002 167s-55.667 63 -101 63c-43.333 0 -77.166 -20.833 -101.499 -62.5s-36.5 -98.167 -36.5 -169.5c0 -70 12.333 -125.833 37 -167.5s58.334 -62.5 101.001 -62.5c89.333 0 134 77.333 134 232z" />
    <glyph glyph-name="ampersand" unicode="&#x26;" horiz-adv-x="1390" 
d="M1378 0l-359.999 0.000976562c-30 28 -60.667 60.667 -92 98c-104 -80 -230.667 -120 -380 -120c-150.667 0 -268.667 36.5 -354 109.5s-128 163.833 -128 272.5c0 169.333 87.333 298.666 262 387.999v8c-69.333 78 -104 163.333 -104 256
c0 97.333 37.667 181.333 113 252s175.666 106 300.999 106c109.333 0 199 -29.167 269 -87.5s105 -134.5 105 -228.5c0 -142.667 -90 -258 -270 -346l-2 -6l228 -250c57.333 89.333 98 200 122 332h276c-40 -222.667 -116.667 -394.667 -230 -516zM598.001 850.001
c54 35.333 92.5 67.667 115.5 97s34.5 62.333 34.5 99c0 36 -11 67 -33 93s-51 39 -87 39c-38 0 -68.5 -13.167 -91.5 -39.5s-34.5 -58.5 -34.5 -96.5c0 -62.667 32 -126.667 96 -192zM468.001 600.002c-73.333 -52.667 -110 -115.333 -110 -188
c0 -60 21.167 -110 63.5 -150s97.833 -60 166.5 -60c77.333 0 140.666 22.667 189.999 68c-65.333 63.333 -168.666 173.333 -309.999 330z" />
    <glyph glyph-name="quotesingle" unicode="'" horiz-adv-x="418" 
d="M72 1386h274l-46 -544h-182z" />
    <glyph glyph-name="parenleft" unicode="(" horiz-adv-x="642" 
d="M354 1382l214 -0.000976562c-133.333 -221.333 -200 -490.666 -200 -807.999c0 -310 66.667 -578.667 200 -806h-214c-152 226 -228 494.667 -228 806c0 312.667 76 582 228 808z" />
    <glyph glyph-name="parenright" unicode=")" horiz-adv-x="642" 
d="M288 -232h-214c133.333 228 200 497.333 200 808c0 310 -66.667 578.667 -200 806h214c152 -223.333 228 -492 228 -806c0 -310.667 -76 -580 -228 -808z" />
    <glyph glyph-name="asterisk" unicode="*" horiz-adv-x="924" 
d="M578 1370l176 -100l-216 -258v-4l324 64v-204l-326 56v-6l218 -248l-178 -104l-116 310h-4l-114 -310l-174 104l216 250l-2 4l-318 -56v204l316 -64v4l-212 258l178 100l112 -310h4z" />
    <glyph glyph-name="plus" unicode="+" horiz-adv-x="1192" 
d="M498 1064h198v-436h416v-188h-416v-440h-198v440h-416v188h416v436z" />
    <glyph glyph-name="comma" unicode="," horiz-adv-x="526" 
d="M208 -218l-207.999 -18.001c66.667 189.333 116 380 148 572l314 20c-70.667 -219.333 -155.334 -410.666 -254.001 -573.999z" />
    <glyph glyph-name="hyphen" unicode="-" horiz-adv-x="658" 
d="M60 624h538v-204h-538v204z" />
    <glyph glyph-name="period" unicode="." horiz-adv-x="526" 
d="M466 164c0 -54.667 -17.167 -99.332 -51.5 -133.999s-78.5 -52 -132.5 -52c-53.333 0 -97 17.5 -131 52.5s-51 79.5 -51 133.5s17.333 98.5 52 133.5s78.667 52.5 132 52.5c54 0 97.833 -17.333 131.5 -52s50.5 -79.334 50.5 -134.001z" />
    <glyph glyph-name="slash" unicode="/" horiz-adv-x="674" 
d="M246 -80h-204l422 1450h206z" />
    <glyph glyph-name="zero" unicode="0" horiz-adv-x="1140" 
d="M1074 654c0 -211.333 -44.167 -376.833 -132.5 -496.5s-212.833 -179.5 -373.5 -179.5c-158.667 0 -282 60 -370 180s-132 282.667 -132 488c0 199.333 43.333 361.833 130 487.5s212.667 188.5 378 188.5c159.333 0 282.5 -60 369.5 -180s130.5 -282.667 130.5 -488z
M374 650c0 -144 16.833 -253.999 50.5 -329.999s81.5 -114 143.5 -114c62.667 0 110.667 37.667 144 113s50 185.666 50 330.999c0 293.333 -64 440 -192 440c-62 0 -110.167 -37.833 -144.5 -113.5s-51.5 -184.5 -51.5 -326.5z" />
    <glyph glyph-name="one" unicode="1" horiz-adv-x="1140" 
d="M484 0v1026h-4l-250 -118l-52 232l350 160h254v-1300h-298z" />
    <glyph glyph-name="two" unicode="2" horiz-adv-x="1140" 
d="M1036 0h-946v184c292 254.667 466.667 419.667 524 495s86 143.666 86 204.999c0 59.333 -18.833 105.833 -56.5 139.5s-91.5 50.5 -161.5 50.5c-94.667 0 -190.667 -37.333 -288 -112l-90 220c125.333 93.333 272 140 440 140c144 0 257.667 -37.5 341 -112.5
s125 -174.833 125 -299.5c0 -88 -27.167 -178.167 -81.5 -270.5s-185.833 -220.166 -394.5 -383.499v-4h502v-252z" />
    <glyph glyph-name="three" unicode="3" horiz-adv-x="1140" 
d="M80 74l64.0029 230.002c110 -54.667 215.333 -82 316 -82c76 0 135.333 15.5 178 46.5s64 72.167 64 123.5c0 56.667 -24.833 101.5 -74.5 134.5s-112.834 49.5 -189.501 49.5h-136v222h130c64.667 0 119.5 13.167 164.5 39.5s67.5 62.5 67.5 108.5
c0 40.667 -17.167 73.167 -51.5 97.5s-82.5 36.5 -144.5 36.5c-96.667 0 -191.334 -27.333 -284.001 -82l-66 222c114.667 68 254 102 418 102c134.667 0 242 -30.667 322 -92s120 -139.333 120 -234c0 -144.667 -80.667 -245.334 -242 -302.001v-4
c87.333 -15.333 157.166 -51.833 209.499 -109.5s78.5 -125.834 78.5 -204.501c0 -117.333 -49.333 -213 -148 -287s-230 -111 -394 -111c-162.667 0 -296.667 32 -402 96z" />
    <glyph glyph-name="four" unicode="4" horiz-adv-x="1140" 
d="M934 0h-294v312h-590v198l498 790h386v-760h158v-228h-158v-312zM340 540h299.999v290c0 51.333 2.66699 133.333 8 246h-6c-69.333 -142 -110.666 -224 -123.999 -246z" />
    <glyph glyph-name="five" unicode="5" horiz-adv-x="1140" 
d="M978 1300l0.000976562 -251.999h-522l-28 -194c39.333 2.66699 69.333 4 90 4c155.333 0 280.166 -35.833 374.499 -107.5s141.5 -177.167 141.5 -316.5c0 -126.667 -51.833 -234.334 -155.5 -323.001s-241.834 -133 -414.501 -133
c-145.333 0 -270.666 25.333 -375.999 76l58 232c94 -45.333 195.333 -68 304 -68c75.333 0 138.5 17.5 189.5 52.5s76.5 82.833 76.5 143.5c0 144 -125.333 216 -376 216c-50 0 -111.333 -4 -184 -12l86 682h736z" />
    <glyph glyph-name="six" unicode="6" horiz-adv-x="1140" 
d="M938 1318l0.000976562 -236.001c-63.333 0 -116 -1.66699 -158 -5s-88.5 -13.5 -139.5 -30.5s-94.333 -39.667 -130 -68s-64.334 -60 -86.001 -95s-37.167 -72.833 -46.5 -113.5h6c71.333 69.333 166.666 104 285.999 104c118.667 0 217.334 -39 296.001 -117
s118 -181 118 -309c0 -132 -46.833 -243.333 -140.5 -334s-210.834 -136 -351.501 -136c-164.667 0 -294.167 52.833 -388.5 158.5s-141.5 242.834 -141.5 411.501c0 110.667 17.833 213.5 53.5 308.5s84.5 174.333 146.5 238s132.5 113.167 211.5 148.5
s167.167 58.333 264.5 69c36.667 4 103.334 6 200.001 6zM368.001 473.999c0 -72.667 18.833 -135.5 56.5 -188.5s92.167 -79.5 163.5 -79.5c54 0 97.833 20.833 131.5 62.5s50.5 95.5 50.5 161.5c0 66.667 -18 120.667 -54 162s-85.333 62 -148 62
c-56.667 0 -104.167 -19 -142.5 -57s-57.5 -79 -57.5 -123z" />
    <glyph glyph-name="seven" unicode="7" horiz-adv-x="1140" 
d="M100 1300h944v-192l-550 -1108h-332l552 1044v4h-614v252z" />
    <glyph glyph-name="eight" unicode="8" horiz-adv-x="1140" 
d="M304 670c-128 65.333 -192 159.999 -192 283.999c0 109.333 44.167 198 132.5 266s199.5 102 333.5 102c140 0 249 -32.5 327 -97.5s117 -143.833 117 -236.5c0 -126.667 -64 -222 -192 -286v-6c76.667 -28 136.5 -70.167 179.5 -126.5s64.5 -121.5 64.5 -195.5
c0 -117.333 -46.667 -212.666 -140 -285.999s-217.333 -110 -372 -110c-153.333 0 -274 35.167 -362 105.5s-132 155.833 -132 256.5c0 148.667 78.667 256.667 236 324v6zM598 789.999c40.667 12 73.501 33.167 98.501 63.5s37.5 63.833 37.5 100.5
c0 46 -14.333 84.167 -43 114.5s-68.334 45.5 -119.001 45.5s-90.667 -13.833 -120 -41.5s-44 -63.167 -44 -106.5c0 -79.333 63.333 -138 190 -176zM386.001 371.999c0 -48 17.6689 -90.001 53.002 -126.001s80.333 -54 135 -54c55.333 0 100.166 15 134.499 45
s51.5 68.333 51.5 115c0 36.667 -8.66699 69.334 -26 98.001s-48 54.167 -92 76.5s-75.333 33.5 -94 33.5c-10.667 0 -31.334 -7.66699 -62.001 -23s-55 -37.5 -73 -66.5s-27 -61.833 -27 -98.5z" />
    <glyph glyph-name="nine" unicode="9" horiz-adv-x="1140" 
d="M184 -18v237.999c18.667 -2 38 -3 58 -3c285.333 0 456 107.667 512 323l-4 2c-62 -64 -152.667 -96 -272 -96c-118.667 0 -217.667 37.833 -297 113.5s-119 173.834 -119 294.501c0 130 47.833 240.5 143.5 331.5s215.167 136.5 358.5 136.5
c158 0 281.833 -51.667 371.5 -155s134.5 -239 134.5 -407c0 -122.667 -17.167 -231.5 -51.5 -326.5s-82 -174 -143 -237s-132.167 -111.333 -213.5 -145s-171.333 -55.167 -270 -64.5c-32.667 -3.33301 -102 -5 -208 -5zM754 821.999c0 82 -17.167 148.167 -51.5 198.5
s-83.166 75.5 -146.499 75.5c-54 0 -98.5 -21 -133.5 -63s-52.5 -95.667 -52.5 -161c0 -60 17.167 -109.333 51.5 -148s81.166 -58 140.499 -58c40.667 0 76 7.83301 106 23.5s51.833 33.5 65.5 53.5s20.5 46.333 20.5 79z" />
    <glyph glyph-name="colon" unicode=":" horiz-adv-x="526" 
d="M464 806c0 -53.333 -16.667 -97.332 -50 -131.999s-77.333 -52 -132 -52c-53.333 0 -97 17.333 -131 52s-51 78.667 -51 132c0 54 16.833 98.5 50.5 133.5s77.5 52.5 131.5 52.5s97.833 -17.333 131.5 -52s50.5 -79.334 50.5 -134.001zM462 162.001
c0 -54 -16.833 -98.166 -50.5 -132.499s-77.5 -51.5 -131.5 -51.5c-53.333 0 -97 17.333 -131 52s-51 78.667 -51 132c0 54 17 98.5 51 133.5s77.667 52.5 131 52.5c54 0 97.833 -17.333 131.5 -52s50.5 -79.334 50.5 -134.001z" />
    <glyph glyph-name="semicolon" unicode=";" horiz-adv-x="526" 
d="M476 806c0 -53.333 -16.667 -97.332 -50 -131.999s-77.333 -52 -132 -52c-53.333 0 -97 17.333 -131 52s-51 78.667 -51 132c0 54 17 98.5 51 133.5s77.667 52.5 131 52.5c54 0 97.833 -17.333 131.5 -52s50.5 -79.334 50.5 -134.001zM208 -219.999l-205.999 -18.001
c66.667 189.333 116 380 148 572l312 20c-70.667 -219.333 -155.334 -410.666 -254.001 -573.999z" />
    <glyph glyph-name="less" unicode="&#x3c;" horiz-adv-x="1192" 
d="M114 444v176l962 444v-214l-730 -316v-4l730 -316v-214z" />
    <glyph glyph-name="equal" unicode="=" horiz-adv-x="1192" 
d="M1112 650h-1032v188h1032v-188zM1112 232h-1032v188h1032v-188z" />
    <glyph glyph-name="greater" unicode="&#x3e;" horiz-adv-x="1192" 
d="M1078 624v-184l-962 -440v212l740 318v4l-740 318v212z" />
    <glyph glyph-name="question" unicode="?" horiz-adv-x="916" 
d="M558 440l-270 0.000976562c-1.33301 40.667 -2 63.667 -2 69c0 106 39.333 203.667 118 293c51.333 58.667 84.166 102.334 98.499 131.001s21.5 54.334 21.5 77.001c0 78.667 -48.667 118 -146 118c-77.333 0 -146.666 -20.667 -207.999 -62l-70 220
c99.333 56 214.666 84 345.999 84c122 0 217.5 -28.833 286.5 -86.5s103.5 -132.834 103.5 -225.501c0 -46.667 -12.167 -95.834 -36.5 -147.501s-70.166 -113.834 -137.499 -186.501c-69.333 -72.667 -104 -156 -104 -250v-34zM598 162.001
c0 -54 -16.833 -98.167 -50.5 -132.5s-77.5 -51.5 -131.5 -51.5c-53.333 0 -97 17.333 -131 52s-51 78.667 -51 132c0 54 17 98.167 51 132.5s77.667 51.5 131 51.5s97 -17.167 131 -51.5s51 -78.5 51 -132.5z" />
    <glyph glyph-name="at" unicode="@" horiz-adv-x="1574" 
d="M1080 168l36.002 -120.001c-106 -46.667 -230 -70 -372 -70c-178.667 0 -329.667 59.167 -453 177.5s-185 270.5 -185 456.5c0 137.333 32.667 264.833 98 382.5s156.166 209.667 272.499 276s246.166 99.5 389.499 99.5c178.667 0 326.667 -55.167 444 -165.5
s176 -250.5 176 -420.5c0 -139.333 -36.833 -252.166 -110.5 -338.499s-166.167 -129.5 -277.5 -129.5c-102.667 0 -160.667 50.667 -174 152h-4c-66.667 -101.333 -154.667 -152 -264 -152c-68 0 -123.333 24 -166 72s-64 112 -64 192c0 126.667 44 235.334 132 326.001
s202.667 136 344 136c98.667 0 179.334 -16.667 242.001 -50l-58 -371c-5.33301 -32 -8 -59 -8 -81c0 -58.667 21 -88 63 -88c49.333 0 93.5 30 132.5 90s58.5 140 58.5 240c0 137.333 -44 248.666 -132 333.999s-206.667 128 -356 128c-162.667 0 -300 -57 -412 -171
s-168 -261 -168 -441c0 -164 48.167 -292.667 144.5 -386s222.166 -140 377.499 -140c111.333 0 209.333 20.667 294 62zM908.002 689.999l26 182c-21.333 5.33301 -42 8 -62 8c-66 0 -122.5 -27 -169.5 -81s-70.5 -118.333 -70.5 -193c0 -84 34 -126 102 -126
c38 0 74.5 20.5 109.5 61.5s56.5 90.5 64.5 148.5z" />
    <glyph glyph-name="A" unicode="A" horiz-adv-x="1358" 
d="M864 352h-404l-100 -352h-322l426 1348h408l438 -1348h-336zM506 580h310c-81.333 263.333 -134 444 -158 542h-4l-64 -256z" />
    <glyph glyph-name="B" unicode="B" horiz-adv-x="1236" 
d="M134 6v1324c108.667 20 243.334 30 404.001 30c206.667 0 354 -31.667 442 -95s132 -145.666 132 -246.999c0 -63.333 -19.167 -120.166 -57.5 -170.499s-93.833 -88.833 -166.5 -115.5v-4c85.333 -22.667 152 -63.5 200 -122.5s72 -128.833 72 -209.5
c0 -118 -49.333 -215.833 -148 -293.5s-278.667 -116.5 -540 -116.5c-130.667 0 -243.334 6.66699 -338.001 20zM440 1126v-310h104c82 0 145.167 14.667 189.5 44s66.5 70 66.5 122c0 102.667 -74.667 154 -224 154c-62 0 -107.333 -3.33301 -136 -10zM440 595.998
l-0.000976562 -376c16.667 -4 58 -6 124 -6c84.667 0 150.834 16.667 198.501 50s71.5 81.333 71.5 144c0 61.333 -24.667 108 -74 140s-119.333 48 -210 48h-110z" />
    <glyph glyph-name="C" unicode="C" horiz-adv-x="1238" 
d="M1116 280l48 -240c-92 -41.333 -212.667 -62 -362 -62c-227.333 0 -405.833 61.833 -535.5 185.5s-194.5 287.834 -194.5 492.501c0 216 70.667 389 212 519s323.333 195 546 195c150 0 266.667 -20.667 350 -62l-64 -244c-83.333 36 -174 54 -272 54
c-135.333 0 -243.5 -39.333 -324.5 -118s-121.5 -187.334 -121.5 -326.001c0 -135.333 39.833 -242.5 119.5 -321.5s189.167 -118.5 328.5 -118.5c100.667 0 190.667 15.333 270 46z" />
    <glyph glyph-name="D" unicode="D" horiz-adv-x="1440" 
d="M134 6v1324c133.333 20 276 30 428 30c287.333 0 493.5 -60.167 618.5 -180.5s187.5 -277.5 187.5 -471.5c0 -229.333 -71.167 -407 -213.5 -533s-361.833 -189 -658.5 -189c-137.333 0 -258 6.66699 -362 20zM444 1110l0.000976562 -878.001
c17.333 -4 54.666 -6 111.999 -6c154 0 273.167 40.5 357.5 121.5s126.5 197.167 126.5 348.5c0 138.667 -38.5 244.334 -115.5 317.001s-187.833 109 -332.5 109c-60.667 0 -110 -4 -148 -12z" />
    <glyph glyph-name="E" unicode="E" horiz-adv-x="1100" 
d="M962 818v-250h-518v-316h578v-252h-888v1348h860v-252h-550v-278h518z" />
    <glyph glyph-name="F" unicode="F" horiz-adv-x="1086" 
d="M134 0v1348h852v-252h-542v-306h506v-250h-506v-540h-310z" />
    <glyph glyph-name="G" unicode="G" horiz-adv-x="1412" 
d="M1304 774l-0.000976562 -710c-163.333 -52 -320 -78 -470 -78c-253.333 0 -443.666 62.5 -570.999 187.5s-191 286.5 -191 484.5c0 214 72.833 384.833 218.5 512.5s337.5 191.5 575.5 191.5c162.667 0 293.334 -22.667 392.001 -68l-66 -244c-91.333 40 -202 60 -332 60
c-140.667 0 -252.834 -38.5 -336.501 -115.5s-125.5 -183.167 -125.5 -318.5c0 -134 40.833 -241.167 122.5 -321.5s189.5 -120.5 323.5 -120.5c76 0 129.333 6.66699 160 20v280h-218v240h518z" />
    <glyph glyph-name="H" unicode="H" horiz-adv-x="1418" 
d="M134 1348h310v-518h530v518h310v-1348h-310v562h-530v-562h-310v1348z" />
    <glyph glyph-name="I" unicode="I" horiz-adv-x="578" 
d="M134 1348h310v-1348h-310v1348z" />
    <glyph glyph-name="J" unicode="J" horiz-adv-x="848" 
d="M414 508l-0.00195312 840h310v-846c0 -176.667 -40.167 -308.167 -120.5 -394.5s-204.166 -129.5 -371.499 -129.5c-87.333 0 -165.333 11.333 -234 34l36 246c58.667 -16 113.334 -24 164.001 -24c78 0 133.5 22.167 166.5 66.5s49.5 113.5 49.5 207.5z" />
    <glyph glyph-name="K" unicode="K" horiz-adv-x="1264" 
d="M134 0v1348h306v-594l112 161l308 433h384l-462 -572l488 -776h-362l-348 584l-120 -144v-440h-306z" />
    <glyph glyph-name="L" unicode="L" horiz-adv-x="1052" 
d="M134 0v1348h310v-1088h558v-260h-868z" />
    <glyph glyph-name="M" unicode="M" horiz-adv-x="1742" 
d="M1330 0c-21.333 534.667 -32 897.333 -32 1088h-6c-32.667 -143.333 -142 -498.666 -328 -1066h-242c-111.333 391.333 -178 631.333 -200 720s-47.333 204 -76 346h-4c-8.66699 -269.333 -16 -463.333 -22 -582l-26 -506h-288l86 1348h420
c103.333 -344 165.5 -556.833 186.5 -638.5s42.167 -178.834 63.5 -291.501h8c49.333 208.667 91.333 365 126 469l154 461h412l72 -1348h-304z" />
    <glyph glyph-name="N" unicode="N" horiz-adv-x="1422" 
d="M420 0l-286 -0.000976562v1348h368l325 -551c62 -107.333 127 -243.666 195 -408.999h4c-16 141.333 -24 326.666 -24 555.999v404h286v-1348h-328c-228.667 396.667 -365 635.834 -409 717.501s-89.667 177.167 -137 286.5h-8c9.33301 -170 14 -365.333 14 -586v-418z
" />
    <glyph glyph-name="O" unicode="O" horiz-adv-x="1490" 
d="M1418 686c0 -214 -62.8311 -385.5 -188.498 -514.5s-290.834 -193.5 -495.501 -193.5c-198.667 0 -358.667 64.167 -480 192.5s-182 292.833 -182 493.5c0 205.333 63.333 374.333 190 507s290 199 490 199c201.333 0 362.666 -64 483.999 -192s182 -292 182 -492z
M398.002 672c0 -132 31.667 -240.001 95 -324.001s146.333 -126 249 -126c105.333 0 189.333 41.667 252 125s94 193 94 329c0 130.667 -31.5 238.334 -94.5 323.001s-146.167 127 -249.5 127c-104 0 -187.667 -42.5 -251 -127.5s-95 -193.833 -95 -326.5z" />
    <glyph glyph-name="P" unicode="P" horiz-adv-x="1190" 
d="M134 0v1332c127.333 18.667 270 28 428 28c197.333 0 340.666 -40 429.999 -120s134 -181.333 134 -304c0 -150 -51.167 -264.833 -153.5 -344.5s-243.166 -119.5 -422.499 -119.5c-35.333 0 -72 2.66699 -110 8v-480h-306zM440 1116v-398.001c22 -5.33301 58 -8 108 -8
c84 0 150.333 19.333 199 58s73 92 73 160c0 62.667 -21.667 111.334 -65 146.001s-104.333 52 -183 52c-62.667 0 -106.667 -3.33301 -132 -10z" />
    <glyph glyph-name="Q" unicode="Q" horiz-adv-x="1490" 
d="M1418 8l-85.999 -240.001c-164.667 45.333 -350 108.666 -556 189.999c-28 11.333 -60 18 -96 20c-176 12.667 -321.333 79.834 -436 201.501s-172 281.834 -172 480.501c0 207.333 62.667 377.5 188 510.5s290.666 199.5 495.999 199.5
c199.333 0 359.5 -64.167 480.5 -192.5s181.5 -291.5 181.5 -489.5c0 -137.333 -29.833 -259.833 -89.5 -367.5s-140.5 -184.5 -242.5 -230.5v-8c81.333 -23.333 192 -48 332 -74zM400.001 669.999c0 -132 31.6689 -239.669 95.002 -323.002s146.333 -125 249 -125
c104.667 0 188.5 41.667 251.5 125s94.5 193 94.5 329c0 130.667 -31.333 238.334 -94 323.001s-145.334 127 -248.001 127c-104.667 0 -188.834 -42.667 -252.501 -128s-95.5 -194.666 -95.5 -327.999z" />
    <glyph glyph-name="R" unicode="R" horiz-adv-x="1216" 
d="M134 0l0.000976562 1330c113.333 20 252.666 30 417.999 30c204 0 350.667 -33.667 440 -101s134 -163.666 134 -288.999c0 -74.667 -22.5 -142.167 -67.5 -202.5s-103.167 -102.833 -174.5 -127.5v-8c84 -31.333 144.667 -114 182 -248
c68.667 -241.333 106 -369.333 112 -384h-316c-26.667 50 -58.667 154.667 -96 314c-18.667 80 -44 136 -76 168s-83.333 48 -154 48h-96v-530h-306zM440.001 1122l0.000976562 -369.999h128c77.333 0 138.333 17.5 183 52.5s67 82.167 67 141.5
s-20.167 105.166 -60.5 137.499s-97.5 48.5 -171.5 48.5c-72.667 0 -121.334 -3.33301 -146.001 -10z" />
    <glyph glyph-name="S" unicode="S" horiz-adv-x="1114" 
d="M84 64l63.999 254c115.333 -58.667 232.666 -88 351.999 -88c68.667 0 122.167 13 160.5 39s57.5 61.667 57.5 107c0 40.667 -17.333 74.667 -52 102s-94.667 55.333 -180 84c-257.333 85.333 -386 219.333 -386 402c0 118 47.333 215.167 142 291.5
s220.667 114.5 378 114.5c137.333 0 257.333 -23.333 360 -70l-70 -246c-94 44 -192 66 -294 66c-62.667 0 -111.667 -12 -147 -36s-53 -55.333 -53 -94c0 -35.333 14.833 -65.5 44.5 -90.5s100.834 -57.5 213.501 -97.5c124.667 -44 215.834 -98.5 273.501 -163.5
s86.5 -145.833 86.5 -242.5c0 -124 -48.667 -224.667 -146 -302s-233.333 -116 -408 -116c-149.333 0 -281.333 28.667 -396 86z" />
    <glyph glyph-name="T" unicode="T" horiz-adv-x="1132" 
d="M408 0v1090h-378v258h1072v-258h-384v-1090h-310z" />
    <glyph glyph-name="U" unicode="U" horiz-adv-x="1406" 
d="M134 1348h309.999v-764c0 -117.333 22 -207 66 -269s107.333 -93 190 -93c174.667 0 262 120.667 262 362v764h310v-748c0 -203.333 -49.667 -357.833 -149 -463.5s-243.666 -158.5 -432.999 -158.5c-370.667 0 -556 208.667 -556 626v744z" />
    <glyph glyph-name="V" unicode="V" horiz-adv-x="1316" 
d="M832 0l-363.999 0.000976562l-448 1348h340c187.333 -622.667 286.666 -973.334 297.999 -1052h4c32 144 76.333 306.333 133 487l179 565h328z" />
    <glyph glyph-name="W" unicode="W" horiz-adv-x="1824" 
d="M702 0h-341.999l-330 1348h332c93.333 -478.667 156.666 -821.334 189.999 -1028h4c17.333 129.333 86 472 206 1028h338c106 -545.333 166.667 -885.333 182 -1020h4c10.667 102 76 442 196 1020h316l-360 -1348h-336c-89.333 442 -139.5 693.833 -150.5 755.5
s-22.167 145.834 -33.5 252.501h-4c-24 -150.667 -50 -288 -78 -412z" />
    <glyph glyph-name="X" unicode="X" horiz-adv-x="1274" 
d="M1236 0h-362c-162 314 -245.333 476 -250 486h-4c-14.667 -38.667 -39.667 -94.667 -75 -168l-151 -318h-358l406 682l-392 666h360c120 -238 196 -394.667 228 -470h4c28.667 80 100.667 236.667 216 470h358l-396 -656z" />
    <glyph glyph-name="Y" unicode="Y" horiz-adv-x="1252" 
d="M774 0l-310 -0.000976562v556l-440 792h356c163.333 -371.333 248 -564.666 254 -579.999c30.667 82.667 114 276 250 580h352l-462 -780v-568z" />
    <glyph glyph-name="Z" unicode="Z" horiz-adv-x="1198" 
d="M50 0v166l668 920v6h-608v256h1014v-174l-654 -912v-6h666v-256h-1086z" />
    <glyph glyph-name="bracketleft" unicode="[" horiz-adv-x="642" 
d="M554 -224h-414v1594h414v-168h-192v-1258h192v-168z" />
    <glyph glyph-name="backslash" unicode="\" horiz-adv-x="698" 
d="M658 -80h-206l-422 1450h206z" />
    <glyph glyph-name="bracketright" unicode="]" horiz-adv-x="642" 
d="M88 1370h414v-1594h-414v168h192v1258h-192v168z" />
    <glyph glyph-name="asciicircum" unicode="^" horiz-adv-x="1192" 
d="M1108 354h-220l-292 712l-296 -712h-216l418 946h188z" />
    <glyph glyph-name="underscore" unicode="_" horiz-adv-x="1000" 
d="M0 -150h1000v-100h-1000v100z" />
    <glyph glyph-name="grave" unicode="`" 
d="M4 1402h286l176 -306h-212z" />
    <glyph glyph-name="a" unicode="a" horiz-adv-x="1082" 
d="M958 578l-0.000976562 -339.999c0 -98.667 5.33301 -178 16 -238h-278l-18 98h-8c-67.333 -80 -162.666 -120 -285.999 -120c-96 0 -174 29.167 -234 87.5s-90 129.166 -90 212.499c0 121.333 50.833 214.333 152.5 279s247.5 97 437.5 97v12
c0 81.333 -61.333 122 -184 122c-100 0 -192.667 -24.667 -278 -74l-58 196c108.667 60 238.667 90 390 90c144 0 253 -36.333 327 -109s111 -177 111 -313zM659.999 362.001v100.001c-196 0 -294 -50.667 -294 -152c0 -36.667 11 -65.167 33 -85.5s52.333 -30.5 91 -30.5
c42 0 80.833 14.667 116.5 44s53.5 70.666 53.5 123.999z" />
    <glyph glyph-name="b" unicode="b" horiz-adv-x="1230" 
d="M124 294l-0.000976562 1130h310v-566h4c68 94.667 170.667 142 308 142c122 0 222.167 -45.5 300.5 -136.5s117.5 -210.167 117.5 -357.5c0 -100.667 -19.667 -191.5 -59 -272.5s-95.166 -143.833 -167.499 -188.5s-150.833 -67 -235.5 -67
c-138.667 0 -240.667 53.333 -306 160h-4l-14 -138h-262c5.33301 88 8 186 8 294zM433.999 552v-127.999c0 -66 20.333 -116.5 61 -151.5s85.667 -52.5 135 -52.5c68 0 121.667 24.333 161 73s59 115.667 59 201c0 81.333 -19.5 146.666 -58.5 195.999s-92.833 74 -161.5 74
c-53.333 0 -99.333 -19.667 -138 -59s-58 -90.333 -58 -153z" />
    <glyph glyph-name="c" unicode="c" horiz-adv-x="932" 
d="M844 252l37.999 -226c-75.333 -32 -170.666 -48 -285.999 -48c-161.333 0 -290 45.5 -386 136.5s-144 212.833 -144 365.5s51.667 277.5 155 374.5s243 145.5 419 145.5c90 0 170.667 -13.333 242 -40l-50 -228c-50.667 21.333 -110 32 -178 32
c-80.667 0 -145.834 -25.333 -195.501 -76s-74.5 -116 -74.5 -196c0 -83.333 25.833 -149.5 77.5 -198.5s117.834 -73.5 198.501 -73.5c66 0 127.333 10.667 184 32z" />
    <glyph glyph-name="d" unicode="d" horiz-adv-x="1226" 
d="M792 1424h310.001v-1132c0 -106.667 2.66699 -204 8 -292h-276l-12 148h-4c-68 -113.333 -174.667 -170 -320 -170c-120.667 0 -222.5 46.833 -305.5 140.5s-124.5 214.167 -124.5 361.5c0 156.667 43.833 282.5 131.5 377.5s194.5 142.5 320.5 142.5
c125.333 0 214.666 -37.333 267.999 -112h4v536zM792.001 444v114c0 60 -17.667 109.333 -53 148s-81 58 -137 58c-68 0 -121.667 -25.167 -161 -75.5s-59 -116.5 -59 -198.5c0 -81.333 19.667 -146 59 -194s92.333 -72 159 -72c48 0 92 17.5 132 52.5s60 90.833 60 167.5z
" />
    <glyph glyph-name="e" unicode="e" horiz-adv-x="1080" 
d="M1010 390l-650.001 -0.000976562c5.33301 -58 34.5 -103.167 87.5 -135.5s119.167 -48.5 198.5 -48.5c101.333 0 194.666 14 279.999 42l40 -206c-101.333 -42.667 -222.666 -64 -363.999 -64c-167.333 0 -298.5 44.667 -393.5 134s-142.5 211.333 -142.5 366
c0 142 45.667 264.5 137 367.5s214.333 154.5 369 154.5c142.667 0 253.334 -46 332.001 -138s118 -210 118 -354c0 -47.333 -4 -86.666 -12 -117.999zM357.999 601.999h376c0 46 -13.5 89.833 -40.5 131.5s-72.833 62.5 -137.5 62.5c-53.333 0 -97.5 -17.833 -132.5 -53.5
s-56.833 -82.5 -65.5 -140.5z" />
    <glyph glyph-name="f" unicode="f" horiz-adv-x="696" 
d="M468 0h-310.001v750h-128v228h128v36c0 82 16.333 157.667 49 227s80.834 120.833 144.501 154.5s132.5 50.5 206.5 50.5c53.333 0 107.333 -6.66699 162 -20l-10 -238c-30 9.33301 -63.333 14 -100 14c-46 0 -81.5 -15.5 -106.5 -46.5s-37.5 -73.5 -37.5 -127.5v-50h198
v-228h-196v-750z" />
    <glyph glyph-name="g" unicode="g" horiz-adv-x="1202" 
d="M1076 688l-0.000976562 -542c0 -190.667 -44.333 -332.667 -133 -426s-230.334 -140 -425.001 -140c-146 0 -267.333 26 -364 78l62 234c91.333 -50.667 189.333 -76 294 -76c82 0 146.167 22.167 192.5 66.5s69.5 108.166 69.5 191.499v64h-4
c-64.667 -86.667 -156 -130 -274 -130c-123.333 0 -225.166 44.333 -305.499 133s-120.5 203 -120.5 343c0 150.667 44 274.334 132 371.001s196 145 324 145c126.667 0 219.334 -46.667 278.001 -140h4l10 118h268c-5.33301 -77.333 -8 -174 -8 -290zM765.999 444v130
c0 56.667 -16.333 103.167 -49 139.5s-75.667 54.5 -129 54.5c-59.333 0 -108.5 -25 -147.5 -75s-58.5 -117 -58.5 -201c0 -74 18.333 -135.5 55 -184.5s87 -73.5 151 -73.5c42.667 0 83 15.5 121 46.5s57 85.5 57 163.5z" />
    <glyph glyph-name="h" unicode="h" horiz-adv-x="1200" 
d="M126 0l-0.00195312 1424h310v-566h4c30 41.333 70.5 75.333 121.5 102s105.167 40 162.5 40c108.667 0 194.834 -37.667 258.501 -113s95.5 -182.333 95.5 -321v-566h-310v530c0 146.667 -54.667 220 -164 220c-45.333 0 -84.666 -15.5 -117.999 -46.5
s-50 -73.5 -50 -127.5v-576h-310z" />
    <glyph glyph-name="i" unicode="i" horiz-adv-x="560" 
d="M436 0h-310v978h310v-978zM454 1268c0 -46.667 -15.998 -85.334 -47.998 -116.001s-74 -46 -126 -46s-94 15.333 -126 46s-48 69.334 -48 116.001s16.167 85.334 48.5 116.001s74.166 46 125.499 46s93.166 -15.333 125.499 -46s48.5 -69.334 48.5 -116.001z" />
    <glyph glyph-name="j" unicode="j" horiz-adv-x="598" 
d="M-50 -432l-30.001 240c60 4 109.5 16.5 148.5 37.5s65.333 56.5 79 106.5s20.5 132.667 20.5 248v778h310v-854c0 -209.333 -47.167 -354.333 -141.5 -435s-223.166 -121 -386.499 -121zM495.999 1268c0 -46 -15.8311 -84.5029 -47.498 -115.503
s-73.834 -46.5 -126.501 -46.5c-52 0 -94 15.333 -126 46s-48 69.334 -48 116.001s16.167 85.334 48.5 116.001s74.166 46 125.499 46c52 0 94 -15.167 126 -45.5s48 -69.166 48 -116.499z" />
    <glyph glyph-name="k" unicode="k" horiz-adv-x="1116" 
d="M434 1424l0.000976562 -858h4c17.333 34.667 110.666 172 279.999 412h374l-364 -396l418 -582h-384l-248 402l-80 -98v-304h-310v1424h310z" />
    <glyph glyph-name="l" unicode="l" horiz-adv-x="560" 
d="M126 0v1424h310v-1424h-310z" />
    <glyph glyph-name="m" unicode="m" horiz-adv-x="1762" 
d="M126 0l0.000976562 663.998c0 96.667 -2.66699 201.334 -8 314.001h260l14 -136h6c69.333 105.333 170 158 302 158c63.333 0 119.333 -15 168 -45s84 -72.333 106 -127h4c82 114.667 189.333 172 322 172c103.333 0 185.5 -37.333 246.5 -112s91.5 -180.667 91.5 -318
v-570h-300v526c0 150.667 -50 226 -150 226c-44.667 0 -81.834 -17.167 -111.501 -51.5s-44.5 -79.166 -44.5 -134.499v-566h-300v540c0 68 -12.667 120.333 -38 157s-61.333 55 -108 55c-43.333 0 -80.833 -17.333 -112.5 -52s-47.5 -80 -47.5 -136v-564h-300z" />
    <glyph glyph-name="n" unicode="n" horiz-adv-x="1200" 
d="M126 0v663.997c0 96.667 -2.66699 201.334 -8 314.001h268l14 -138h8c72.667 106.667 176 160 310 160c110 0 197.5 -37.167 262.5 -111.5s97.5 -179.166 97.5 -314.499v-574h-310v534c0 145.333 -54 218 -162 218c-44 0 -83.333 -16.667 -118 -50
s-52 -80.666 -52 -141.999v-560h-310z" />
    <glyph glyph-name="o" unicode="o" horiz-adv-x="1186" 
d="M1120 500c0 -160 -50.334 -286.999 -151.001 -380.999s-227 -141 -379 -141c-153.333 0 -279 46.167 -377 138.5s-147 214.166 -147 365.499c0 155.333 49.333 280.5 148 375.5s229.334 142.5 392.001 142.5c152 0 275.667 -46.667 371 -140s143 -213.333 143 -360z
M383.999 488.001c0 -86.667 18.833 -156.667 56.5 -210s88.167 -80 151.5 -80c62 0 111.833 26.333 149.5 79s56.5 123.667 56.5 213c0 85.333 -18 155 -54 209s-86 81 -150 81c-66 0 -117.5 -27.167 -154.5 -81.5s-55.5 -124.5 -55.5 -210.5z" />
    <glyph glyph-name="p" unicode="p" horiz-adv-x="1230" 
d="M124 -396v1044c0 100 -2.66699 210 -8 330h270l14 -140c80.667 108 195.334 162 344.001 162c115.333 0 213.833 -45.833 295.5 -137.5s122.5 -211.167 122.5 -358.5c0 -161.333 -44.667 -289.333 -134 -384s-198 -142 -326 -142
c-56.667 0 -108.834 10.167 -156.501 30.5s-83.5 48.166 -107.5 83.499h-4v-488h-310zM434 546.001l0.000976562 -120c0 -42 7.16699 -77.5 21.5 -106.5s37.166 -53.833 68.499 -74.5s66 -31 104 -31c67.333 0 120.833 24.667 160.5 74s59.5 116 59.5 200
c0 82 -19.167 147.833 -57.5 197.5s-90.5 74.5 -156.5 74.5c-54 0 -100.833 -20.333 -140.5 -61s-59.5 -91.667 -59.5 -153z" />
    <glyph glyph-name="q" unicode="q" horiz-adv-x="1226" 
d="M792 -396v524h-4c-66 -100 -166.667 -150 -302 -150c-115.333 0 -213.833 46.167 -295.5 138.5s-122.5 212.166 -122.5 359.499c0 104.667 19.667 196.667 59 276s93.833 140.5 163.5 183.5s143.5 64.5 221.5 64.5c130.667 0 226 -46 286 -138l8 116h302
c-4 -159.333 -6 -256.666 -6 -291.999v-1082h-310zM792 430v132.001c0 61.333 -19.167 110 -57.5 146s-82.5 54 -132.5 54c-68 0 -121.667 -25 -161 -75s-59 -116.333 -59 -199c0 -81.333 19.5 -146.333 58.5 -195s91.5 -73 157.5 -73c54.667 0 100.667 19.167 138 57.5
s56 89.166 56 152.499z" />
    <glyph glyph-name="r" unicode="r" horiz-adv-x="780" 
d="M126 0v651.999c0 146.667 -2.66699 255.334 -8 326.001h266l10 -186h8c24 67.333 61.167 118.833 111.5 154.5s103.833 53.5 160.5 53.5c31.333 0 53.333 -2 66 -6v-290c-26 6.66699 -54 10 -84 10c-57.333 0 -108.333 -16.167 -153 -48.5s-67 -89.5 -67 -171.5v-494
h-310z" />
    <glyph glyph-name="s" unicode="s" horiz-adv-x="894" 
d="M68 48l55.9971 220c36 -20.667 80.167 -38.167 132.5 -52.5s98.833 -21.5 139.5 -21.5c89.333 0 134 26.667 134 80c0 26.667 -10.833 47.334 -32.5 62.001s-60.167 30.667 -115.5 48c-192 59.333 -288 156.666 -288 291.999c0 94 37.5 171.5 112.5 232.5
s173.5 91.5 295.5 91.5c106.667 0 201.334 -19.333 284.001 -58l-54 -212c-77.333 37.333 -150.666 56 -219.999 56c-80 0 -120 -26 -120 -78c0 -23.333 12.167 -43 36.5 -59s66.833 -33.667 127.5 -53c93.333 -29.333 162 -68.166 206 -116.499s66 -109.5 66 -183.5
c0 -96.667 -38 -173.834 -114 -231.501s-182 -86.5 -318 -86.5c-125.333 0 -234.666 23.333 -327.999 70z" />
    <glyph glyph-name="t" unicode="t" horiz-adv-x="746" 
d="M166 1162l301.999 81.999v-266h222v-228h-222v-344c0 -64.667 9.5 -110.167 28.5 -136.5s50.167 -39.5 93.5 -39.5c40 0 71.333 3.33301 94 10l2 -234c-48.667 -18.667 -116 -28 -202 -28c-93.333 0 -169.666 27.833 -228.999 83.5s-89 153.834 -89 294.501v394h-132v228
h132v184z" />
    <glyph glyph-name="u" unicode="u" horiz-adv-x="1198" 
d="M1072 978v-662.001c0 -104.667 2.66699 -210 8 -316h-268l-14 142h-8c-69.333 -109.333 -174 -164 -314 -164c-112 0 -199 36.5 -261 109.5s-93 178.5 -93 316.5v574h310v-522c0 -153.333 53.333 -230 160 -230c44.667 0 84.167 16.333 118.5 49
s51.5 74.334 51.5 125.001v578h310z" />
    <glyph glyph-name="v" unicode="v" horiz-adv-x="1092" 
d="M20 978l336 -0.000976562c128.667 -421.333 194 -651.333 196 -690h8c12 66.667 29.333 140.334 52 221.001l134 469h328l-376 -978h-312z" />
    <glyph glyph-name="w" unicode="w" horiz-adv-x="1552" 
d="M24 978h314c77.333 -372 124 -612.667 140 -722h4c10.667 68 28.667 150.333 54 247l124 475h246c103.333 -396.667 161.333 -637.334 174 -722.001h4c10 102.667 58 343.334 144 722.001h302l-304 -978h-292c-70 255.333 -110.167 405 -120.5 449
s-23.5 110.333 -39.5 199h-4c-15.333 -106 -35 -200.333 -59 -283l-105 -365h-292z" />
    <glyph glyph-name="x" unicode="x" horiz-adv-x="1068" 
d="M14 978h346.001c93.333 -146.667 154.666 -248.667 183.999 -306h6c18.667 41.333 74.667 143.333 168 306h338l-334 -464l338 -514h-352c-98 166 -158 274 -180 324h-6c-17.333 -38.667 -75.333 -146.667 -174 -324h-342l344 500z" />
    <glyph glyph-name="y" unicode="y" horiz-adv-x="1076" 
d="M14 978h344.001c126 -400 193.333 -620.667 202 -662h6l172 662h332l-226 -619c-60.667 -166.667 -115.667 -298.834 -165 -396.501s-98.5 -172.667 -147.5 -225s-103.833 -93.666 -164.5 -123.999s-123 -48.833 -187 -55.5l-64 260
c87.333 17.333 156.166 51.333 206.499 102s75.5 88 75.5 112c0 8.66699 -5.33301 26 -16 52z" />
    <glyph glyph-name="z" unicode="z" horiz-adv-x="964" 
d="M44 0l-0.000976562 176.001l357 425.5l121 132.5h-444v244h826v-184l-367 -440.5c-25.333 -29.667 -59.666 -64.834 -102.999 -105.501v-4h486v-244h-876z" />
    <glyph glyph-name="braceleft" unicode="{" horiz-adv-x="642" 
d="M64 498v152.004c46 1.33301 83.167 12.166 111.5 32.499s42.5 56.166 42.5 107.499c0 44 -3.33301 96 -10 156c-8 72 -12 124.667 -12 158c0 177.333 101.333 266 304 266h74v-170h-36c-82.667 0 -124 -47.333 -124 -142l10 -112
c6.66699 -66.667 10 -113.334 10 -140.001c0 -70 -13.333 -122.667 -40 -158s-70.667 -59.333 -132 -72v-4c60.667 -11.333 104.5 -34.833 131.5 -70.5s40.5 -88.834 40.5 -159.501c0 -24.667 -3.33301 -72 -10 -142c-6.66699 -66.667 -10 -103.334 -10 -110.001
c0 -96 41.333 -144 124 -144h36v-170h-74c-202.667 0 -304 90.667 -304 272c0 32 4 84 12 156c6.66699 60 10 111.333 10 154c0 88.667 -51.333 135.334 -154 140.001z" />
    <glyph glyph-name="bar" unicode="|" horiz-adv-x="580" 
d="M184 1500h214v-2000h-214v2000z" />
    <glyph glyph-name="braceright" unicode="}" horiz-adv-x="642" 
d="M578 650l-1.99902 -151.999c-102.667 -4.66699 -154 -51.334 -154 -140.001c0 -18.667 4.66699 -70 14 -154c6.66699 -60 10 -112 10 -156c0 -181.333 -101.333 -272 -304 -272h-74v170h36c82.667 0 124 48 124 144c0 20 -4 56.667 -12 110
c-6.66699 46.667 -10 94 -10 142c0 70.667 13.5 123.834 40.5 159.501s70.833 59.167 131.5 70.5v4c-61.333 12.667 -105.333 36.667 -132 72s-40 88 -40 158c0 40 4 86.667 12 140c6.66699 46.667 10 84 10 112c0 94.667 -41.333 142 -124 142h-36v170h74
c202.667 0 304 -88.667 304 -266c0 -33.333 -4 -86 -12 -158s-12 -124 -12 -156c0 -39.333 10.167 -71.833 30.5 -97.5s62.166 -39.834 125.499 -42.501z" />
    <glyph glyph-name="asciitilde" unicode="~" horiz-adv-x="1192" 
d="M274 382h-191.999c0 252 93.333 378 280 378c35.333 0 71.166 -5 107.499 -15s93.833 -36.333 172.5 -79c98 -53.333 162.667 -80 194 -80c48 0 74.667 54 80 162h194c0 -79.333 -5.5 -140.833 -16.5 -184.5s-29 -80.667 -54 -111s-54.333 -52 -88 -65
s-70.834 -19.5 -111.501 -19.5c-37.333 0 -75.666 6 -114.999 18s-95 38 -167 78c-98 54.667 -161.333 82 -190 82c-54 0 -85.333 -54.667 -94 -164z" />
    <glyph glyph-name="uni00A0" unicode="&#xa0;" horiz-adv-x="414" 
 />
    <glyph glyph-name="exclamdown" unicode="&#xa1;" horiz-adv-x="542" 
d="M90 804c0 53.333 17 97.333 51 132s77.667 52 131 52s97 -17.333 131 -52s51 -78.667 51 -132c0 -54.667 -16.667 -99 -50 -133s-77.333 -51 -132 -51c-53.333 0 -97 17.167 -131 51.5s-51 78.5 -51 132.5zM432 -382h-318l44 904h230z" />
    <glyph glyph-name="cent" unicode="&#xa2;" horiz-adv-x="1140" 
d="M774 -24h-199.997v196c-132.667 19.333 -235.5 72 -308.5 158s-109.5 194.667 -109.5 326c0 124.667 36.667 233.167 110 325.5s176 151.833 308 178.5v188h200v-180c65.333 -2.66699 130.666 -16 195.999 -40l-50 -226c-50.667 24 -111.334 36 -182.001 36
c-80.667 0 -145.167 -24.5 -193.5 -73.5s-72.5 -113.833 -72.5 -194.5c0 -84 24.833 -150 74.5 -198s114.167 -72 193.5 -72c72.667 0 140 12 202 36l38 -222c-54.667 -25.333 -123.334 -41.333 -206.001 -48v-190z" />
    <glyph glyph-name="sterling" unicode="&#xa3;" horiz-adv-x="1140" 
d="M1042 0l-935.996 0.000976562v162c67.333 29.333 122.166 71 164.499 125s63.5 111 63.5 171c0 34.667 -2 60 -6 76h-198v212h162c-9.33301 56 -14 108 -14 156c0 125.333 42.5 226.666 127.5 303.999s195.833 116 332.5 116c101.333 0 182.666 -16.667 243.999 -50
l-50 -232c-46.667 25.333 -105.334 38 -176.001 38c-62.667 0 -110.334 -16.667 -143.001 -50s-49 -80 -49 -140c0 -38.667 6 -86 18 -142h284v-212h-256c0 -58 -7.33301 -107.833 -22 -149.5s-46 -84.5 -94 -128.5v-4h548v-252z" />
    <glyph glyph-name="currency" unicode="&#xa4;" horiz-adv-x="1140" 
d="M334 1030c64.667 49.333 143.333 74.001 236 74.001c94 0 173.333 -23.333 238 -70l156 168l136 -140l-176 -156c44 -69.333 66 -146.666 66 -231.999c0 -94.667 -24 -175.334 -72 -242.001l170 -162l-134 -136l-148 178c-66 -53.333 -145.333 -80 -238 -80
c-96 0 -174.667 25.333 -236 76l-146 -174l-134 136l168 158c-49.333 68.667 -74 148.667 -74 240c0 89.333 24 168.666 72 237.999l-176 156l136 140zM763.999 672.001c0 65.333 -18.5 119.331 -55.5 161.998s-83.167 64 -138.5 64s-101.5 -21.167 -138.5 -63.5
s-55.5 -97.166 -55.5 -164.499c0 -70.667 19.5 -127 58.5 -169s84.167 -63 135.5 -63c53.333 0 99 20.833 137 62.5s57 98.834 57 171.501z" />
    <glyph glyph-name="yen" unicode="&#xa5;" horiz-adv-x="1140" 
d="M704 0l-290 0.000976562v318h-318v144h318v128h-318v144h244l-338 566h336l145 -316c22.667 -50 51 -122.667 85 -218h4c8 19.333 20.833 52.666 38.5 99.999s34.5 88 50.5 122l147 312h328l-354 -566h244v-144h-322v-128h322v-144h-322v-318z" />
    <glyph glyph-name="brokenbar" unicode="&#xa6;" horiz-adv-x="580" 
d="M184 1348h214v-700h-214v700zM184 348h214v-700h-214v700z" />
    <glyph glyph-name="section" unicode="&#xa7;" horiz-adv-x="1152" 
d="M954 1308l-47.999 -187.999c-80 38.667 -171.333 58 -274 58c-58 0 -103.167 -8.66699 -135.5 -26s-48.5 -40.666 -48.5 -69.999c0 -28.667 17.5 -53.667 52.5 -75s90.833 -43 167.5 -65c153.333 -45.333 257 -95.5 311 -150.5s81 -122.833 81 -203.5
c0 -100.667 -50 -181.334 -150 -242.001c61.333 -49.333 92 -112 92 -188c0 -103.333 -43 -182.833 -129 -238.5s-194.333 -83.5 -325 -83.5c-159.333 0 -288 30.667 -386 92l60 186c104 -57.333 208 -86 312 -86c58 0 103.5 9 136.5 27s49.5 43 49.5 75
s-15.5 58.667 -46.5 80s-86.833 44 -167.5 68c-164 50 -274 102.167 -330 156.5s-84 118.833 -84 193.5c0 46.667 14.833 92.667 44.5 138s71.5 80.666 125.5 105.999c-54.667 48 -82 109.333 -82 184c0 96 41 172 123 228s189.667 84 323 84
c125.333 0 234.666 -20 327.999 -60zM406.001 788.001c-48 -24 -72 -58.667 -72 -104c0 -63.333 59.333 -115.333 178 -156c150 -51.333 231.333 -80 244 -86c40 25.333 60 60 60 104c0 26.667 -9 51 -27 73s-41.5 39.5 -70.5 52.5s-81.5 32.5 -157.5 58.5
c-81.333 28.667 -133 48 -155 58z" />
    <glyph glyph-name="dieresis" unicode="&#xa8;" 
d="M228 1228c0 -38 -12.832 -70.501 -38.499 -97.501s-57.5 -40.5 -95.5 -40.5c-39.333 0 -72.5 13.667 -99.5 41s-40.5 59.666 -40.5 96.999c0 38.667 13.667 71.334 41 98.001s61 40 101 40c37.333 0 68.666 -13.167 93.999 -39.5s38 -59.166 38 -98.499zM644.001 1228
c0 -38 -12.8311 -70.499 -38.498 -97.499s-58.167 -40.5 -97.5 -40.5c-38.667 0 -71.334 13.5 -98.001 40.5s-40 59.5 -40 97.5c0 39.333 13.167 72.166 39.5 98.499s59.166 39.5 98.499 39.5c38.667 0 71 -13 97 -39s39 -59 39 -99z" />
    <glyph glyph-name="copyright" unicode="&#xa9;" horiz-adv-x="1354" 
d="M64 680c0 169.333 60.167 314.333 180.5 435s265.5 181 435.5 181c168.667 0 312.5 -60.167 431.5 -180.5s178.5 -265.5 178.5 -435.5c0 -172 -59.167 -318.333 -177.5 -439s-262.5 -181 -432.5 -181s-315.167 60.5 -435.5 181.5s-180.5 267.167 -180.5 438.5zM1160 678
c0 139.333 -47.001 258.167 -141.001 356.5s-207 147.5 -339 147.5c-133.333 0 -247 -49.167 -341 -147.5s-141 -217.833 -141 -358.5c0 -139.333 47 -257.833 141 -355.5s207.667 -146.5 341 -146.5c132.667 0 245.834 49 339.501 147s140.5 217 140.5 357z
M947.999 984.001l-30 -108c-53.333 30.667 -116.666 46 -189.999 46c-78 0 -138.833 -21.833 -182.5 -65.5s-65.5 -104.5 -65.5 -182.5c0 -72.667 23 -132.5 69 -179.5s105 -70.5 177 -70.5c83.333 0 150.666 16.667 201.999 50l30 -104c-66 -42.667 -148.667 -64 -248 -64
c-112.667 0 -202.5 33.667 -269.5 101s-100.5 154.333 -100.5 261c0 108 37.833 197 113.5 267s166.5 105 272.5 105c45.333 0 89.833 -5.5 133.5 -16.5s73.167 -24.167 88.5 -39.5z" />
    <glyph glyph-name="ordfeminine" unicode="&#xaa;" horiz-adv-x="774" 
d="M700 534h-193.998l-14 66h-4c-53.333 -50.667 -121.333 -76 -204 -76c-65.333 0 -118 18.5 -158 55.5s-60 83.833 -60 140.5c0 74.667 36.167 132 108.5 172s171.5 60 297.5 60v12c0 16.667 -8.83301 33.5 -26.5 50.5s-50.167 25.5 -97.5 25.5
c-69.333 0 -133.333 -17.333 -192 -52l-42 128c79.333 44 170.666 66 273.999 66c97.333 0 171.666 -24.667 222.999 -74s77 -117.333 77 -204v-214c0 -65.333 4 -117.333 12 -156zM480.002 768v64c-134.667 0 -202 -32 -202 -96c0 -22 8.33301 -40.167 25 -54.5
s37.667 -21.5 63 -21.5c30 0 56.5 10 79.5 30s34.5 46 34.5 78z" />
    <glyph glyph-name="guillemotleft" unicode="&#xab;" horiz-adv-x="948" 
d="M504 888l-242 -382l242 -384h-214l-234 384l234 382h214zM900 888l-242 -382l242 -384h-214l-234 384l234 382h214z" />
    <glyph glyph-name="logicalnot" unicode="&#xac;" horiz-adv-x="1192" 
d="M80 844h1032v-632h-198v444h-834v188z" />
    <glyph glyph-name="uni00AD" unicode="&#xad;" horiz-adv-x="658" 
d="M60 624h538v-204h-538v204z" />
    <glyph glyph-name="registered" unicode="&#xae;" horiz-adv-x="1020" 
d="M62 920c0 124 44 230 132 318s194 132 318 132c123.333 0 228.5 -44 315.5 -132s130.5 -194 130.5 -318c0 -126 -43.333 -232.833 -130 -320.5s-192 -131.5 -316 -131.5s-230 44.167 -318 132.5s-132 194.833 -132 319.5zM854 918c0 100 -33.502 185.333 -100.502 256
s-147.5 106 -241.5 106s-174.5 -35.333 -241.5 -106s-100.5 -156 -100.5 -256s33.333 -185 100 -255s147.334 -105 242.001 -105s175.334 35 242.001 105s100 155 100 255zM433.998 864l-0.00195312 -205.997h-106v500c60.667 9.33301 114 14 160 14
c74.667 0 129.334 -11.333 164.001 -34s52 -60.667 52 -114c0 -58.667 -32 -97.334 -96 -116.001v-4c45.333 -8.66699 72 -49.334 80 -122.001c7.33301 -56.667 16 -98 26 -124h-108c-8.66699 11.333 -18.667 54.666 -30 129.999c-7.33301 50.667 -38.666 76 -93.999 76h-48
zM433.996 1090v-144h50c73.333 0 110 24 110 72c0 49.333 -34 74 -102 74c-30.667 0 -50 -0.666992 -58 -2z" />
    <glyph glyph-name="macron" unicode="&#xaf;" 
d="M46 1322h510v-158h-510v158z" />
    <glyph glyph-name="degree" unicode="&#xb0;" horiz-adv-x="728" 
d="M54 1068c0 83.333 30.167 154.5 90.5 213.5s134.166 88.5 221.499 88.5c88 0 161.667 -29.167 221 -87.5s89 -128.5 89 -210.5c0 -84 -30.667 -155 -92 -213s-134.666 -87 -219.999 -87c-88 0 -161.667 28.833 -221 86.5s-89 127.5 -89 209.5zM512 1070
c0 44 -13.334 81 -40.001 111s-62 45 -106 45c-42 0 -76.5 -15.333 -103.5 -46s-40.5 -68 -40.5 -112c0 -42.667 13.833 -78.667 41.5 -108s61.834 -44 102.501 -44c42.667 0 77.667 14.5 105 43.5s41 65.833 41 110.5z" />
    <glyph glyph-name="plusminus" unicode="&#xb1;" horiz-adv-x="1192" 
d="M498 1160h198v-346h416v-188h-416v-354h-198v354h-416v188h416v346zM82 188h1030v-188h-1030v188z" />
    <glyph glyph-name="two.superior" unicode="&#xb2;" horiz-adv-x="768" 
d="M68 534v111.999c190 161.333 298.5 260.333 325.5 297s40.5 69.667 40.5 99c0 28.667 -10.5 51.834 -31.5 69.501s-50.5 26.5 -88.5 26.5c-61.333 0 -120 -18.667 -176 -56l-64 152c85.333 58.667 185.333 88 300 88c95.333 0 170.833 -22.333 226.5 -67
s83.5 -103 83.5 -175c0 -46.667 -13.833 -94 -41.5 -142s-107.167 -123.333 -238.5 -226v-4h296v-174h-632z" />
    <glyph glyph-name="three.superior" unicode="&#xb3;" horiz-adv-x="762" 
d="M134 1110l-46.001 145.998c77.333 44 174.666 66 291.999 66c92.667 0 165.167 -18.167 217.5 -54.5s78.5 -84.166 78.5 -143.499c0 -83.333 -56.667 -142 -170 -176v-4c62 -7.33301 110.833 -27.666 146.5 -60.999s53.5 -74.333 53.5 -123
c0 -70.667 -33.5 -127.667 -100.5 -171s-156.167 -65 -267.5 -65c-114.667 0 -208 19.333 -280 58l46 158c68 -36 136 -54 204 -54c43.333 0 78.5 8.33301 105.5 25s40.5 37.667 40.5 63c0 30 -16.667 53.833 -50 71.5s-75.333 26.5 -126 26.5h-64v138h60
c44.667 0 81.834 7 111.501 21s44.5 33.667 44.5 59c0 46.667 -35.333 70 -106 70c-63.333 0 -126.666 -16.667 -189.999 -50z" />
    <glyph glyph-name="acute" unicode="&#xb4;" 
d="M320 1402h286l-250 -306h-212z" />
    <glyph glyph-name="mu" unicode="&#xb5;" horiz-adv-x="1198" 
d="M1072 978v-662c0 -104.667 2.66699 -210 8 -316h-268l-14 146h-8c-64 -109.333 -149.333 -164 -256 -164c-68.667 0 -120 22 -154 66h-6l24 -444h-276v1374h310v-520c0 -152 54 -228 162 -228c50 0 90.5 18.5 121.5 55.5s46.5 65.833 46.5 86.5v606h310z" />
    <glyph glyph-name="paragraph" unicode="&#xb6;" horiz-adv-x="1112" 
d="M618 -94h-198v622h-12c-78 0 -154.5 35 -229.5 105s-112.5 160.333 -112.5 271c0 97.333 22.5 180 67.5 248s112.167 119.333 201.5 154s200.333 52 333 52c128.667 0 226.667 -7.33301 294 -22v-1430h-198v1258h-146v-1258z" />
    <glyph glyph-name="periodcentered" unicode="&#xb7;" horiz-adv-x="526" 
d="M446 532c0 -54.667 -17.167 -99.332 -51.5 -133.999s-78.5 -52 -132.5 -52c-53.333 0 -97 17.5 -131 52.5s-51 79.5 -51 133.5s17.333 98.5 52 133.5s78.667 52.5 132 52.5c54 0 97.833 -17.333 131.5 -52s50.5 -79.334 50.5 -134.001z" />
    <glyph glyph-name="cedilla" unicode="&#xb8;" 
d="M242 8h164l-54 -96c42.667 -5.33301 77.667 -21.5 105 -48.5s41 -58.833 41 -95.5c0 -61.333 -23 -106 -69 -134s-105 -42 -177 -42c-62.667 0 -116.667 13.333 -162 40l40 112c39.333 -21.333 76 -32 110 -32c48 0 72 17.333 72 52c0 40.667 -52.667 64.667 -158 72z
" />
    <glyph glyph-name="one.superior" unicode="&#xb9;" horiz-adv-x="748" 
d="M542 534h-240v586l-164 -70l-30 168l226 94h208v-778z" />
    <glyph glyph-name="ordmasculine" unicode="&#xba;" horiz-adv-x="790" 
d="M46 848c0 98 32.833 178.166 98.5 240.499s150.167 93.5 253.5 93.5c102 0 184.833 -30.333 248.5 -91s95.5 -137.667 95.5 -231c0 -106 -34 -188.5 -102 -247.5s-150.667 -88.5 -248 -88.5c-98.667 0 -181 30.333 -247 91s-99 138.334 -99 233.001zM524 853.999
c0 48 -11.833 89.668 -35.5 125.001s-54.5 53 -92.5 53c-40 0 -71.333 -17.667 -94 -53s-34 -78.333 -34 -129c0 -50 12 -91.833 36 -125.5s54.667 -50.5 92 -50.5c39.333 0 70.5 16.167 93.5 48.5s34.5 76.166 34.5 131.499z" />
    <glyph glyph-name="guillemotright" unicode="&#xbb;" horiz-adv-x="948" 
d="M292 506l-242 382h212l236 -382l-236 -384h-212zM682 506l-242 382h212l236 -382l-236 -384h-212z" />
    <glyph glyph-name="onequarter" unicode="&#xbc;" horiz-adv-x="1702" 
d="M511 534h-240v586l-164 -70l-30 168l226 94h208v-778zM528 -22h-168l744 1344h168zM1522 3h-222v180h-402v126l348 482h276v-458h108v-150h-108v-180zM1300 333v150c0 9.33301 2.66699 59.333 8 150h-4c-38 -73.333 -62 -117 -72 -131l-118 -167l6 -2h180z" />
    <glyph glyph-name="onehalf" unicode="&#xbd;" horiz-adv-x="1702" 
d="M487 534h-240v586l-164 -70l-30 168l226 94h208v-778zM480 -22h-168l744 1344h168zM992 3v111.999c190 161.333 298.5 260.333 325.5 297s40.5 69.667 40.5 99c0 28.667 -10.5 51.834 -31.5 69.501s-50.5 26.5 -88.5 26.5c-61.333 0 -120 -18.667 -176 -56l-64 152
c85.333 58.667 185.333 88 300 88c95.333 0 170.833 -22.333 226.5 -67s83.5 -103 83.5 -175c0 -46.667 -13.833 -94 -41.5 -142s-107.167 -123.333 -238.5 -226v-4h296v-174h-632z" />
    <glyph glyph-name="threequarters" unicode="&#xbe;" horiz-adv-x="1702" 
d="M134 1110l-46.001 145.998c77.333 44 174.666 66 291.999 66c92.667 0 165.167 -18.167 217.5 -54.5s78.5 -84.166 78.5 -143.499c0 -83.333 -56.667 -142 -170 -176v-4c62 -7.33301 110.833 -27.666 146.5 -60.999s53.5 -74.333 53.5 -123
c0 -70.667 -33.5 -127.667 -100.5 -171s-156.167 -65 -267.5 -65c-114.667 0 -208 19.333 -280 58l46 158c68 -36 136 -54 204 -54c43.333 0 78.5 8.33301 105.5 25s40.5 37.667 40.5 63c0 30 -16.667 53.833 -50 71.5s-75.333 26.5 -126 26.5h-64v138h60
c44.667 0 81.834 7 111.501 21s44.5 33.667 44.5 59c0 46.667 -35.333 70 -106 70c-63.333 0 -126.666 -16.667 -189.999 -50zM599.999 -18.002h-168l744 1344h168zM1542 2.99805h-222v180h-402v126l348 482h276v-458h108v-150h-108v-180zM1320 332.998v150
c0 9.33301 2.66699 59.333 8 150h-4c-38 -73.333 -62 -117 -72 -131l-118 -167l6 -2h180z" />
    <glyph glyph-name="questiondown" unicode="&#xbf;" horiz-adv-x="916" 
d="M326 804c0 53.333 17 97.333 51 132s77.667 52 131 52s97 -17.333 131 -52s51 -78.667 51 -132s-16.667 -97.333 -50 -132s-77.333 -52 -132 -52c-53.333 0 -97 17.333 -131 52s-51 78.667 -51 132zM368 528h270c1.33301 -42 2 -65.667 2 -71
c0 -104.667 -39.333 -202.334 -118 -293.001c-51.333 -58.667 -84.166 -102.334 -98.499 -131.001s-21.5 -54.334 -21.5 -77.001c0 -78.667 48.667 -118 146 -118c77.333 0 146.666 20.667 207.999 62l70 -220c-99.333 -56 -214.666 -84 -345.999 -84
c-122 0 -217.5 28.833 -286.5 86.5s-103.5 132.834 -103.5 225.501c0 46.667 12.167 95.834 36.5 147.501s70.166 113.834 137.499 186.501c69.333 74.667 104 158.667 104 252v34z" />
    <glyph glyph-name="Agrave" unicode="&#xc0;" horiz-adv-x="1358" 
d="M864 352h-404l-100 -352h-322l426 1348h408l438 -1348h-336zM506 580h310c-81.333 263.333 -134 444 -158 542h-4l-64 -256zM312 1704h322l176 -250h-248z" />
    <glyph glyph-name="Aacute" unicode="&#xc1;" horiz-adv-x="1358" 
d="M864 352h-404l-100 -352h-322l426 1348h408l438 -1348h-336zM506 580h310c-81.333 263.333 -134 444 -158 542h-4l-64 -256zM713 1702h324l-248 -252h-248z" />
    <glyph glyph-name="Acircumflex" unicode="&#xc2;" horiz-adv-x="1358" 
d="M864 352h-404l-100 -352h-322l426 1348h408l438 -1348h-336zM506 580h310c-81.333 263.333 -134 444 -158 542h-4l-64 -256zM577 1702h220l210 -252h-214l-104 132l-106 -132h-216z" />
    <glyph glyph-name="Atilde" unicode="&#xc3;" horiz-adv-x="1358" 
d="M864 352h-404l-100 -352h-322l426 1348h408l438 -1348h-336zM506 580h310c-81.333 263.333 -134 444 -158 542h-4l-64 -256zM537 1458h-142c0 169.333 52 254 156 254c37.333 0 81.333 -13.333 132 -40c53.333 -26.667 83.333 -40 90 -40c20 0 33.5 7.16699 40.5 21.5
s12.167 36.5 15.5 66.5h138c0 -100.667 -14.5 -167.167 -43.5 -199.5s-67.833 -48.5 -116.5 -48.5c-42.667 0 -86.667 12.667 -132 38c-45.333 24 -75.333 36 -90 36c-28 0 -44 -29.333 -48 -88z" />
    <glyph glyph-name="Adieresis" unicode="&#xc4;" horiz-adv-x="1358" 
d="M864 352h-404l-100 -352h-322l426 1348h408l438 -1348h-336zM506 580h310c-81.333 263.333 -134 444 -158 542h-4l-64 -256zM613 1592c0 -37.333 -12.6689 -69.333 -38.002 -96s-56.666 -40 -93.999 -40c-40 0 -73.667 13.333 -101 40s-41 58.667 -41 96
c0 38.667 13.667 71.334 41 98.001s61 40 101 40c36.667 0 67.834 -13.333 93.501 -40s38.5 -59.334 38.5 -98.001zM1027 1592c0 -38 -12.832 -70.165 -38.499 -96.498s-57.5 -39.5 -95.5 -39.5c-40 0 -73 13.167 -99 39.5s-39 58.5 -39 96.5
c0 39.333 13.167 72.166 39.5 98.499s59.166 39.5 98.499 39.5c38 0 69.833 -13.333 95.5 -40s38.5 -59.334 38.5 -98.001z" />
    <glyph glyph-name="Aring" unicode="&#xc5;" horiz-adv-x="1358" 
d="M866 352l-405.999 0.000976562l-98 -352h-324l426 1348c-38.667 30 -58 76.667 -58 140c0 61.333 24.167 113 72.5 155s114.166 63 197.499 63c85.333 0 151.333 -19.333 198 -58s70 -91.334 70 -158.001s-24 -114 -72 -142l438 -1348h-336zM782.001 1496
c0 30.667 -9.66699 55.999 -29 75.999s-45.666 30 -78.999 30c-32.667 0 -58.167 -9.66699 -76.5 -29s-27.5 -45.666 -27.5 -78.999c0 -30 9.5 -54.833 28.5 -74.5s44.167 -29.5 75.5 -29.5c33.333 0 59.666 9.5 78.999 28.5s29 44.833 29 77.5zM504.001 580h311.999
c-67.333 217.333 -120.666 398 -159.999 542l-64 -242z" />
    <glyph glyph-name="AE" unicode="&#xc6;" horiz-adv-x="1798" 
d="M328 0h-320l594 1348h1060v-252h-576l36 -282h532v-250h-490l44 -312h532v-252h-798l-50 368h-410zM578 618h278l-68 512h-6l-68 -184z" />
    <glyph glyph-name="Ccedilla" unicode="&#xc7;" horiz-adv-x="1238" 
d="M1114 280l54 -239.997c-86.667 -38.667 -207.334 -59.334 -362.001 -62.001l-38 -66c44 -6 79.333 -22.5 106 -49.5s40 -59.167 40 -96.5c0 -60.667 -22.833 -104.834 -68.5 -132.501s-104.167 -41.5 -175.5 -41.5c-65.333 0 -119.333 13.333 -162 40l40 112
c37.333 -21.333 73.333 -32 108 -32c48 0 72 17.333 72 52c0 40.667 -52.667 64.667 -158 72l80 154c-185.333 28.667 -328 102.5 -428 221.5s-150 267.167 -150 444.5c0 216 70.667 389 212 519s323.333 195 546 195c148 0 264.667 -20.667 350 -62l-64 -244
c-85.333 36 -176.666 54 -273.999 54c-134 0 -241.5 -39.333 -322.5 -118s-121.5 -187.334 -121.5 -326.001c0 -135.333 39.833 -242.5 119.5 -321.5s188.5 -118.5 326.5 -118.5c100.667 0 190.667 15.333 270 46z" />
    <glyph glyph-name="Egrave" unicode="&#xc8;" horiz-adv-x="1100" 
d="M962 818v-250h-518v-316h578v-252h-888v1348h860v-252h-550v-278h518zM233 1704h322l176 -250h-248z" />
    <glyph glyph-name="Eacute" unicode="&#xc9;" horiz-adv-x="1100" 
d="M962 818v-250h-518v-316h578v-252h-888v1348h860v-252h-550v-278h518zM598 1703h324l-248 -252h-248z" />
    <glyph glyph-name="Ecircumflex" unicode="&#xca;" horiz-adv-x="1100" 
d="M962 818v-250h-518v-316h578v-252h-888v1348h860v-252h-550v-278h518zM465 1702h220l210 -252h-214l-104 132l-106 -132h-216z" />
    <glyph glyph-name="Edieresis" unicode="&#xcb;" horiz-adv-x="1100" 
d="M962 818v-250h-518v-316h578v-252h-888v1348h860v-252h-550v-278h518zM490 1592c0 -37.333 -12.6689 -69.333 -38.002 -96s-56.666 -40 -93.999 -40c-40 0 -73.667 13.333 -101 40s-41 58.667 -41 96c0 38.667 13.667 71.334 41 98.001s61 40 101 40
c36.667 0 67.834 -13.333 93.501 -40s38.5 -59.334 38.5 -98.001zM903.998 1592c0 -38 -12.832 -70.165 -38.499 -96.498s-57.5 -39.5 -95.5 -39.5c-40 0 -73 13.167 -99 39.5s-39 58.5 -39 96.5c0 39.333 13.167 72.166 39.5 98.499s59.166 39.5 98.499 39.5
c38 0 69.833 -13.333 95.5 -40s38.5 -59.334 38.5 -98.001z" />
    <glyph glyph-name="Igrave" unicode="&#xcc;" horiz-adv-x="578" 
d="M134 1348h310v-1348h-310v1348zM-57 1704h322l176 -250h-248z" />
    <glyph glyph-name="Iacute" unicode="&#xcd;" horiz-adv-x="578" 
d="M134 1348h310v-1348h-310v1348zM315 1702h324l-248 -252h-248z" />
    <glyph glyph-name="Icircumflex" unicode="&#xce;" horiz-adv-x="578" 
d="M134 1348h310v-1348h-310v1348zM183 1702h220l210 -252h-214l-104 132l-106 -132h-216z" />
    <glyph glyph-name="Idieresis" unicode="&#xcf;" horiz-adv-x="578" 
d="M134 1348h310v-1348h-310v1348zM221 1592c0 -37.333 -12.6689 -69.333 -38.002 -96s-56.666 -40 -93.999 -40c-40 0 -73.667 13.333 -101 40s-41 58.667 -41 96c0 38.667 13.667 71.334 41 98.001s61 40 101 40c36.667 0 67.834 -13.333 93.501 -40
s38.5 -59.334 38.5 -98.001zM634.998 1592c0 -38 -12.832 -70.165 -38.499 -96.498s-57.5 -39.5 -95.5 -39.5c-40 0 -73 13.167 -99 39.5s-39 58.5 -39 96.5c0 39.333 13.167 72.166 39.5 98.499s59.166 39.5 98.499 39.5c38 0 69.833 -13.333 95.5 -40
s38.5 -59.334 38.5 -98.001z" />
    <glyph glyph-name="Eth" unicode="&#xd0;" horiz-adv-x="1458" 
d="M4 564l-0.000976562 244h146v526c133.333 20 276 30 428 30c208 0 367.833 -28.667 479.5 -86s194.334 -134.333 248.001 -231s80.5 -209 80.5 -337c0 -231.333 -71.167 -410.833 -213.5 -538.5s-362.5 -191.5 -660.5 -191.5c-137.333 0 -258 6.66699 -362 20v564h-146z
M741.999 808v-244h-282v-338c16.667 -4 54.667 -6 114 -6c156.667 0 276.5 40.833 359.5 122.5s124.5 200.167 124.5 355.5c0 139.333 -38.5 245.5 -115.5 318.5s-188.5 109.5 -334.5 109.5c-60.667 0 -110 -4 -148 -12v-306h282z" />
    <glyph glyph-name="Ntilde" unicode="&#xd1;" horiz-adv-x="1422" 
d="M420 0l-286 -0.000976562v1348h368l325 -551c62 -107.333 127 -243.666 195 -408.999h4c-16 141.333 -24 326.666 -24 555.999v404h286v-1348h-328c-228.667 396.667 -365 635.834 -409 717.501s-89.667 177.167 -137 286.5h-8c9.33301 -170 14 -365.333 14 -586v-418z
M566 1458h-142c0 169.333 52 254 156 254c37.333 0 81.333 -13.333 132 -40c53.333 -26.667 83.333 -40 90 -40c20 0 33.5 7.16699 40.5 21.5s12.167 36.5 15.5 66.5h138c0 -100.667 -14.5 -167.167 -43.5 -199.5s-67.833 -48.5 -116.5 -48.5
c-42.667 0 -86.667 12.667 -132 38c-45.333 24 -75.333 36 -90 36c-28 0 -44 -29.333 -48 -88z" />
    <glyph glyph-name="Ograve" unicode="&#xd2;" horiz-adv-x="1490" 
d="M1418 686c0 -214 -62.8311 -385.5 -188.498 -514.5s-290.834 -193.5 -495.501 -193.5c-198.667 0 -358.667 64.167 -480 192.5s-182 292.833 -182 493.5c0 205.333 63.333 374.333 190 507s290 199 490 199c201.333 0 362.666 -64 483.999 -192s182 -292 182 -492z
M398.002 672c0 -132 31.667 -240.001 95 -324.001s146.333 -126 249 -126c105.333 0 189.333 41.667 252 125s94 193 94 329c0 130.667 -31.5 238.334 -94.5 323.001s-146.167 127 -249.5 127c-104 0 -187.667 -42.5 -251 -127.5s-95 -193.833 -95 -326.5zM391.002 1704h322
l176 -250h-248z" />
    <glyph glyph-name="Oacute" unicode="&#xd3;" horiz-adv-x="1490" 
d="M1418 686c0 -214 -62.8311 -385.5 -188.498 -514.5s-290.834 -193.5 -495.501 -193.5c-198.667 0 -358.667 64.167 -480 192.5s-182 292.833 -182 493.5c0 205.333 63.333 374.333 190 507s290 199 490 199c201.333 0 362.666 -64 483.999 -192s182 -292 182 -492z
M398.002 672c0 -132 31.667 -240.001 95 -324.001s146.333 -126 249 -126c105.333 0 189.333 41.667 252 125s94 193 94 329c0 130.667 -31.5 238.334 -94.5 323.001s-146.167 127 -249.5 127c-104 0 -187.667 -42.5 -251 -127.5s-95 -193.833 -95 -326.5zM784.002 1702h324
l-248 -252h-248z" />
    <glyph glyph-name="Ocircumflex" unicode="&#xd4;" horiz-adv-x="1490" 
d="M1418 686c0 -214 -62.8311 -385.5 -188.498 -514.5s-290.834 -193.5 -495.501 -193.5c-198.667 0 -358.667 64.167 -480 192.5s-182 292.833 -182 493.5c0 205.333 63.333 374.333 190 507s290 199 490 199c201.333 0 362.666 -64 483.999 -192s182 -292 182 -492z
M398.002 672c0 -132 31.667 -240.001 95 -324.001s146.333 -126 249 -126c105.333 0 189.333 41.667 252 125s94 193 94 329c0 130.667 -31.5 238.334 -94.5 323.001s-146.167 127 -249.5 127c-104 0 -187.667 -42.5 -251 -127.5s-95 -193.833 -95 -326.5zM636.002 1702h220
l210 -252h-214l-104 132l-106 -132h-216z" />
    <glyph glyph-name="Otilde" unicode="&#xd5;" horiz-adv-x="1490" 
d="M1418 686c0 -214 -62.8311 -385.5 -188.498 -514.5s-290.834 -193.5 -495.501 -193.5c-198.667 0 -358.667 64.167 -480 192.5s-182 292.833 -182 493.5c0 205.333 63.333 374.333 190 507s290 199 490 199c201.333 0 362.666 -64 483.999 -192s182 -292 182 -492z
M398.002 672c0 -132 31.667 -240.001 95 -324.001s146.333 -126 249 -126c105.333 0 189.333 41.667 252 125s94 193 94 329c0 130.667 -31.5 238.334 -94.5 323.001s-146.167 127 -249.5 127c-104 0 -187.667 -42.5 -251 -127.5s-95 -193.833 -95 -326.5zM602.002 1458
h-142c0 169.333 52 254 156 254c37.333 0 81.333 -13.333 132 -40c53.333 -26.667 83.333 -40 90 -40c20 0 33.5 7.16699 40.5 21.5s12.167 36.5 15.5 66.5h138c0 -100.667 -14.5 -167.167 -43.5 -199.5s-67.833 -48.5 -116.5 -48.5c-42.667 0 -86.667 12.667 -132 38
c-45.333 24 -75.333 36 -90 36c-28 0 -44 -29.333 -48 -88z" />
    <glyph glyph-name="Odieresis" unicode="&#xd6;" horiz-adv-x="1490" 
d="M1418 686c0 -214 -62.8311 -385.5 -188.498 -514.5s-290.834 -193.5 -495.501 -193.5c-198.667 0 -358.667 64.167 -480 192.5s-182 292.833 -182 493.5c0 205.333 63.333 374.333 190 507s290 199 490 199c201.333 0 362.666 -64 483.999 -192s182 -292 182 -492z
M398.002 672c0 -132 31.667 -240.001 95 -324.001s146.333 -126 249 -126c105.333 0 189.333 41.667 252 125s94 193 94 329c0 130.667 -31.5 238.334 -94.5 323.001s-146.167 127 -249.5 127c-104 0 -187.667 -42.5 -251 -127.5s-95 -193.833 -95 -326.5zM673.002 1592
c0 -37.333 -12.6689 -69.333 -38.002 -96s-56.666 -40 -93.999 -40c-40 0 -73.667 13.333 -101 40s-41 58.667 -41 96c0 38.667 13.667 71.334 41 98.001s61 40 101 40c36.667 0 67.834 -13.333 93.501 -40s38.5 -59.334 38.5 -98.001zM1087 1592
c0 -38 -12.832 -70.165 -38.499 -96.498s-57.5 -39.5 -95.5 -39.5c-40 0 -73 13.167 -99 39.5s-39 58.5 -39 96.5c0 39.333 13.167 72.166 39.5 98.499s59.166 39.5 98.499 39.5c38 0 69.833 -13.333 95.5 -40s38.5 -59.334 38.5 -98.001z" />
    <glyph glyph-name="multiply" unicode="&#xd7;" horiz-adv-x="1192" 
d="M80 920l132 134l384 -392l384 392l132 -134l-382 -392l382 -392l-134 -136l-382 392l-382 -392l-134 136l384 392z" />
    <glyph glyph-name="Oslash" unicode="&#xd8;" horiz-adv-x="1490" 
d="M320 -136l-170.001 136l118 168c-130.667 130.667 -196 298.667 -196 504c0 201.333 63.333 368 190 500s288.667 198 486 198c116 0 219.333 -24 310 -72l116 164l176 -122l-116 -166c122.667 -130.667 184 -294.667 184 -492c0 -211.333 -62.667 -381.5 -188 -510.5
s-286.666 -193.5 -483.999 -193.5c-108 0 -207.333 22.667 -298 68zM911.999 1084c-51.333 32 -106.667 48 -166 48c-109.333 0 -197 -42.333 -263 -127s-99 -195 -99 -331c0 -88.667 18.667 -172.667 56 -252zM1054 910l-460.002 -648
c40.667 -30.667 91.334 -46 152.001 -46c108.667 0 195.834 42.167 261.501 126.5s98.5 195.5 98.5 333.5c0 81.333 -17.333 159.333 -52 234z" />
    <glyph glyph-name="Ugrave" unicode="&#xd9;" horiz-adv-x="1406" 
d="M134 1348h309.999v-764c0 -117.333 22 -207 66 -269s107.333 -93 190 -93c174.667 0 262 120.667 262 362v764h310v-748c0 -203.333 -49.667 -357.833 -149 -463.5s-243.666 -158.5 -432.999 -158.5c-370.667 0 -556 208.667 -556 626v744zM358.999 1704h322l176 -250
h-248z" />
    <glyph glyph-name="Uacute" unicode="&#xda;" horiz-adv-x="1406" 
d="M134 1348h309.999v-764c0 -117.333 22 -207 66 -269s107.333 -93 190 -93c174.667 0 262 120.667 262 362v764h310v-748c0 -203.333 -49.667 -357.833 -149 -463.5s-243.666 -158.5 -432.999 -158.5c-370.667 0 -556 208.667 -556 626v744zM741.999 1702h324l-248 -252
h-248z" />
    <glyph glyph-name="Ucircumflex" unicode="&#xdb;" horiz-adv-x="1406" 
d="M134 1348h309.999v-764c0 -117.333 22 -207 66 -269s107.333 -93 190 -93c174.667 0 262 120.667 262 362v764h310v-748c0 -203.333 -49.667 -357.833 -149 -463.5s-243.666 -158.5 -432.999 -158.5c-370.667 0 -556 208.667 -556 626v744zM615.999 1702h220l210 -252
h-214l-104 132l-106 -132h-216z" />
    <glyph glyph-name="Udieresis" unicode="&#xdc;" horiz-adv-x="1406" 
d="M134 1348h309.999v-764c0 -117.333 22 -207 66 -269s107.333 -93 190 -93c174.667 0 262 120.667 262 362v764h310v-748c0 -203.333 -49.667 -357.833 -149 -463.5s-243.666 -158.5 -432.999 -158.5c-370.667 0 -556 208.667 -556 626v744zM644.999 1592
c0 -37.333 -12.6689 -69.333 -38.002 -96s-56.666 -40 -93.999 -40c-40 0 -73.667 13.333 -101 40s-41 58.667 -41 96c0 38.667 13.667 71.334 41 98.001s61 40 101 40c36.667 0 67.834 -13.333 93.501 -40s38.5 -59.334 38.5 -98.001zM1059 1592
c0 -38 -12.832 -70.165 -38.499 -96.498s-57.5 -39.5 -95.5 -39.5c-40 0 -73 13.167 -99 39.5s-39 58.5 -39 96.5c0 39.333 13.167 72.166 39.5 98.499s59.166 39.5 98.499 39.5c38 0 69.833 -13.333 95.5 -40s38.5 -59.334 38.5 -98.001z" />
    <glyph glyph-name="Yacute" unicode="&#xdd;" horiz-adv-x="1252" 
d="M774 0l-310 -0.000976562v556l-440 792h356c163.333 -371.333 248 -564.666 254 -579.999c30.667 82.667 114 276 250 580h352l-462 -780v-568zM683 1702h324l-248 -252h-248z" />
    <glyph glyph-name="Thorn" unicode="&#xde;" horiz-adv-x="1190" 
d="M134 0l0.000976562 1348h306v-244c48 5.33301 106.667 8 176 8c171.333 0 299.166 -38.167 383.499 -114.5s126.5 -171.5 126.5 -285.5c0 -156.667 -49.833 -272.5 -149.5 -347.5s-230.5 -112.5 -392.5 -112.5c-49.333 0 -97.333 3.33301 -144 10v-262h-306zM440.001 868
l0.000976562 -366c32.667 -8 76.667 -12 132 -12c80 0 141.333 17.5 184 52.5s64 83.5 64 145.5c0 60.667 -20.833 107.5 -62.5 140.5s-100.834 49.5 -177.501 49.5c-66 0 -112.667 -3.33301 -140 -10z" />
    <glyph glyph-name="germandbls" unicode="&#xdf;" horiz-adv-x="1224" 
d="M436 0l-310 0.000976562v862c0 196 46.167 342.333 138.5 439s220.833 145 385.5 145c126.667 0 231.334 -34.667 314.001 -104s124 -159.333 124 -270c0 -70 -16.667 -124.667 -50 -164c-77.333 -36.667 -116 -82.667 -116 -138c0 -40.667 22.667 -84.667 68 -132
c108 -114.667 162 -219.334 162 -314.001c0 -104.667 -36.667 -188.5 -110 -251.5s-173.333 -94.5 -300 -94.5c-90.667 0 -163.334 11.333 -218.001 34l38 226c38 -18.667 85.333 -28 142 -28c41.333 0 74.333 9.5 99 28.5s37 43.5 37 73.5c0 38 -24 82 -72 132
c-105.333 108.667 -158 204 -158 286c0 108 54.667 192 164 252c10.667 20.667 16 42.667 16 66c0 48 -14.667 87.333 -44 118s-68 46 -116 46c-129.333 0 -194 -108 -194 -324v-888z" />
    <glyph glyph-name="agrave" unicode="&#xe0;" horiz-adv-x="1082" 
d="M958 578l-0.000976562 -339.999c0 -98.667 5.33301 -178 16 -238h-278l-18 98h-8c-67.333 -80 -162.666 -120 -285.999 -120c-96 0 -174 29.167 -234 87.5s-90 129.166 -90 212.499c0 121.333 50.833 214.333 152.5 279s247.5 97 437.5 97v12
c0 81.333 -61.333 122 -184 122c-100 0 -192.667 -24.667 -278 -74l-58 196c108.667 60 238.667 90 390 90c144 0 253 -36.333 327 -109s111 -177 111 -313zM659.999 362.001v100.001c-196 0 -294 -50.667 -294 -152c0 -36.667 11 -65.167 33 -85.5s52.333 -30.5 91 -30.5
c42 0 80.833 14.667 116.5 44s53.5 70.666 53.5 123.999zM207.999 1402h286l176 -306h-212z" />
    <glyph glyph-name="aacute" unicode="&#xe1;" horiz-adv-x="1082" 
d="M958 578l-0.000976562 -339.999c0 -98.667 5.33301 -178 16 -238h-278l-18 98h-8c-67.333 -80 -162.666 -120 -285.999 -120c-96 0 -174 29.167 -234 87.5s-90 129.166 -90 212.499c0 121.333 50.833 214.333 152.5 279s247.5 97 437.5 97v12
c0 81.333 -61.333 122 -184 122c-100 0 -192.667 -24.667 -278 -74l-58 196c108.667 60 238.667 90 390 90c144 0 253 -36.333 327 -109s111 -177 111 -313zM659.999 362.001v100.001c-196 0 -294 -50.667 -294 -152c0 -36.667 11 -65.167 33 -85.5s52.333 -30.5 91 -30.5
c42 0 80.833 14.667 116.5 44s53.5 70.666 53.5 123.999zM573.999 1402h286l-250 -306h-212z" />
    <glyph glyph-name="acircumflex" unicode="&#xe2;" horiz-adv-x="1082" 
d="M958 578l-0.000976562 -339.999c0 -98.667 5.33301 -178 16 -238h-278l-18 98h-8c-67.333 -80 -162.666 -120 -285.999 -120c-96 0 -174 29.167 -234 87.5s-90 129.166 -90 212.499c0 121.333 50.833 214.333 152.5 279s247.5 97 437.5 97v12
c0 81.333 -61.333 122 -184 122c-100 0 -192.667 -24.667 -278 -74l-58 196c108.667 60 238.667 90 390 90c144 0 253 -36.333 327 -109s111 -177 111 -313zM659.999 362.001v100.001c-196 0 -294 -50.667 -294 -152c0 -36.667 11 -65.167 33 -85.5s52.333 -30.5 91 -30.5
c42 0 80.833 14.667 116.5 44s53.5 70.666 53.5 123.999zM433.999 1402h198l202 -306h-198l-102 174l-106 -174h-196z" />
    <glyph glyph-name="atilde" unicode="&#xe3;" horiz-adv-x="1082" 
d="M958 578l-0.000976562 -339.999c0 -98.667 5.33301 -178 16 -238h-278l-18 98h-8c-67.333 -80 -162.666 -120 -285.999 -120c-96 0 -174 29.167 -234 87.5s-90 129.166 -90 212.499c0 121.333 50.833 214.333 152.5 279s247.5 97 437.5 97v12
c0 81.333 -61.333 122 -184 122c-100 0 -192.667 -24.667 -278 -74l-58 196c108.667 60 238.667 90 390 90c144 0 253 -36.333 327 -109s111 -177 111 -313zM659.999 362.001v100.001c-196 0 -294 -50.667 -294 -152c0 -36.667 11 -65.167 33 -85.5s52.333 -30.5 91 -30.5
c42 0 80.833 14.667 116.5 44s53.5 70.666 53.5 123.999zM376.999 1110h-137.999c0 169.333 51.333 254 154 254c30 0 74.667 -13.333 134 -40c43.333 -25.333 72.666 -38 87.999 -38c19.333 0 32.5 7.16699 39.5 21.5s11.833 36.5 14.5 66.5h136
c0 -88.667 -13 -152.167 -39 -190.5s-66.333 -57.5 -121 -57.5c-38.667 0 -86 14.667 -142 44c-36 20 -62 30 -78 30c-28 0 -44 -30 -48 -90z" />
    <glyph glyph-name="adieresis" unicode="&#xe4;" horiz-adv-x="1082" 
d="M958 578l-0.000976562 -339.999c0 -98.667 5.33301 -178 16 -238h-278l-18 98h-8c-67.333 -80 -162.666 -120 -285.999 -120c-96 0 -174 29.167 -234 87.5s-90 129.166 -90 212.499c0 121.333 50.833 214.333 152.5 279s247.5 97 437.5 97v12
c0 81.333 -61.333 122 -184 122c-100 0 -192.667 -24.667 -278 -74l-58 196c108.667 60 238.667 90 390 90c144 0 253 -36.333 327 -109s111 -177 111 -313zM659.999 362.001v100.001c-196 0 -294 -50.667 -294 -152c0 -36.667 11 -65.167 33 -85.5s52.333 -30.5 91 -30.5
c42 0 80.833 14.667 116.5 44s53.5 70.666 53.5 123.999zM468.999 1228c0 -38 -12.832 -70.501 -38.499 -97.501s-57.5 -40.5 -95.5 -40.5c-39.333 0 -72.5 13.667 -99.5 41s-40.5 59.666 -40.5 96.999c0 38.667 13.667 71.334 41 98.001s61 40 101 40
c37.333 0 68.666 -13.167 93.999 -39.5s38 -59.166 38 -98.499zM885 1228c0 -38 -12.8311 -70.499 -38.498 -97.499s-58.167 -40.5 -97.5 -40.5c-38.667 0 -71.334 13.5 -98.001 40.5s-40 59.5 -40 97.5c0 39.333 13.167 72.166 39.5 98.499s59.166 39.5 98.499 39.5
c38.667 0 71 -13 97 -39s39 -59 39 -99z" />
    <glyph glyph-name="aring" unicode="&#xe5;" horiz-adv-x="1082" 
d="M958 578l-0.000976562 -339.999c0 -98.667 5.33301 -178 16 -238h-278l-18 98h-8c-67.333 -80 -162.666 -120 -285.999 -120c-96 0 -174 29.167 -234 87.5s-90 129.166 -90 212.499c0 121.333 50.833 214.333 152.5 279s247.5 97 437.5 97v12
c0 81.333 -61.333 122 -184 122c-100 0 -192.667 -24.667 -278 -74l-58 196c108.667 60 238.667 90 390 90c144 0 253 -36.333 327 -109s111 -177 111 -313zM659.999 362.001v100.001c-196 0 -294 -50.667 -294 -152c0 -36.667 11 -65.167 33 -85.5s52.333 -30.5 91 -30.5
c42 0 80.833 14.667 116.5 44s53.5 70.666 53.5 123.999zM310.999 1272c0 59.333 21.168 107.833 63.501 145.5s99.166 56.5 170.499 56.5s127.5 -18.5 168.5 -55.5s61.5 -85.833 61.5 -146.5c0 -56.667 -21.167 -103.5 -63.5 -140.5s-97.833 -55.5 -166.5 -55.5
c-70 0 -126.5 18.5 -169.5 55.5s-64.5 83.833 -64.5 140.5zM637 1274c0 28 -8.5 51.334 -25.5 70.001s-39.167 28 -66.5 28c-28 0 -50.333 -9.5 -67 -28.5s-25 -42.833 -25 -71.5c0 -25.333 8.5 -47.333 25.5 -66s38.5 -28 64.5 -28c28 0 50.667 9.16699 68 27.5
s26 41.166 26 68.499z" />
    <glyph glyph-name="ae" unicode="&#xe6;" horiz-adv-x="1646" 
d="M1578 402l-636.002 -0.000976562c4 -60 30.833 -107.667 80.5 -143s112.834 -53 189.501 -53c102.667 0 197.334 18 284.001 54l42 -206c-96.667 -50.667 -220 -76 -370 -76c-84 0 -159.833 15.167 -227.5 45.5s-118.5 73.166 -152.5 128.499h-8
c-86 -116 -210.667 -174 -374 -174c-104 0 -187.667 29 -251 87s-95 131 -95 219c0 116.667 52.833 205.834 158.5 267.501s251.5 92.5 437.5 92.5v28c0 24.667 -16 49.834 -48 75.501s-80 38.5 -144 38.5c-95.333 0 -186 -25.333 -272 -76l-60 196
c119.333 62.667 237.333 94 354 94c158.667 0 270.667 -53.333 336 -160c84.667 106.667 198.667 160 342 160c132 0 235.333 -46.667 310 -140s112 -209.333 112 -348c0 -14 -2.66699 -50.667 -8 -110zM939.998 611.999l359.998 0.000976562c0 54 -15 98.5 -45 133.5
s-72.333 52.5 -127 52.5c-53.333 0 -97.166 -18.333 -131.499 -55s-53.166 -80.334 -56.499 -131.001zM663.996 358v98c-198.667 0 -298 -50 -298 -150c0 -34.667 11.833 -62 35.5 -82s54.5 -30 92.5 -30c40 0 74.333 10.5 103 31.5s47 41.5 55 61.5s12 43.667 12 71z" />
    <glyph glyph-name="ccedilla" unicode="&#xe7;" horiz-adv-x="932" 
d="M844 252l41.999 -226.001c-68 -28.667 -152 -44 -252 -46l-38 -66c43.333 -6 78.5 -22.667 105.5 -50s40.5 -59.333 40.5 -96c0 -61.333 -23 -106 -69 -134s-105 -42 -177 -42c-62.667 0 -116.667 13.333 -162 40l42 114c36 -22.667 72 -34 108 -34c48 0 72 17.333 72 52
c0 40.667 -52.667 64.667 -158 72l78 154c-130 22.667 -230.833 77.834 -302.5 165.501s-107.5 196.5 -107.5 326.5c0 148 50.333 271.333 151 370s241 148 421 148c91.333 0 172.666 -13.333 243.999 -40l-50 -230c-48 22.667 -107.333 34 -178 34
c-81.333 0 -146.666 -25.167 -195.999 -75.5s-74 -115.833 -74 -196.5c0 -84 25.833 -150.667 77.5 -200s117.834 -74 198.501 -74c68 0 129.333 11.333 184 34z" />
    <glyph glyph-name="egrave" unicode="&#xe8;" horiz-adv-x="1080" 
d="M1010 390l-650.001 -0.000976562c5.33301 -58 34.5 -103.167 87.5 -135.5s119.167 -48.5 198.5 -48.5c101.333 0 194.666 14 279.999 42l40 -206c-101.333 -42.667 -222.666 -64 -363.999 -64c-167.333 0 -298.5 44.667 -393.5 134s-142.5 211.333 -142.5 366
c0 142 45.667 264.5 137 367.5s214.333 154.5 369 154.5c142.667 0 253.334 -46 332.001 -138s118 -210 118 -354c0 -47.333 -4 -86.666 -12 -117.999zM357.999 601.999h376c0 46 -13.5 89.833 -40.5 131.5s-72.833 62.5 -137.5 62.5c-53.333 0 -97.5 -17.833 -132.5 -53.5
s-56.833 -82.5 -65.5 -140.5zM247.999 1402h286l176 -306h-212z" />
    <glyph glyph-name="eacute" unicode="&#xe9;" horiz-adv-x="1080" 
d="M1010 390l-650.001 -0.000976562c5.33301 -58 34.5 -103.167 87.5 -135.5s119.167 -48.5 198.5 -48.5c101.333 0 194.666 14 279.999 42l40 -206c-101.333 -42.667 -222.666 -64 -363.999 -64c-167.333 0 -298.5 44.667 -393.5 134s-142.5 211.333 -142.5 366
c0 142 45.667 264.5 137 367.5s214.333 154.5 369 154.5c142.667 0 253.334 -46 332.001 -138s118 -210 118 -354c0 -47.333 -4 -86.666 -12 -117.999zM357.999 601.999h376c0 46 -13.5 89.833 -40.5 131.5s-72.833 62.5 -137.5 62.5c-53.333 0 -97.5 -17.833 -132.5 -53.5
s-56.833 -82.5 -65.5 -140.5zM613.999 1402h286l-250 -306h-212z" />
    <glyph glyph-name="ecircumflex" unicode="&#xea;" horiz-adv-x="1080" 
d="M1010 390l-650.001 -0.000976562c5.33301 -58 34.5 -103.167 87.5 -135.5s119.167 -48.5 198.5 -48.5c101.333 0 194.666 14 279.999 42l40 -206c-101.333 -42.667 -222.666 -64 -363.999 -64c-167.333 0 -298.5 44.667 -393.5 134s-142.5 211.333 -142.5 366
c0 142 45.667 264.5 137 367.5s214.333 154.5 369 154.5c142.667 0 253.334 -46 332.001 -138s118 -210 118 -354c0 -47.333 -4 -86.666 -12 -117.999zM357.999 601.999h376c0 46 -13.5 89.833 -40.5 131.5s-72.833 62.5 -137.5 62.5c-53.333 0 -97.5 -17.833 -132.5 -53.5
s-56.833 -82.5 -65.5 -140.5zM463.999 1402h198l202 -306h-198l-102 174l-106 -174h-196z" />
    <glyph glyph-name="edieresis" unicode="&#xeb;" horiz-adv-x="1080" 
d="M1010 390l-650.001 -0.000976562c5.33301 -58 34.5 -103.167 87.5 -135.5s119.167 -48.5 198.5 -48.5c101.333 0 194.666 14 279.999 42l40 -206c-101.333 -42.667 -222.666 -64 -363.999 -64c-167.333 0 -298.5 44.667 -393.5 134s-142.5 211.333 -142.5 366
c0 142 45.667 264.5 137 367.5s214.333 154.5 369 154.5c142.667 0 253.334 -46 332.001 -138s118 -210 118 -354c0 -47.333 -4 -86.666 -12 -117.999zM357.999 601.999h376c0 46 -13.5 89.833 -40.5 131.5s-72.833 62.5 -137.5 62.5c-53.333 0 -97.5 -17.833 -132.5 -53.5
s-56.833 -82.5 -65.5 -140.5zM501.999 1228c0 -38 -12.832 -70.501 -38.499 -97.501s-57.5 -40.5 -95.5 -40.5c-39.333 0 -72.5 13.667 -99.5 41s-40.5 59.666 -40.5 96.999c0 38.667 13.667 71.334 41 98.001s61 40 101 40c37.333 0 68.666 -13.167 93.999 -39.5
s38 -59.166 38 -98.499zM918 1228c0 -38 -12.8311 -70.499 -38.498 -97.499s-58.167 -40.5 -97.5 -40.5c-38.667 0 -71.334 13.5 -98.001 40.5s-40 59.5 -40 97.5c0 39.333 13.167 72.166 39.5 98.499s59.166 39.5 98.499 39.5c38.667 0 71 -13 97 -39s39 -59 39 -99z" />
    <glyph glyph-name="igrave" unicode="&#xec;" horiz-adv-x="560" 
d="M436 0h-310v978h310v-978zM-59 1402h286l176 -306h-212z" />
    <glyph glyph-name="iacute" unicode="&#xed;" horiz-adv-x="560" 
d="M436 0h-310v978h310v-978zM328 1402h286l-250 -306h-212z" />
    <glyph glyph-name="icircumflex" unicode="&#xee;" horiz-adv-x="560" 
d="M436 0h-310v978h310v-978zM185 1402h198l202 -306h-198l-102 174l-106 -174h-196z" />
    <glyph glyph-name="idieresis" unicode="&#xef;" horiz-adv-x="560" 
d="M436 0h-310v978h310v-978zM211 1228c0 -38 -12.832 -70.501 -38.499 -97.501s-57.5 -40.5 -95.5 -40.5c-39.333 0 -72.5 13.667 -99.5 41s-40.5 59.666 -40.5 96.999c0 38.667 13.667 71.334 41 98.001s61 40 101 40c37.333 0 68.666 -13.167 93.999 -39.5
s38 -59.166 38 -98.499zM627.001 1228c0 -38 -12.8311 -70.499 -38.498 -97.499s-58.167 -40.5 -97.5 -40.5c-38.667 0 -71.334 13.5 -98.001 40.5s-40 59.5 -40 97.5c0 39.333 13.167 72.166 39.5 98.499s59.166 39.5 98.499 39.5c38.667 0 71 -13 97 -39s39 -59 39 -99z
" />
    <glyph glyph-name="eth" unicode="&#xf0;" horiz-adv-x="1182" 
d="M222 950l-54.001 124.001l214 94c-57.333 35.333 -122 66.666 -194 93.999l128 176c110.667 -37.333 222 -91.333 334 -162l286 122l62 -120l-218 -92c224 -178.667 336 -402.667 336 -672c0 -165.333 -49.667 -296 -149 -392s-224.333 -144 -375 -144
c-151.333 0 -276.5 46 -375.5 138s-148.5 211.333 -148.5 358c0 139.333 47.667 252.5 143 339.5s209 130.5 341 130.5c56.667 0 105.334 -14 146.001 -42l4 6c-54 68.667 -114.667 124.667 -182 168zM385.999 476.001c0 -81.333 18.5 -148 55.5 -200s86.5 -78 148.5 -78
c64 0 114 25.5 150 76.5s54 120.833 54 209.5c0 100.667 -17 171.167 -51 211.5s-83.667 60.5 -149 60.5c-66 0 -117.167 -27 -153.5 -81s-54.5 -120.333 -54.5 -199z" />
    <glyph glyph-name="ntilde" unicode="&#xf1;" horiz-adv-x="1200" 
d="M126 0v663.997c0 96.667 -2.66699 201.334 -8 314.001h268l14 -138h8c72.667 106.667 176 160 310 160c110 0 197.5 -37.167 262.5 -111.5s97.5 -179.166 97.5 -314.499v-574h-310v534c0 145.333 -54 218 -162 218c-44 0 -83.333 -16.667 -118 -50
s-52 -80.666 -52 -141.999v-560h-310zM459 1110h-137.999c0 169.333 51.333 254 154 254c30 0 74.667 -13.333 134 -40c43.333 -25.333 72.666 -38 87.999 -38c19.333 0 32.5 7.16699 39.5 21.5s11.833 36.5 14.5 66.5h136c0 -88.667 -13 -152.167 -39 -190.5
s-66.333 -57.5 -121 -57.5c-38.667 0 -86 14.667 -142 44c-36 20 -62 30 -78 30c-28 0 -44 -30 -48 -90z" />
    <glyph glyph-name="ograve" unicode="&#xf2;" horiz-adv-x="1186" 
d="M1120 500c0 -160 -50.334 -286.999 -151.001 -380.999s-227 -141 -379 -141c-153.333 0 -279 46.167 -377 138.5s-147 214.166 -147 365.499c0 155.333 49.333 280.5 148 375.5s229.334 142.5 392.001 142.5c152 0 275.667 -46.667 371 -140s143 -213.333 143 -360z
M383.999 488.001c0 -86.667 18.833 -156.667 56.5 -210s88.167 -80 151.5 -80c62 0 111.833 26.333 149.5 79s56.5 123.667 56.5 213c0 85.333 -18 155 -54 209s-86 81 -150 81c-66 0 -117.5 -27.167 -154.5 -81.5s-55.5 -124.5 -55.5 -210.5zM277.999 1402h286l176 -306
h-212z" />
    <glyph glyph-name="oacute" unicode="&#xf3;" horiz-adv-x="1186" 
d="M1120 500c0 -160 -50.334 -286.999 -151.001 -380.999s-227 -141 -379 -141c-153.333 0 -279 46.167 -377 138.5s-147 214.166 -147 365.499c0 155.333 49.333 280.5 148 375.5s229.334 142.5 392.001 142.5c152 0 275.667 -46.667 371 -140s143 -213.333 143 -360z
M383.999 488.001c0 -86.667 18.833 -156.667 56.5 -210s88.167 -80 151.5 -80c62 0 111.833 26.333 149.5 79s56.5 123.667 56.5 213c0 85.333 -18 155 -54 209s-86 81 -150 81c-66 0 -117.5 -27.167 -154.5 -81.5s-55.5 -124.5 -55.5 -210.5zM629.999 1402h286l-250 -306
h-212z" />
    <glyph glyph-name="ocircumflex" unicode="&#xf4;" horiz-adv-x="1186" 
d="M1120 500c0 -160 -50.334 -286.999 -151.001 -380.999s-227 -141 -379 -141c-153.333 0 -279 46.167 -377 138.5s-147 214.166 -147 365.499c0 155.333 49.333 280.5 148 375.5s229.334 142.5 392.001 142.5c152 0 275.667 -46.667 371 -140s143 -213.333 143 -360z
M383.999 488.001c0 -86.667 18.833 -156.667 56.5 -210s88.167 -80 151.5 -80c62 0 111.833 26.333 149.5 79s56.5 123.667 56.5 213c0 85.333 -18 155 -54 209s-86 81 -150 81c-66 0 -117.5 -27.167 -154.5 -81.5s-55.5 -124.5 -55.5 -210.5zM495.999 1402h198l202 -306
h-198l-102 174l-106 -174h-196z" />
    <glyph glyph-name="otilde" unicode="&#xf5;" horiz-adv-x="1186" 
d="M1120 500c0 -160 -50.334 -286.999 -151.001 -380.999s-227 -141 -379 -141c-153.333 0 -279 46.167 -377 138.5s-147 214.166 -147 365.499c0 155.333 49.333 280.5 148 375.5s229.334 142.5 392.001 142.5c152 0 275.667 -46.667 371 -140s143 -213.333 143 -360z
M383.999 488.001c0 -86.667 18.833 -156.667 56.5 -210s88.167 -80 151.5 -80c62 0 111.833 26.333 149.5 79s56.5 123.667 56.5 213c0 85.333 -18 155 -54 209s-86 81 -150 81c-66 0 -117.5 -27.167 -154.5 -81.5s-55.5 -124.5 -55.5 -210.5zM449.999 1110h-137.999
c0 169.333 51.333 254 154 254c30 0 74.667 -13.333 134 -40c43.333 -25.333 72.666 -38 87.999 -38c19.333 0 32.5 7.16699 39.5 21.5s11.833 36.5 14.5 66.5h136c0 -88.667 -13 -152.167 -39 -190.5s-66.333 -57.5 -121 -57.5c-38.667 0 -86 14.667 -142 44
c-36 20 -62 30 -78 30c-28 0 -44 -30 -48 -90z" />
    <glyph glyph-name="odieresis" unicode="&#xf6;" horiz-adv-x="1186" 
d="M1120 500c0 -160 -50.334 -286.999 -151.001 -380.999s-227 -141 -379 -141c-153.333 0 -279 46.167 -377 138.5s-147 214.166 -147 365.499c0 155.333 49.333 280.5 148 375.5s229.334 142.5 392.001 142.5c152 0 275.667 -46.667 371 -140s143 -213.333 143 -360z
M383.999 488.001c0 -86.667 18.833 -156.667 56.5 -210s88.167 -80 151.5 -80c62 0 111.833 26.333 149.5 79s56.5 123.667 56.5 213c0 85.333 -18 155 -54 209s-86 81 -150 81c-66 0 -117.5 -27.167 -154.5 -81.5s-55.5 -124.5 -55.5 -210.5zM521.999 1228
c0 -38 -12.832 -70.501 -38.499 -97.501s-57.5 -40.5 -95.5 -40.5c-39.333 0 -72.5 13.667 -99.5 41s-40.5 59.666 -40.5 96.999c0 38.667 13.667 71.334 41 98.001s61 40 101 40c37.333 0 68.666 -13.167 93.999 -39.5s38 -59.166 38 -98.499zM938 1228
c0 -38 -12.8311 -70.499 -38.498 -97.499s-58.167 -40.5 -97.5 -40.5c-38.667 0 -71.334 13.5 -98.001 40.5s-40 59.5 -40 97.5c0 39.333 13.167 72.166 39.5 98.499s59.166 39.5 98.499 39.5c38.667 0 71 -13 97 -39s39 -59 39 -99z" />
    <glyph glyph-name="divide" unicode="&#xf7;" horiz-adv-x="1192" 
d="M746 886c0 -44.667 -13.667 -80.833 -41 -108.5s-63.666 -41.5 -108.999 -41.5c-43.333 0 -78.833 14 -106.5 42s-41.5 64 -41.5 108c0 46 13.667 82.833 41 110.5s63.666 41.5 108.999 41.5c44 0 79.667 -14 107 -42s41 -64.667 41 -110zM1110 440.001h-1032v188h1032
v-188zM744 180.001c0 -44.667 -13.667 -80.833 -41 -108.5s-63.666 -41.5 -108.999 -41.5c-43.333 0 -78.833 14 -106.5 42s-41.5 64 -41.5 108c0 46 13.667 82.833 41 110.5s63.666 41.5 108.999 41.5c44 0 79.667 -14 107 -42s41 -64.667 41 -110z" />
    <glyph glyph-name="oslash" unicode="&#xf8;" horiz-adv-x="1186" 
d="M246 96c-118.667 94 -178.002 224 -178.002 390c0 152.667 48.5 276.5 145.5 371.5s223.833 142.5 380.5 142.5c92 0 174 -18 246 -54l96 142l104 -74l-92 -134c114.667 -93.333 172 -222 172 -386c0 -102.667 -22.667 -193 -68 -271s-108.666 -138.333 -189.999 -181
s-170 -64 -266 -64c-91.333 0 -170.666 17.333 -237.999 52l-102 -144l-100 80zM409.998 328l295.999 418c-31.333 22.667 -68.666 34 -111.999 34c-70.667 0 -126 -27.667 -166 -83s-60 -125 -60 -209c0 -65.333 12.667 -118 38 -158zM785.997 642l-295.999 -410
c26 -22.667 61.333 -34 106 -34c69.333 0 124.666 26 165.999 78s62 122 62 210c0 60.667 -11.333 112 -34 154z" />
    <glyph glyph-name="ugrave" unicode="&#xf9;" horiz-adv-x="1198" 
d="M1072 978v-662.001c0 -104.667 2.66699 -210 8 -316h-268l-14 142h-8c-69.333 -109.333 -174 -164 -314 -164c-112 0 -199 36.5 -261 109.5s-93 178.5 -93 316.5v574h310v-522c0 -153.333 53.333 -230 160 -230c44.667 0 84.167 16.333 118.5 49
s51.5 74.334 51.5 125.001v578h310zM266 1402h286l176 -306h-212z" />
    <glyph glyph-name="uacute" unicode="&#xfa;" horiz-adv-x="1198" 
d="M1072 978v-662.001c0 -104.667 2.66699 -210 8 -316h-268l-14 142h-8c-69.333 -109.333 -174 -164 -314 -164c-112 0 -199 36.5 -261 109.5s-93 178.5 -93 316.5v574h310v-522c0 -153.333 53.333 -230 160 -230c44.667 0 84.167 16.333 118.5 49
s51.5 74.334 51.5 125.001v578h310zM646 1402h286l-250 -306h-212z" />
    <glyph glyph-name="ucircumflex" unicode="&#xfb;" horiz-adv-x="1198" 
d="M1072 978v-662.001c0 -104.667 2.66699 -210 8 -316h-268l-14 142h-8c-69.333 -109.333 -174 -164 -314 -164c-112 0 -199 36.5 -261 109.5s-93 178.5 -93 316.5v574h310v-522c0 -153.333 53.333 -230 160 -230c44.667 0 84.167 16.333 118.5 49
s51.5 74.334 51.5 125.001v578h310zM500 1402h198l202 -306h-198l-102 174l-106 -174h-196z" />
    <glyph glyph-name="udieresis" unicode="&#xfc;" horiz-adv-x="1198" 
d="M1072 978v-662.001c0 -104.667 2.66699 -210 8 -316h-268l-14 142h-8c-69.333 -109.333 -174 -164 -314 -164c-112 0 -199 36.5 -261 109.5s-93 178.5 -93 316.5v574h310v-522c0 -153.333 53.333 -230 160 -230c44.667 0 84.167 16.333 118.5 49
s51.5 74.334 51.5 125.001v578h310zM532 1228c0 -38 -12.832 -70.501 -38.499 -97.501s-57.5 -40.5 -95.5 -40.5c-39.333 0 -72.5 13.667 -99.5 41s-40.5 59.666 -40.5 96.999c0 38.667 13.667 71.334 41 98.001s61 40 101 40c37.333 0 68.666 -13.167 93.999 -39.5
s38 -59.166 38 -98.499zM948.001 1228c0 -38 -12.8311 -70.499 -38.498 -97.499s-58.167 -40.5 -97.5 -40.5c-38.667 0 -71.334 13.5 -98.001 40.5s-40 59.5 -40 97.5c0 39.333 13.167 72.166 39.5 98.499s59.166 39.5 98.499 39.5c38.667 0 71 -13 97 -39s39 -59 39 -99z
" />
    <glyph glyph-name="yacute" unicode="&#xfd;" horiz-adv-x="1076" 
d="M14 978h344.001c126 -400 193.333 -620.667 202 -662h6l172 662h332l-226 -619c-60.667 -166.667 -115.667 -298.834 -165 -396.501s-98.5 -172.667 -147.5 -225s-103.833 -93.666 -164.5 -123.999s-123 -48.833 -187 -55.5l-64 260
c87.333 17.333 156.166 51.333 206.499 102s75.5 88 75.5 112c0 8.66699 -5.33301 26 -16 52zM612.001 1402h286l-250 -306h-212z" />
    <glyph glyph-name="thorn" unicode="&#xfe;" horiz-adv-x="1230" 
d="M124 1354h309.999v-496h4c68.667 94.667 172.334 142 311.001 142c114 0 211.333 -46 292 -138s121 -213.333 121 -364c0 -160 -45 -286.667 -135 -380s-197 -140 -321 -140c-118 0 -207.333 38.667 -268 116h-4v-490h-310v1750zM433.999 560l0.00195312 -156
c0 -36.667 17.333 -77.5 52 -122.5s82.667 -67.5 144 -67.5c66 0 118.833 25.167 158.5 75.5s59.5 118.5 59.5 204.5c0 77.333 -19.333 141 -58 191s-89.334 75 -152.001 75s-112.334 -21.167 -149.001 -63.5s-55 -87.833 -55 -136.5z" />
    <glyph glyph-name="ydieresis" unicode="&#xff;" horiz-adv-x="1076" 
d="M14 978h344.001c126 -400 193.333 -620.667 202 -662h6l172 662h332l-226 -619c-60.667 -166.667 -115.667 -298.834 -165 -396.501s-98.5 -172.667 -147.5 -225s-103.833 -93.666 -164.5 -123.999s-123 -48.833 -187 -55.5l-64 260
c87.333 17.333 156.166 51.333 206.499 102s75.5 88 75.5 112c0 8.66699 -5.33301 26 -16 52zM490.001 1228c0 -38 -12.832 -70.501 -38.499 -97.501s-57.5 -40.5 -95.5 -40.5c-39.333 0 -72.5 13.667 -99.5 41s-40.5 59.666 -40.5 96.999c0 38.667 13.667 71.334 41 98.001
s61 40 101 40c37.333 0 68.666 -13.167 93.999 -39.5s38 -59.166 38 -98.499zM906.002 1228c0 -38 -12.8311 -70.499 -38.498 -97.499s-58.167 -40.5 -97.5 -40.5c-38.667 0 -71.334 13.5 -98.001 40.5s-40 59.5 -40 97.5c0 39.333 13.167 72.166 39.5 98.499
s59.166 39.5 98.499 39.5c38.667 0 71 -13 97 -39s39 -59 39 -99z" />
    <glyph glyph-name="Amacron" unicode="&#x100;" horiz-adv-x="1358" 
d="M864 352h-404l-100 -352h-322l426 1348h408l438 -1348h-336zM506 580h310c-81.333 263.333 -134 444 -158 542h-4l-64 -256zM420 1658h524v-162h-524v162z" />
    <glyph glyph-name="amacron" unicode="&#x101;" horiz-adv-x="1082" 
d="M958 578l-0.000976562 -339.999c0 -98.667 5.33301 -178 16 -238h-278l-18 98h-8c-67.333 -80 -162.666 -120 -285.999 -120c-96 0 -174 29.167 -234 87.5s-90 129.166 -90 212.499c0 121.333 50.833 214.333 152.5 279s247.5 97 437.5 97v12
c0 81.333 -61.333 122 -184 122c-100 0 -192.667 -24.667 -278 -74l-58 196c108.667 60 238.667 90 390 90c144 0 253 -36.333 327 -109s111 -177 111 -313zM659.999 362.001v100.001c-196 0 -294 -50.667 -294 -152c0 -36.667 11 -65.167 33 -85.5s52.333 -30.5 91 -30.5
c42 0 80.833 14.667 116.5 44s53.5 70.666 53.5 123.999zM287.999 1322h510v-158h-510v158z" />
    <glyph glyph-name="Abreve" unicode="&#x102;" horiz-adv-x="1358" 
d="M864 352h-404l-100 -352h-322l426 1348h408l438 -1348h-336zM506 580h310c-81.333 263.333 -134 444 -158 542h-4l-64 -256zM396 1696l159.998 -0.000976562c8.66699 -72 49.334 -108 122.001 -108c76 0 116.667 36 122 108h166
c-7.33301 -164 -102.666 -246 -285.999 -246c-88.667 0 -157.5 21.333 -206.5 64s-74.833 103.334 -77.5 182.001z" />
    <glyph glyph-name="abreve" unicode="&#x103;" horiz-adv-x="1082" 
d="M958 578l-0.000976562 -339.999c0 -98.667 5.33301 -178 16 -238h-278l-18 98h-8c-67.333 -80 -162.666 -120 -285.999 -120c-96 0 -174 29.167 -234 87.5s-90 129.166 -90 212.499c0 121.333 50.833 214.333 152.5 279s247.5 97 437.5 97v12
c0 81.333 -61.333 122 -184 122c-100 0 -192.667 -24.667 -278 -74l-58 196c108.667 60 238.667 90 390 90c144 0 253 -36.333 327 -109s111 -177 111 -313zM659.999 362.001v100.001c-196 0 -294 -50.667 -294 -152c0 -36.667 11 -65.167 33 -85.5s52.333 -30.5 91 -30.5
c42 0 80.833 14.667 116.5 44s53.5 70.666 53.5 123.999zM279.999 1382h147.999c13.333 -81.333 51.333 -122 114 -122c70 0 108.667 40.667 116 122h148c-1.33301 -83.333 -25 -147.5 -71 -192.5s-110.333 -67.5 -193 -67.5s-146.667 22.5 -192 67.5
s-68.666 109.167 -69.999 192.5z" />
    <glyph glyph-name="Aogonek" unicode="&#x104;" horiz-adv-x="1358" 
d="M864 352l-404 -0.000976562l-100 -352h-322l426 1348h408l438 -1348c-57.333 -28 -103.333 -61.167 -138 -99.5s-52 -73.166 -52 -104.499c0 -22.667 7.5 -41 22.5 -55s34.167 -21 57.5 -21c30.667 0 64.667 7.33301 102 22l20 -110c-46 -24 -103.333 -36 -172 -36
c-58 0 -104.167 14.833 -138.5 44.5s-51.5 70.167 -51.5 121.5c0 44.667 19 90 57 136s83 80 135 102h-178zM506 579.999h310c-81.333 263.333 -134 444 -158 542l-68 -256z" />
    <glyph glyph-name="aogonek" unicode="&#x105;" horiz-adv-x="1082" 
d="M958 578l-0.00195312 -339.999c0 -98.667 5.33301 -178 16 -238c-57.333 -28 -103.333 -61.167 -138 -99.5s-52 -73.166 -52 -104.499c0 -22 7.66699 -40.167 23 -54.5s34.333 -21.5 57 -21.5c30.667 0 64 7.33301 100 22l22 -110c-46 -24 -103.333 -36 -172 -36
c-58 0 -104.167 14.833 -138.5 44.5s-51.5 70.167 -51.5 121.5c0 45.333 18.833 90.666 56.5 135.999s82.834 79.333 135.501 102h-120l-18 98h-8c-67.333 -80 -162.666 -120 -285.999 -120c-96 0 -174 29.167 -234 87.5s-90 129.166 -90 212.499
c0 121.333 50.833 214.333 152.5 279s247.5 97 437.5 97v12c0 81.333 -61.333 122 -184 122c-100 0 -192.667 -24.667 -278 -74l-58 196c108.667 60 238.667 90 390 90c144 0 253 -36.333 327 -109s111 -177 111 -313zM659.998 362.001v100.001
c-196 0 -294 -50.667 -294 -152c0 -36.667 11 -65.167 33 -85.5s52.333 -30.5 91 -30.5c42 0 80.833 14.667 116.5 44s53.5 70.666 53.5 123.999z" />
    <glyph glyph-name="Cacute" unicode="&#x106;" horiz-adv-x="1238" 
d="M1116 280l48 -240c-92 -41.333 -212.667 -62 -362 -62c-227.333 0 -405.833 61.833 -535.5 185.5s-194.5 287.834 -194.5 492.501c0 216 70.667 389 212 519s323.333 195 546 195c150 0 266.667 -20.667 350 -62l-64 -244c-83.333 36 -174 54 -272 54
c-135.333 0 -243.5 -39.333 -324.5 -118s-121.5 -187.334 -121.5 -326.001c0 -135.333 39.833 -242.5 119.5 -321.5s189.167 -118.5 328.5 -118.5c100.667 0 190.667 15.333 270 46zM778 1702h324l-248 -252h-248z" />
    <glyph glyph-name="cacute" unicode="&#x107;" horiz-adv-x="932" 
d="M844 252l37.999 -226c-75.333 -32 -170.666 -48 -285.999 -48c-161.333 0 -290 45.5 -386 136.5s-144 212.833 -144 365.5s51.667 277.5 155 374.5s243 145.5 419 145.5c90 0 170.667 -13.333 242 -40l-50 -228c-50.667 21.333 -110 32 -178 32
c-80.667 0 -145.834 -25.333 -195.501 -76s-74.5 -116 -74.5 -196c0 -83.333 25.833 -149.5 77.5 -198.5s117.834 -73.5 198.501 -73.5c66 0 127.333 10.667 184 32zM615.999 1402h286l-250 -306h-212z" />
    <glyph glyph-name="Ccaron" unicode="&#x10c;" horiz-adv-x="1238" 
d="M1116 280l48 -240c-92 -41.333 -212.667 -62 -362 -62c-227.333 0 -405.833 61.833 -535.5 185.5s-194.5 287.834 -194.5 492.501c0 216 70.667 389 212 519s323.333 195 546 195c150 0 266.667 -20.667 350 -62l-64 -244c-83.333 36 -174 54 -272 54
c-135.333 0 -243.5 -39.333 -324.5 -118s-121.5 -187.334 -121.5 -326.001c0 -135.333 39.833 -242.5 119.5 -321.5s189.167 -118.5 328.5 -118.5c100.667 0 190.667 15.333 270 46zM903 1450h-226l-208 252h212l110 -132l104 132h214z" />
    <glyph glyph-name="ccaron" unicode="&#x10d;" horiz-adv-x="932" 
d="M844 252l37.999 -226c-75.333 -32 -170.666 -48 -285.999 -48c-161.333 0 -290 45.5 -386 136.5s-144 212.833 -144 365.5s51.667 277.5 155 374.5s243 145.5 419 145.5c90 0 170.667 -13.333 242 -40l-50 -228c-50.667 21.333 -110 32 -178 32
c-80.667 0 -145.834 -25.333 -195.501 -76s-74.5 -116 -74.5 -196c0 -83.333 25.833 -149.5 77.5 -198.5s117.834 -73.5 198.501 -73.5c66 0 127.333 10.667 184 32zM707.999 1096h-206l-202 306h198l108 -176l106 176h198z" />
    <glyph glyph-name="Dcaron" unicode="&#x10e;" horiz-adv-x="1440" 
d="M134 6v1324c133.333 20 276 30 428 30c287.333 0 493.5 -60.167 618.5 -180.5s187.5 -277.5 187.5 -471.5c0 -229.333 -71.167 -407 -213.5 -533s-361.833 -189 -658.5 -189c-137.333 0 -258 6.66699 -362 20zM444 1110l0.000976562 -878.001
c17.333 -4 54.666 -6 111.999 -6c154 0 273.167 40.5 357.5 121.5s126.5 197.167 126.5 348.5c0 138.667 -38.5 244.334 -115.5 317.001s-187.833 109 -332.5 109c-60.667 0 -110 -4 -148 -12zM773.001 1450h-226l-208 252h212l110 -132l104 132h214z" />
    <glyph glyph-name="dcaron" unicode="&#x10f;" horiz-adv-x="1446" 
d="M792 1424h310.001v-1132c0 -106.667 2.66699 -204 8 -292h-276l-12 148h-4c-68 -113.333 -174.667 -170 -320 -170c-120.667 0 -222.5 46.833 -305.5 140.5s-124.5 214.167 -124.5 361.5c0 156.667 43.833 282.5 131.5 377.5s194.5 142.5 320.5 142.5
c125.333 0 214.666 -37.333 267.999 -112h4v536zM792.001 444v114c0 60 -17.667 109.333 -53 148s-81 58 -137 58c-68 0 -121.667 -25.167 -161 -75.5s-59 -116.5 -59 -198.5c0 -81.333 19.667 -146 59 -194s92.333 -72 159 -72c48 0 92 17.5 132 52.5s60 90.833 60 167.5z
M1344 1036l-146 -12c48 132.667 82.667 266 104 400l220 14c-50.667 -156.667 -110 -290.667 -178 -402z" />
    <glyph glyph-name="Dcroat" unicode="&#x110;" horiz-adv-x="1458" 
d="M4 564l-0.000976562 244h146v526c133.333 20 276 30 428 30c208 0 367.833 -28.667 479.5 -86s194.334 -134.333 248.001 -231s80.5 -209 80.5 -337c0 -231.333 -71.167 -410.833 -213.5 -538.5s-362.5 -191.5 -660.5 -191.5c-137.333 0 -258 6.66699 -362 20v564h-146z
M741.999 808v-244h-282v-338c16.667 -4 54.667 -6 114 -6c156.667 0 276.5 40.833 359.5 122.5s124.5 200.167 124.5 355.5c0 139.333 -38.5 245.5 -115.5 318.5s-188.5 109.5 -334.5 109.5c-60.667 0 -110 -4 -148 -12v-306h282z" />
    <glyph glyph-name="dcroat" unicode="&#x111;" horiz-adv-x="1226" 
d="M1102 1114l0.000976562 -822c0 -106.667 2.66699 -204 8 -292h-276l-12 148h-4c-68 -113.333 -174.667 -170 -320 -170c-120.667 0 -222.5 46.833 -305.5 140.5s-124.5 214.167 -124.5 361.5c0 154 43.5 279.167 130.5 375.5s194.167 144.5 321.5 144.5
c125.333 0 214.666 -37.333 267.999 -112h4v226h-272v188h272v122h310v-122h100v-188h-100zM792.001 444l0.000976562 114c0 60 -17.667 109.333 -53 148s-81 58 -137 58c-68 0 -121.667 -25.167 -161 -75.5s-59 -116.5 -59 -198.5c0 -81.333 19.667 -146 59 -194
s92.333 -72 159 -72c49.333 0 93.666 18 132.999 54s59 91.333 59 166z" />
    <glyph glyph-name="Emacron" unicode="&#x112;" horiz-adv-x="1100" 
d="M962 818v-250h-518v-316h578v-252h-888v1348h860v-252h-550v-278h518zM290 1658h524v-162h-524v162z" />
    <glyph glyph-name="emacron" unicode="&#x113;" horiz-adv-x="1080" 
d="M1010 390l-650.001 -0.000976562c5.33301 -58 34.5 -103.167 87.5 -135.5s119.167 -48.5 198.5 -48.5c101.333 0 194.666 14 279.999 42l40 -206c-101.333 -42.667 -222.666 -64 -363.999 -64c-167.333 0 -298.5 44.667 -393.5 134s-142.5 211.333 -142.5 366
c0 142 45.667 264.5 137 367.5s214.333 154.5 369 154.5c142.667 0 253.334 -46 332.001 -138s118 -210 118 -354c0 -47.333 -4 -86.666 -12 -117.999zM357.999 601.999h376c0 46 -13.5 89.833 -40.5 131.5s-72.833 62.5 -137.5 62.5c-53.333 0 -97.5 -17.833 -132.5 -53.5
s-56.833 -82.5 -65.5 -140.5zM315.999 1322h510v-158h-510v158z" />
    <glyph glyph-name="Edotaccent" unicode="&#x116;" horiz-adv-x="1100" 
d="M962 818v-250h-518v-316h578v-252h-888v1348h860v-252h-550v-278h518zM699 1594c0 -37.333 -13 -69.666 -39 -96.999s-57.667 -41 -95 -41c-39.333 0 -72.833 13.667 -100.5 41s-41.5 59.666 -41.5 96.999c0 38.667 13.667 71.334 41 98.001s61 40 101 40
c37.333 0 69 -13.333 95 -40s39 -59.334 39 -98.001z" />
    <glyph glyph-name="edotaccent" unicode="&#x117;" horiz-adv-x="1080" 
d="M1010 390l-650.001 -0.000976562c5.33301 -58 34.5 -103.167 87.5 -135.5s119.167 -48.5 198.5 -48.5c101.333 0 194.666 14 279.999 42l40 -206c-101.333 -42.667 -222.666 -64 -363.999 -64c-167.333 0 -298.5 44.667 -393.5 134s-142.5 211.333 -142.5 366
c0 142 45.667 264.5 137 367.5s214.333 154.5 369 154.5c142.667 0 253.334 -46 332.001 -138s118 -210 118 -354c0 -47.333 -4 -86.666 -12 -117.999zM357.999 601.999h376c0 46 -13.5 89.833 -40.5 131.5s-72.833 62.5 -137.5 62.5c-53.333 0 -97.5 -17.833 -132.5 -53.5
s-56.833 -82.5 -65.5 -140.5zM707.999 1228c0 -38 -12.832 -70.501 -38.499 -97.501s-57.5 -40.5 -95.5 -40.5c-39.333 0 -72.5 13.667 -99.5 41s-40.5 59.666 -40.5 96.999c0 38.667 13.667 71.334 41 98.001s61 40 101 40c37.333 0 68.666 -13.167 93.999 -39.5
s38 -59.166 38 -98.499z" />
    <glyph glyph-name="Eogonek" unicode="&#x118;" horiz-adv-x="1100" 
d="M962 818v-250.001h-518v-316h578v-252c-57.333 -28 -103.333 -61.167 -138 -99.5s-52 -73.166 -52 -104.499c0 -22.667 7.5 -41 22.5 -55s34.167 -21 57.5 -21c30.667 0 64.667 7.33301 102 22l20 -110c-46 -24 -103.333 -36 -172 -36c-58 0 -104.167 14.833 -138.5 44.5
s-51.5 70.167 -51.5 121.5c0 44.667 19 90 57 136s83 80 135 102h-730v1348h860v-252h-550v-278h518z" />
    <glyph glyph-name="eogonek" unicode="&#x119;" horiz-adv-x="1080" 
d="M1010 390h-649.999c5.33301 -58 34.5 -103.167 87.5 -135.5s119.167 -48.5 198.5 -48.5c101.333 0 194.666 14 279.999 42l40 -206c-23.333 -9.33301 -51 -18.833 -83 -28.5s-64.5 -26.334 -97.5 -50.001s-60.167 -50.167 -81.5 -79.5s-32 -56 -32 -80
c0 -22 7.66699 -40.167 23 -54.5s34.333 -21.5 57 -21.5c30.667 0 64 7.33301 100 22l22 -110c-46 -24 -103.333 -36 -172 -36c-58 0 -104.167 14.833 -138.5 44.5s-51.5 70.167 -51.5 121.5c0 76.667 46.667 146.667 140 210c-8.66699 -1.33301 -25.334 -2 -50.001 -2
c-167.333 0 -298.5 44.667 -393.5 134s-142.5 211.333 -142.5 366c0 142 45.667 264.5 137 367.5s214.333 154.5 369 154.5c142.667 0 253.334 -46 332.001 -138s118 -210 118 -354c0 -47.333 -4 -86.666 -12 -117.999zM358.001 602h376c0 46 -13.5 89.833 -40.5 131.5
s-72.833 62.5 -137.5 62.5c-53.333 0 -97.5 -17.833 -132.5 -53.5s-56.833 -82.5 -65.5 -140.5z" />
    <glyph glyph-name="Ecaron" unicode="&#x11a;" horiz-adv-x="1100" 
d="M962 818v-250h-518v-316h578v-252h-888v1348h860v-252h-550v-278h518zM687 1450h-226l-208 252h212l110 -132l104 132h214z" />
    <glyph glyph-name="ecaron" unicode="&#x11b;" horiz-adv-x="1080" 
d="M1010 390l-650.001 -0.000976562c5.33301 -58 34.5 -103.167 87.5 -135.5s119.167 -48.5 198.5 -48.5c101.333 0 194.666 14 279.999 42l40 -206c-101.333 -42.667 -222.666 -64 -363.999 -64c-167.333 0 -298.5 44.667 -393.5 134s-142.5 211.333 -142.5 366
c0 142 45.667 264.5 137 367.5s214.333 154.5 369 154.5c142.667 0 253.334 -46 332.001 -138s118 -210 118 -354c0 -47.333 -4 -86.666 -12 -117.999zM357.999 601.999h376c0 46 -13.5 89.833 -40.5 131.5s-72.833 62.5 -137.5 62.5c-53.333 0 -97.5 -17.833 -132.5 -53.5
s-56.833 -82.5 -65.5 -140.5zM665.999 1096h-206l-202 306h198l108 -176l106 176h198z" />
    <glyph glyph-name="Gbreve" unicode="&#x11e;" horiz-adv-x="1412" 
d="M1304 774l-0.000976562 -710c-163.333 -52 -320 -78 -470 -78c-253.333 0 -443.666 62.5 -570.999 187.5s-191 286.5 -191 484.5c0 214 72.833 384.833 218.5 512.5s337.5 191.5 575.5 191.5c162.667 0 293.334 -22.667 392.001 -68l-66 -244c-91.333 40 -202 60 -332 60
c-140.667 0 -252.834 -38.5 -336.501 -115.5s-125.5 -183.167 -125.5 -318.5c0 -134 40.833 -241.167 122.5 -321.5s189.5 -120.5 323.5 -120.5c76 0 129.333 6.66699 160 20v280h-218v240h518zM501.999 1696l159.998 -0.000976562c8.66699 -72 49.334 -108 122.001 -108
c76 0 116.667 36 122 108h166c-7.33301 -164 -102.666 -246 -285.999 -246c-88.667 0 -157.5 21.333 -206.5 64s-74.833 103.334 -77.5 182.001z" />
    <glyph glyph-name="gbreve" unicode="&#x11f;" horiz-adv-x="1202" 
d="M1076 688l-0.000976562 -542c0 -190.667 -44.333 -332.667 -133 -426s-230.334 -140 -425.001 -140c-146 0 -267.333 26 -364 78l62 234c91.333 -50.667 189.333 -76 294 -76c82 0 146.167 22.167 192.5 66.5s69.5 108.166 69.5 191.499v64h-4
c-64.667 -86.667 -156 -130 -274 -130c-123.333 0 -225.166 44.333 -305.499 133s-120.5 203 -120.5 343c0 150.667 44 274.334 132 371.001s196 145 324 145c126.667 0 219.334 -46.667 278.001 -140h4l10 118h268c-5.33301 -77.333 -8 -174 -8 -290zM765.999 444v130
c0 56.667 -16.333 103.167 -49 139.5s-75.667 54.5 -129 54.5c-59.333 0 -108.5 -25 -147.5 -75s-58.5 -117 -58.5 -201c0 -74 18.333 -135.5 55 -184.5s87 -73.5 151 -73.5c42.667 0 83 15.5 121 46.5s57 85.5 57 163.5zM339.999 1382h147.999
c13.333 -81.333 51.333 -122 114 -122c70 0 108.667 40.667 116 122h148c-1.33301 -83.333 -25 -147.5 -71 -192.5s-110.333 -67.5 -193 -67.5s-146.667 22.5 -192 67.5s-68.666 109.167 -69.999 192.5z" />
    <glyph glyph-name="Gcommaaccent" unicode="&#x122;" horiz-adv-x="1412" 
d="M1304 774l-0.000976562 -710c-163.333 -52 -320 -78 -470 -78c-253.333 0 -443.666 62.5 -570.999 187.5s-191 286.5 -191 484.5c0 214 72.833 384.833 218.5 512.5s337.5 191.5 575.5 191.5c162.667 0 293.334 -22.667 392.001 -68l-66 -244c-91.333 40 -202 60 -332 60
c-140.667 0 -252.834 -38.5 -336.501 -115.5s-125.5 -183.167 -125.5 -318.5c0 -134 40.833 -241.167 122.5 -321.5s189.5 -120.5 323.5 -120.5c76 0 129.333 6.66699 160 20v280h-218v240h518zM705.999 -486l-146 -12c48 132.667 82.667 266 104 400l220 14
c-50.667 -156.667 -110 -290.667 -178 -402z" />
    <glyph glyph-name="gcommaaccent" unicode="&#x123;" horiz-adv-x="1202" 
d="M1076 688l-0.000976562 -542c0 -190.667 -44.333 -332.667 -133 -426s-230.334 -140 -425.001 -140c-146 0 -267.333 26 -364 78l62 234c91.333 -50.667 189.333 -76 294 -76c82 0 146.167 22.167 192.5 66.5s69.5 108.166 69.5 191.499v64h-4
c-64.667 -86.667 -156 -130 -274 -130c-123.333 0 -225.166 44.333 -305.499 133s-120.5 203 -120.5 343c0 150.667 44 274.334 132 371.001s196 145 324 145c126.667 0 219.334 -46.667 278.001 -140h4l10 118h268c-5.33301 -77.333 -8 -174 -8 -290zM765.999 444v130
c0 56.667 -16.333 103.167 -49 139.5s-75.667 54.5 -129 54.5c-59.333 0 -108.5 -25 -147.5 -75s-58.5 -117 -58.5 -201c0 -74 18.333 -135.5 55 -184.5s87 -73.5 151 -73.5c42.667 0 83 15.5 121 46.5s57 85.5 57 163.5zM619.999 1508l146 12
c-48 -132.667 -82.667 -266 -104 -400l-220 -14c50.667 156.667 110 290.667 178 402z" />
    <glyph glyph-name="Imacron" unicode="&#x12a;" horiz-adv-x="578" 
d="M134 1348h310v-1348h-310v1348zM31 1658h524v-162h-524v162z" />
    <glyph glyph-name="imacron" unicode="&#x12b;" horiz-adv-x="560" 
d="M436 0h-310v978h310v-978zM27 1322h510v-158h-510v158z" />
    <glyph glyph-name="Iogonek" unicode="&#x12e;" horiz-adv-x="578" 
d="M134 1348l310 -0.000976562v-1348c-57.333 -28 -103.333 -61.167 -138 -99.5s-52 -73.166 -52 -104.499c0 -22.667 7.5 -41 22.5 -55s34.167 -21 57.5 -21c30.667 0 64.667 7.33301 102 22l20 -110c-46 -24 -103.333 -36 -172 -36c-58 0 -104.167 14.833 -138.5 44.5
s-51.5 70.167 -51.5 121.5c0 44.667 19 90 57 136s83 80 135 102h-152v1348z" />
    <glyph glyph-name="iogonek" unicode="&#x12f;" horiz-adv-x="560" 
d="M454 1268c0 -46.667 -15.998 -85.334 -47.998 -116.001s-74 -46 -126 -46s-94 15.333 -126 46s-48 69.334 -48 116.001s16.167 85.334 48.5 116.001s74.166 46 125.499 46s93.166 -15.333 125.499 -46s48.5 -69.334 48.5 -116.001zM126.002 0l-0.000976562 978h310v-978
c-57.333 -28 -103.333 -61.167 -138 -99.5s-52 -73.166 -52 -104.499c0 -22 7.66699 -40.167 23 -54.5s34.333 -21.5 57 -21.5c30.667 0 64 7.33301 100 22l22 -110c-46 -24 -103.333 -36 -172 -36c-58 0 -104.167 14.833 -138.5 44.5s-51.5 70.167 -51.5 121.5
c0 45.333 18.833 90.666 56.5 135.999s82.834 79.333 135.501 102h-152z" />
    <glyph glyph-name="Idotaccent" unicode="&#x130;" horiz-adv-x="578" 
d="M134 1348h310v-1348h-310v1348zM430 1594c0 -37.333 -13 -69.666 -39 -96.999s-57.667 -41 -95 -41c-39.333 0 -72.833 13.667 -100.5 41s-41.5 59.666 -41.5 96.999c0 38.667 13.667 71.334 41 98.001s61 40 101 40c37.333 0 69 -13.333 95 -40s39 -59.334 39 -98.001z
" />
    <glyph glyph-name="dotlessi" unicode="&#x131;" horiz-adv-x="560" 
d="M436 0h-310v978h310v-978z" />
    <glyph glyph-name="Kcommaaccent" unicode="&#x136;" horiz-adv-x="1264" 
d="M134 0v1348h306v-594l112 161l308 433h384l-462 -572l488 -776h-362l-348 584l-120 -144v-440h-306zM562 -466l-146 -12c48 132.667 82.667 266 104 400l220 14c-50.667 -156.667 -110 -290.667 -178 -402z" />
    <glyph glyph-name="kcommaaccent" unicode="&#x137;" horiz-adv-x="1116" 
d="M434 1424l0.000976562 -858h4c17.333 34.667 110.666 172 279.999 412h374l-364 -396l418 -582h-384l-248 402l-80 -98v-304h-310v1424h310zM488.001 -486l-146 -12c48 132.667 82.667 266 104 400l220 14c-50.667 -156.667 -110 -290.667 -178 -402z" />
    <glyph glyph-name="Lacute" unicode="&#x139;" horiz-adv-x="1052" 
d="M134 0v1348h310v-1088h558v-260h-868zM318 1702h324l-248 -252h-248z" />
    <glyph glyph-name="lacute" unicode="&#x13a;" horiz-adv-x="560" 
d="M126 0v1424h310v-1424h-310zM306 1762h324l-248 -252h-248z" />
    <glyph glyph-name="Lcommaaccent" unicode="&#x13b;" horiz-adv-x="1052" 
d="M134 0v1348h310v-1088h558v-260h-868zM456 -486l-146 -12c48 132.667 82.667 266 104 400l220 14c-50.667 -156.667 -110 -290.667 -178 -402z" />
    <glyph glyph-name="lcommaaccent" unicode="&#x13c;" horiz-adv-x="560" 
d="M126 0v1424h310v-1424h-310zM211 -486l-146 -12c48 132.667 82.667 266 104 400l220 14c-50.667 -156.667 -110 -290.667 -178 -402z" />
    <glyph glyph-name="Lcaron" unicode="&#x13d;" horiz-adv-x="1052" 
d="M134 0v1348h310v-1088h558v-260h-868zM736 1102l-146 -12c48 132.667 82.667 266 104 400l220 14c-50.667 -156.667 -110 -290.667 -178 -402z" />
    <glyph glyph-name="lcaron" unicode="&#x13e;" horiz-adv-x="780" 
d="M126 0v1424h310v-1424h-310zM678 1036l-146 -12c48 132.667 82.667 266 104 400l220 14c-50.667 -156.667 -110 -290.667 -178 -402z" />
    <glyph glyph-name="Lslash" unicode="&#x141;" horiz-adv-x="1066" 
d="M1016 0h-868v472l-154 -106v210l154 104v668h310v-462l260 172v-210l-260 -174v-414h558v-260z" />
    <glyph glyph-name="lslash" unicode="&#x142;" horiz-adv-x="588" 
d="M448 0h-310v448l-132 -104v216l132 106v758h310v-524l146 116v-220l-146 -114v-682z" />
    <glyph glyph-name="Nacute" unicode="&#x143;" horiz-adv-x="1422" 
d="M420 0l-286 -0.000976562v1348h368l325 -551c62 -107.333 127 -243.666 195 -408.999h4c-16 141.333 -24 326.666 -24 555.999v404h286v-1348h-328c-228.667 396.667 -365 635.834 -409 717.501s-89.667 177.167 -137 286.5h-8c9.33301 -170 14 -365.333 14 -586v-418z
M730 1702h324l-248 -252h-248z" />
    <glyph glyph-name="nacute" unicode="&#x144;" horiz-adv-x="1200" 
d="M126 0v663.997c0 96.667 -2.66699 201.334 -8 314.001h268l14 -138h8c72.667 106.667 176 160 310 160c110 0 197.5 -37.167 262.5 -111.5s97.5 -179.166 97.5 -314.499v-574h-310v534c0 145.333 -54 218 -162 218c-44 0 -83.333 -16.667 -118 -50
s-52 -80.666 -52 -141.999v-560h-310zM620 1402h286l-250 -306h-212z" />
    <glyph glyph-name="Ncommaaccent" unicode="&#x145;" horiz-adv-x="1422" 
d="M420 0l-286 -0.000976562v1348h368l325 -551c62 -107.333 127 -243.666 195 -408.999h4c-16 141.333 -24 326.666 -24 555.999v404h286v-1348h-328c-228.667 396.667 -365 635.834 -409 717.501s-89.667 177.167 -137 286.5h-8c9.33301 -170 14 -365.333 14 -586v-418z
M642 -466.001l-146 -12c48 132.667 82.667 266 104 400l220 14c-50.667 -156.667 -110 -290.667 -178 -402z" />
    <glyph glyph-name="ncommaaccent" unicode="&#x146;" horiz-adv-x="1200" 
d="M126 0v663.997c0 96.667 -2.66699 201.334 -8 314.001h268l14 -138h8c72.667 106.667 176 160 310 160c110 0 197.5 -37.167 262.5 -111.5s97.5 -179.166 97.5 -314.499v-574h-310v534c0 145.333 -54 218 -162 218c-44 0 -83.333 -16.667 -118 -50
s-52 -80.666 -52 -141.999v-560h-310zM530 -466.003l-146 -12c48 132.667 82.667 266 104 400l220 14c-50.667 -156.667 -110 -290.667 -178 -402z" />
    <glyph glyph-name="Ncaron" unicode="&#x147;" horiz-adv-x="1422" 
d="M420 0l-286 -0.000976562v1348h368l325 -551c62 -107.333 127 -243.666 195 -408.999h4c-16 141.333 -24 326.666 -24 555.999v404h286v-1348h-328c-228.667 396.667 -365 635.834 -409 717.501s-89.667 177.167 -137 286.5h-8c9.33301 -170 14 -365.333 14 -586v-418z
M825 1450h-226l-208 252h212l110 -132l104 132h214z" />
    <glyph glyph-name="ncaron" unicode="&#x148;" horiz-adv-x="1200" 
d="M126 0v663.997c0 96.667 -2.66699 201.334 -8 314.001h268l14 -138h8c72.667 106.667 176 160 310 160c110 0 197.5 -37.167 262.5 -111.5s97.5 -179.166 97.5 -314.499v-574h-310v534c0 145.333 -54 218 -162 218c-44 0 -83.333 -16.667 -118 -50
s-52 -80.666 -52 -141.999v-560h-310zM702 1096h-206l-202 306h198l108 -176l106 176h198z" />
    <glyph glyph-name="Omacron" unicode="&#x14c;" horiz-adv-x="1490" 
d="M1418 686c0 -214 -62.8311 -385.5 -188.498 -514.5s-290.834 -193.5 -495.501 -193.5c-198.667 0 -358.667 64.167 -480 192.5s-182 292.833 -182 493.5c0 205.333 63.333 374.333 190 507s290 199 490 199c201.333 0 362.666 -64 483.999 -192s182 -292 182 -492z
M398.002 672c0 -132 31.667 -240.001 95 -324.001s146.333 -126 249 -126c105.333 0 189.333 41.667 252 125s94 193 94 329c0 130.667 -31.5 238.334 -94.5 323.001s-146.167 127 -249.5 127c-104 0 -187.667 -42.5 -251 -127.5s-95 -193.833 -95 -326.5zM486.002 1658h524
v-162h-524v162z" />
    <glyph glyph-name="omacron" unicode="&#x14d;" horiz-adv-x="1186" 
d="M1120 500c0 -160 -50.334 -286.999 -151.001 -380.999s-227 -141 -379 -141c-153.333 0 -279 46.167 -377 138.5s-147 214.166 -147 365.499c0 155.333 49.333 280.5 148 375.5s229.334 142.5 392.001 142.5c152 0 275.667 -46.667 371 -140s143 -213.333 143 -360z
M383.999 488.001c0 -86.667 18.833 -156.667 56.5 -210s88.167 -80 151.5 -80c62 0 111.833 26.333 149.5 79s56.5 123.667 56.5 213c0 85.333 -18 155 -54 209s-86 81 -150 81c-66 0 -117.5 -27.167 -154.5 -81.5s-55.5 -124.5 -55.5 -210.5zM339.999 1322h510v-158h-510
v158z" />
    <glyph glyph-name="Ohungarumlaut" unicode="&#x150;" horiz-adv-x="1490" 
d="M1418 686c0 -214 -62.8311 -385.5 -188.498 -514.5s-290.834 -193.5 -495.501 -193.5c-198.667 0 -358.667 64.167 -480 192.5s-182 292.833 -182 493.5c0 205.333 63.333 374.333 190 507s290 199 490 199c201.333 0 362.666 -64 483.999 -192s182 -292 182 -492z
M398.002 672c0 -132 31.667 -240.001 95 -324.001s146.333 -126 249 -126c105.333 0 189.333 41.667 252 125s94 193 94 329c0 130.667 -31.5 238.334 -94.5 323.001s-146.167 127 -249.5 127c-104 0 -187.667 -42.5 -251 -127.5s-95 -193.833 -95 -326.5zM591.002 1706h286
l-208 -238h-216zM959.002 1706h286l-208 -238h-216z" />
    <glyph glyph-name="ohungarumlaut" unicode="&#x151;" horiz-adv-x="1186" 
d="M1120 500c0 -160 -50.334 -286.999 -151.001 -380.999s-227 -141 -379 -141c-153.333 0 -279 46.167 -377 138.5s-147 214.166 -147 365.499c0 155.333 49.333 280.5 148 375.5s229.334 142.5 392.001 142.5c152 0 275.667 -46.667 371 -140s143 -213.333 143 -360z
M383.999 488.001c0 -86.667 18.833 -156.667 56.5 -210s88.167 -80 151.5 -80c62 0 111.833 26.333 149.5 79s56.5 123.667 56.5 213c0 85.333 -18 155 -54 209s-86 81 -150 81c-66 0 -117.5 -27.167 -154.5 -81.5s-55.5 -124.5 -55.5 -210.5zM403.999 1402h244l-194 -298
h-174zM757.999 1402h244l-194 -298h-174z" />
    <glyph glyph-name="OE" unicode="&#x152;" horiz-adv-x="1938" 
d="M1860 252v-252h-788c-32 0 -74.667 -3.33301 -128 -10c-64 -8 -122 -12 -174 -12c-216.667 0 -387.167 63.667 -511.5 191s-186.5 291.666 -186.5 492.999c0 214.667 64.5 386.334 193.5 515.001s298.5 193 508.5 193c70 0 134 -3.33301 192 -10
c69.333 -8 113.333 -12 132 -12h734v-252h-550v-278h518v-250h-518v-316h578zM972 246v851.999c-42 18.667 -97.333 28 -166 28c-118 0 -215.167 -41.167 -291.5 -123.5s-114.5 -192.5 -114.5 -330.5c0 -135.333 38.5 -244.166 115.5 -326.499s181.167 -123.5 312.5 -123.5
c58.667 0 106.667 8 144 24z" />
    <glyph glyph-name="oe" unicode="&#x153;" horiz-adv-x="1784" 
d="M1716 396h-635.998c4.66699 -57.333 33 -103 85 -137s115 -51 189 -51c97.333 0 190.666 18 279.999 54l42 -208c-92 -50.667 -213.333 -76 -364 -76c-164.667 0 -290 58 -376 174c-84.667 -116 -210.667 -174 -378 -174c-140.667 0 -257.834 47 -351.501 141
s-140.5 216.333 -140.5 367c0 152 47.5 275.667 142.5 371s218.167 143 369.5 143c76 0 145.667 -15.333 209 -46s113 -74 149 -130c82.667 117.333 199.334 176 350.001 176c139.333 0 247.166 -45.833 323.499 -137.5s114.5 -209.167 114.5 -352.5
c0 -22 -2.66699 -60 -8 -114zM1072 606h364c0 56.667 -15 102.5 -45 137.5s-74.333 52.5 -133 52.5c-52 0 -95 -18.333 -129 -55s-53 -81.667 -57 -135zM794.002 490c0 86.667 -17.6689 156.667 -53.002 210s-83.666 80 -144.999 80
c-67.333 0 -119.166 -26.667 -155.499 -80s-54.5 -124 -54.5 -212c0 -86.667 18.667 -156.667 56 -210s87.333 -80 150 -80c62 0 111.167 26 147.5 78s54.5 123.333 54.5 214z" />
    <glyph glyph-name="Racute" unicode="&#x154;" horiz-adv-x="1216" 
d="M134 0l0.000976562 1330c113.333 20 252.666 30 417.999 30c204 0 350.667 -33.667 440 -101s134 -163.666 134 -288.999c0 -74.667 -22.5 -142.167 -67.5 -202.5s-103.167 -102.833 -174.5 -127.5v-8c84 -31.333 144.667 -114 182 -248
c68.667 -241.333 106 -369.333 112 -384h-316c-26.667 50 -58.667 154.667 -96 314c-18.667 80 -44 136 -76 168s-83.333 48 -154 48h-96v-530h-306zM440.001 1122l0.000976562 -369.999h128c77.333 0 138.333 17.5 183 52.5s67 82.167 67 141.5
s-20.167 105.166 -60.5 137.499s-97.5 48.5 -171.5 48.5c-72.667 0 -121.334 -3.33301 -146.001 -10zM626.002 1702h324l-248 -252h-248z" />
    <glyph glyph-name="racute" unicode="&#x155;" horiz-adv-x="780" 
d="M126 0v651.999c0 146.667 -2.66699 255.334 -8 326.001h266l10 -186h8c24 67.333 61.167 118.833 111.5 154.5s103.833 53.5 160.5 53.5c31.333 0 53.333 -2 66 -6v-290c-26 6.66699 -54 10 -84 10c-57.333 0 -108.333 -16.167 -153 -48.5s-67 -89.5 -67 -171.5v-494
h-310zM410 1402h286l-250 -306h-212z" />
    <glyph glyph-name="Rcommaaccent" unicode="&#x156;" horiz-adv-x="1216" 
d="M134 0l0.000976562 1330c113.333 20 252.666 30 417.999 30c204 0 350.667 -33.667 440 -101s134 -163.666 134 -288.999c0 -74.667 -22.5 -142.167 -67.5 -202.5s-103.167 -102.833 -174.5 -127.5v-8c84 -31.333 144.667 -114 182 -248
c68.667 -241.333 106 -369.333 112 -384h-316c-26.667 50 -58.667 154.667 -96 314c-18.667 80 -44 136 -76 168s-83.333 48 -154 48h-96v-530h-306zM440.001 1122l0.000976562 -369.999h128c77.333 0 138.333 17.5 183 52.5s67 82.167 67 141.5
s-20.167 105.166 -60.5 137.499s-97.5 48.5 -171.5 48.5c-72.667 0 -121.334 -3.33301 -146.001 -10zM558.002 -466l-146 -12c48 132.667 82.667 266 104 400l220 14c-50.667 -156.667 -110 -290.667 -178 -402z" />
    <glyph glyph-name="rcommaaccent" unicode="&#x157;" horiz-adv-x="780" 
d="M126 0v651.999c0 146.667 -2.66699 255.334 -8 326.001h266l10 -186h8c24 67.333 61.167 118.833 111.5 154.5s103.833 53.5 160.5 53.5c31.333 0 53.333 -2 66 -6v-290c-26 6.66699 -54 10 -84 10c-57.333 0 -108.333 -16.167 -153 -48.5s-67 -89.5 -67 -171.5v-494
h-310zM227 -486.001l-146 -12c48 132.667 82.667 266 104 400l220 14c-50.667 -156.667 -110 -290.667 -178 -402z" />
    <glyph glyph-name="Rcaron" unicode="&#x158;" horiz-adv-x="1216" 
d="M134 0l0.000976562 1330c113.333 20 252.666 30 417.999 30c204 0 350.667 -33.667 440 -101s134 -163.666 134 -288.999c0 -74.667 -22.5 -142.167 -67.5 -202.5s-103.167 -102.833 -174.5 -127.5v-8c84 -31.333 144.667 -114 182 -248
c68.667 -241.333 106 -369.333 112 -384h-316c-26.667 50 -58.667 154.667 -96 314c-18.667 80 -44 136 -76 168s-83.333 48 -154 48h-96v-530h-306zM440.001 1122l0.000976562 -369.999h128c77.333 0 138.333 17.5 183 52.5s67 82.167 67 141.5
s-20.167 105.166 -60.5 137.499s-97.5 48.5 -171.5 48.5c-72.667 0 -121.334 -3.33301 -146.001 -10zM711.002 1450h-226l-208 252h212l110 -132l104 132h214z" />
    <glyph glyph-name="rcaron" unicode="&#x159;" horiz-adv-x="780" 
d="M126 0v651.999c0 146.667 -2.66699 255.334 -8 326.001h266l10 -186h8c24 67.333 61.167 118.833 111.5 154.5s103.833 53.5 160.5 53.5c31.333 0 53.333 -2 66 -6v-290c-26 6.66699 -54 10 -84 10c-57.333 0 -108.333 -16.167 -153 -48.5s-67 -89.5 -67 -171.5v-494
h-310zM512 1096h-206l-202 306h198l108 -176l106 176h198z" />
    <glyph glyph-name="Sacute" unicode="&#x15a;" horiz-adv-x="1114" 
d="M84 64l63.999 254c115.333 -58.667 232.666 -88 351.999 -88c68.667 0 122.167 13 160.5 39s57.5 61.667 57.5 107c0 40.667 -17.333 74.667 -52 102s-94.667 55.333 -180 84c-257.333 85.333 -386 219.333 -386 402c0 118 47.333 215.167 142 291.5
s220.667 114.5 378 114.5c137.333 0 257.333 -23.333 360 -70l-70 -246c-94 44 -192 66 -294 66c-62.667 0 -111.667 -12 -147 -36s-53 -55.333 -53 -94c0 -35.333 14.833 -65.5 44.5 -90.5s100.834 -57.5 213.501 -97.5c124.667 -44 215.834 -98.5 273.501 -163.5
s86.5 -145.833 86.5 -242.5c0 -124 -48.667 -224.667 -146 -302s-233.333 -116 -408 -116c-149.333 0 -281.333 28.667 -396 86zM585.999 1702h324l-248 -252h-248z" />
    <glyph glyph-name="sacute" unicode="&#x15b;" horiz-adv-x="894" 
d="M68 48l55.9971 220c36 -20.667 80.167 -38.167 132.5 -52.5s98.833 -21.5 139.5 -21.5c89.333 0 134 26.667 134 80c0 26.667 -10.833 47.334 -32.5 62.001s-60.167 30.667 -115.5 48c-192 59.333 -288 156.666 -288 291.999c0 94 37.5 171.5 112.5 232.5
s173.5 91.5 295.5 91.5c106.667 0 201.334 -19.333 284.001 -58l-54 -212c-77.333 37.333 -150.666 56 -219.999 56c-80 0 -120 -26 -120 -78c0 -23.333 12.167 -43 36.5 -59s66.833 -33.667 127.5 -53c93.333 -29.333 162 -68.166 206 -116.499s66 -109.5 66 -183.5
c0 -96.667 -38 -173.834 -114 -231.501s-182 -86.5 -318 -86.5c-125.333 0 -234.666 23.333 -327.999 70zM527.997 1402h286l-250 -306h-212z" />
    <glyph glyph-name="Scedilla" unicode="&#x15e;" horiz-adv-x="1114" 
d="M84 64l63.998 254.001c115.333 -58.667 232.666 -88 351.999 -88c68.667 0 122.167 13 160.5 39s57.5 61.667 57.5 107c0 40.667 -17.333 74.667 -52 102s-94.667 55.333 -180 84c-257.333 85.333 -386 219.333 -386 402c0 118 47.333 215.167 142 291.5
s220.667 114.5 378 114.5c137.333 0 257.333 -23.333 360 -70l-70 -246c-94 44 -192 66 -294 66c-62.667 0 -111.667 -12 -147 -36s-53 -55.333 -53 -94c0 -35.333 14.833 -65.5 44.5 -90.5s100.834 -57.5 213.501 -97.5c124.667 -44 215.834 -98.5 273.501 -163.5
s86.5 -145.833 86.5 -242.5c0 -105.333 -35.5 -194.5 -106.5 -267.5s-174.167 -119.833 -309.5 -140.5l-42 -76c44 -6 79.333 -22.5 106 -49.5s40 -59.167 40 -96.5c0 -56.667 -21.5 -99.834 -64.5 -129.501s-102.833 -44.5 -179.5 -44.5c-64 0 -118.667 13.333 -164 40
l42 112c40.667 -21.333 77.334 -32 110.001 -32c46.667 0 70 17.333 70 52c0 40.667 -52.667 64.667 -158 72l74 142c-147.333 7.33301 -270 36 -368 86z" />
    <glyph glyph-name="scedilla" unicode="&#x15f;" horiz-adv-x="894" 
d="M68 48l55.998 219.999c36 -20.667 80.167 -38.167 132.5 -52.5s98.833 -21.5 139.5 -21.5c89.333 0 134 26.667 134 80c0 26.667 -10.833 47.334 -32.5 62.001s-60.167 30.667 -115.5 48c-192 59.333 -288 156.666 -288 291.999c0 94 37.5 171.5 112.5 232.5
s173.5 91.5 295.5 91.5c106.667 0 201.334 -19.333 284.001 -58l-54 -212c-77.333 37.333 -150.666 56 -219.999 56c-80 0 -120 -26 -120 -78c0 -23.333 12.167 -43 36.5 -59s66.833 -33.667 127.5 -53c93.333 -29.333 162 -68.166 206 -116.499s66 -109.5 66 -183.5
c0 -80 -27 -147.5 -81 -202.5s-132.333 -90.833 -235 -107.5l-42 -74c42.667 -5.33301 77.667 -21.5 105 -48.5s41 -58.833 41 -95.5c0 -57.333 -21.5 -101 -64.5 -131s-103.5 -45 -181.5 -45c-62.667 0 -116.667 13.333 -162 40l40 112c39.333 -21.333 76 -32 110 -32
c48 0 72 17.333 72 52c0 40.667 -52.667 64.667 -158 72l74 144c-105.333 6 -198 28.667 -278 68z" />
    <glyph glyph-name="Scaron" unicode="&#x160;" horiz-adv-x="1114" 
d="M84 64l63.999 254c115.333 -58.667 232.666 -88 351.999 -88c68.667 0 122.167 13 160.5 39s57.5 61.667 57.5 107c0 40.667 -17.333 74.667 -52 102s-94.667 55.333 -180 84c-257.333 85.333 -386 219.333 -386 402c0 118 47.333 215.167 142 291.5
s220.667 114.5 378 114.5c137.333 0 257.333 -23.333 360 -70l-70 -246c-94 44 -192 66 -294 66c-62.667 0 -111.667 -12 -147 -36s-53 -55.333 -53 -94c0 -35.333 14.833 -65.5 44.5 -90.5s100.834 -57.5 213.501 -97.5c124.667 -44 215.834 -98.5 273.501 -163.5
s86.5 -145.833 86.5 -242.5c0 -124 -48.667 -224.667 -146 -302s-233.333 -116 -408 -116c-149.333 0 -281.333 28.667 -396 86zM696.999 1450h-226l-208 252h212l110 -132l104 132h214z" />
    <glyph glyph-name="scaron" unicode="&#x161;" horiz-adv-x="894" 
d="M68 48l55.9971 220c36 -20.667 80.167 -38.167 132.5 -52.5s98.833 -21.5 139.5 -21.5c89.333 0 134 26.667 134 80c0 26.667 -10.833 47.334 -32.5 62.001s-60.167 30.667 -115.5 48c-192 59.333 -288 156.666 -288 291.999c0 94 37.5 171.5 112.5 232.5
s173.5 91.5 295.5 91.5c106.667 0 201.334 -19.333 284.001 -58l-54 -212c-77.333 37.333 -150.666 56 -219.999 56c-80 0 -120 -26 -120 -78c0 -23.333 12.167 -43 36.5 -59s66.833 -33.667 127.5 -53c93.333 -29.333 162 -68.166 206 -116.499s66 -109.5 66 -183.5
c0 -96.667 -38 -173.834 -114 -231.501s-182 -86.5 -318 -86.5c-125.333 0 -234.666 23.333 -327.999 70zM555.997 1096h-206l-202 306h198l108 -176l106 176h198z" />
    <glyph glyph-name="Tcommaaccent" unicode="&#x162;" horiz-adv-x="1132" 
d="M408 0v1090h-378v258h1072v-258h-384v-1090h-310zM496 -486l-146 -12c48 132.667 82.667 266 104 400l220 14c-50.667 -156.667 -110 -290.667 -178 -402z" />
    <glyph glyph-name="tcommaaccent" unicode="&#x163;" horiz-adv-x="746" 
d="M166 1162l301.999 81.999v-266h222v-228h-222v-344c0 -64.667 9.5 -110.167 28.5 -136.5s50.167 -39.5 93.5 -39.5c40 0 71.333 3.33301 94 10l2 -234c-48.667 -18.667 -116 -28 -202 -28c-93.333 0 -169.666 27.833 -228.999 83.5s-89 153.834 -89 294.501v394h-132v228
h132v184zM303.999 -486.001l-146 -12c48 132.667 82.667 266 104 400l220 14c-50.667 -156.667 -110 -290.667 -178 -402z" />
    <glyph glyph-name="Tcaron" unicode="&#x164;" horiz-adv-x="1132" 
d="M408 0v1090h-378v258h1072v-258h-384v-1090h-310zM679 1450h-226l-208 252h212l110 -132l104 132h214z" />
    <glyph glyph-name="tcaron" unicode="&#x165;" horiz-adv-x="746" 
d="M166 1162l301.999 81.999v-266h222v-228h-222v-344c0 -64.667 9.5 -110.167 28.5 -136.5s50.167 -39.5 93.5 -39.5c40 0 71.333 3.33301 94 10l2 -234c-48.667 -18.667 -116 -28 -202 -28c-93.333 0 -169.666 27.833 -228.999 83.5s-89 153.834 -89 294.501v394h-132v228
h132v184zM723.999 1094l-146 -12c48 132.667 82.667 266 104 400l220 14c-50.667 -156.667 -110 -290.667 -178 -402z" />
    <glyph glyph-name="Umacron" unicode="&#x16a;" horiz-adv-x="1406" 
d="M134 1348h309.999v-764c0 -117.333 22 -207 66 -269s107.333 -93 190 -93c174.667 0 262 120.667 262 362v764h310v-748c0 -203.333 -49.667 -357.833 -149 -463.5s-243.666 -158.5 -432.999 -158.5c-370.667 0 -556 208.667 -556 626v744zM443.999 1658h524v-162h-524
v162z" />
    <glyph glyph-name="umacron" unicode="&#x16b;" horiz-adv-x="1198" 
d="M1072 978v-662.001c0 -104.667 2.66699 -210 8 -316h-268l-14 142h-8c-69.333 -109.333 -174 -164 -314 -164c-112 0 -199 36.5 -261 109.5s-93 178.5 -93 316.5v574h310v-522c0 -153.333 53.333 -230 160 -230c44.667 0 84.167 16.333 118.5 49
s51.5 74.334 51.5 125.001v578h310zM346 1322h510v-158h-510v158z" />
    <glyph glyph-name="Uring" unicode="&#x16e;" horiz-adv-x="1406" 
d="M134 1348h309.999v-764c0 -117.333 22 -207 66 -269s107.333 -93 190 -93c174.667 0 262 120.667 262 362v764h310v-748c0 -203.333 -49.667 -357.833 -149 -463.5s-243.666 -158.5 -432.999 -158.5c-370.667 0 -556 208.667 -556 626v744zM472.999 1568
c0 57.333 21.3311 104.666 63.998 141.999s99.334 56 170.001 56c71.333 0 127.5 -18.167 168.5 -54.5s61.5 -84.166 61.5 -143.499c0 -56.667 -20.667 -103.167 -62 -139.5s-97.333 -54.5 -168 -54.5c-69.333 0 -125.666 18.333 -168.999 55s-65 83 -65 139zM796.997 1568
c0 26.667 -8.66699 49.334 -26 68.001s-40 28 -68 28c-26 0 -47.167 -9.33301 -63.5 -28s-24.5 -41.334 -24.5 -68.001c0 -25.333 8.33301 -47 25 -65s37.667 -27 63 -27c28 0 50.667 8.66699 68 26s26 39.333 26 66z" />
    <glyph glyph-name="uring" unicode="&#x16f;" horiz-adv-x="1198" 
d="M1072 978v-662.001c0 -104.667 2.66699 -210 8 -316h-268l-14 142h-8c-69.333 -109.333 -174 -164 -314 -164c-112 0 -199 36.5 -261 109.5s-93 178.5 -93 316.5v574h310v-522c0 -153.333 53.333 -230 160 -230c44.667 0 84.167 16.333 118.5 49
s51.5 74.334 51.5 125.001v578h310zM368 1272c0 59.333 21.168 107.833 63.501 145.5s99.166 56.5 170.499 56.5s127.5 -18.5 168.5 -55.5s61.5 -85.833 61.5 -146.5c0 -56.667 -21.167 -103.5 -63.5 -140.5s-97.833 -55.5 -166.5 -55.5c-70 0 -126.5 18.5 -169.5 55.5
s-64.5 83.833 -64.5 140.5zM694.001 1274c0 28 -8.5 51.334 -25.5 70.001s-39.167 28 -66.5 28c-28 0 -50.333 -9.5 -67 -28.5s-25 -42.833 -25 -71.5c0 -25.333 8.5 -47.333 25.5 -66s38.5 -28 64.5 -28c28 0 50.667 9.16699 68 27.5s26 41.166 26 68.499z" />
    <glyph glyph-name="Uhungarumlaut" unicode="&#x170;" horiz-adv-x="1406" 
d="M134 1348h309.999v-764c0 -117.333 22 -207 66 -269s107.333 -93 190 -93c174.667 0 262 120.667 262 362v764h310v-748c0 -203.333 -49.667 -357.833 -149 -463.5s-243.666 -158.5 -432.999 -158.5c-370.667 0 -556 208.667 -556 626v744zM548.999 1706h286l-208 -238
h-216zM916.999 1706h286l-208 -238h-216z" />
    <glyph glyph-name="uhungarumlaut" unicode="&#x171;" horiz-adv-x="1198" 
d="M1072 978v-662.001c0 -104.667 2.66699 -210 8 -316h-268l-14 142h-8c-69.333 -109.333 -174 -164 -314 -164c-112 0 -199 36.5 -261 109.5s-93 178.5 -93 316.5v574h310v-522c0 -153.333 53.333 -230 160 -230c44.667 0 84.167 16.333 118.5 49
s51.5 74.334 51.5 125.001v578h310zM410 1402h244l-194 -298h-174zM764 1402h244l-194 -298h-174z" />
    <glyph glyph-name="Uogonek" unicode="&#x172;" horiz-adv-x="1406" 
d="M134 1348l310 0.000976562v-764c0 -117.333 22 -207 66 -269s107.333 -93 190 -93c174.667 0 262 120.667 262 362v764h310v-748c0 -338 -133.333 -538.667 -400 -602c-53.333 -25.333 -98 -57.666 -134 -96.999s-54 -75 -54 -107c0 -22.667 7.5 -41 22.5 -55
s34.167 -21 57.5 -21c30.667 0 64.667 7.33301 102 22l20 -110c-46 -24 -103.333 -36 -172 -36c-58 0 -104.167 14.833 -138.5 44.5s-51.5 70.167 -51.5 121.5c0 39.333 14.5 79.166 43.5 119.499s66.5 73.166 112.5 98.499c-364 5.33301 -546 214 -546 626v744z" />
    <glyph glyph-name="uogonek" unicode="&#x173;" horiz-adv-x="1198" 
d="M1072 978l-0.000976562 -662.001c0 -104.667 2.66699 -210 8 -316c-57.333 -28 -103.333 -61.167 -138 -99.5s-52 -73.166 -52 -104.499c0 -22.667 7.66699 -41 23 -55s34.333 -21 57 -21c30.667 0 64 7.33301 100 22l22 -110c-46 -24 -103.333 -36 -172 -36
c-58 0 -104.167 14.833 -138.5 44.5s-51.5 70.167 -51.5 121.5c0 45.333 18.833 90.666 56.5 135.999s82.834 79.333 135.501 102h-110l-14 142h-8c-69.333 -109.333 -174 -164 -314 -164c-112 0 -199 36.5 -261 109.5s-93 178.5 -93 316.5v574h310v-522
c0 -153.333 53.333 -230 160 -230c44.667 0 84.167 16.333 118.5 49s51.5 74.334 51.5 125.001v578h310z" />
    <glyph glyph-name="Ydieresis" unicode="&#x178;" horiz-adv-x="1252" 
d="M774 0l-310 -0.000976562v556l-440 792h356c163.333 -371.333 248 -564.666 254 -579.999c30.667 82.667 114 276 250 580h352l-462 -780v-568zM571 1592c0 -37.333 -12.6689 -69.333 -38.002 -96s-56.666 -40 -93.999 -40c-40 0 -73.667 13.333 -101 40
s-41 58.667 -41 96c0 38.667 13.667 71.334 41 98.001s61 40 101 40c36.667 0 67.834 -13.333 93.501 -40s38.5 -59.334 38.5 -98.001zM984.998 1592c0 -38 -12.832 -70.165 -38.499 -96.498s-57.5 -39.5 -95.5 -39.5c-40 0 -73 13.167 -99 39.5s-39 58.5 -39 96.5
c0 39.333 13.167 72.166 39.5 98.499s59.166 39.5 98.499 39.5c38 0 69.833 -13.333 95.5 -40s38.5 -59.334 38.5 -98.001z" />
    <glyph glyph-name="Zacute" unicode="&#x179;" horiz-adv-x="1198" 
d="M50 0v166l668 920v6h-608v256h1014v-174l-654 -912v-6h666v-256h-1086zM618 1702h324l-248 -252h-248z" />
    <glyph glyph-name="zacute" unicode="&#x17a;" horiz-adv-x="964" 
d="M44 0l-0.000976562 176.001l357 425.5l121 132.5h-444v244h826v-184l-367 -440.5c-25.333 -29.667 -59.666 -64.834 -102.999 -105.501v-4h486v-244h-876zM541.999 1402h286l-250 -306h-212z" />
    <glyph glyph-name="Zdotaccent" unicode="&#x17b;" horiz-adv-x="1198" 
d="M50 0v166l668 920v6h-608v256h1014v-174l-654 -912v-6h666v-256h-1086zM769 1594c0 -37.333 -13 -69.666 -39 -96.999s-57.667 -41 -95 -41c-39.333 0 -72.833 13.667 -100.5 41s-41.5 59.666 -41.5 96.999c0 38.667 13.667 71.334 41 98.001s61 40 101 40
c37.333 0 69 -13.333 95 -40s39 -59.334 39 -98.001z" />
    <glyph glyph-name="zdotaccent" unicode="&#x17c;" horiz-adv-x="964" 
d="M44 0l-0.000976562 176.001l357 425.5l121 132.5h-444v244h826v-184l-367 -440.5c-25.333 -29.667 -59.666 -64.834 -102.999 -105.501v-4h486v-244h-876zM653.999 1228c0 -38 -12.832 -70.501 -38.499 -97.501s-57.5 -40.5 -95.5 -40.5c-39.333 0 -72.5 13.667 -99.5 41
s-40.5 59.666 -40.5 96.999c0 38.667 13.667 71.334 41 98.001s61 40 101 40c37.333 0 68.666 -13.167 93.999 -39.5s38 -59.166 38 -98.499z" />
    <glyph glyph-name="Zcaron" unicode="&#x17d;" horiz-adv-x="1198" 
d="M50 0v166l668 920v6h-608v256h1014v-174l-654 -912v-6h666v-256h-1086zM729 1450h-226l-208 252h212l110 -132l104 132h214z" />
    <glyph glyph-name="zcaron" unicode="&#x17e;" horiz-adv-x="964" 
d="M44 0l-0.000976562 176.001l357 425.5l121 132.5h-444v244h826v-184l-367 -440.5c-25.333 -29.667 -59.666 -64.834 -102.999 -105.501v-4h486v-244h-876zM594.999 1096h-206l-202 306h198l108 -176l106 176h198z" />
    <glyph glyph-name="florin" unicode="&#x192;" horiz-adv-x="1140" 
d="M236 614l0.00488281 212.003h186c33.333 330.667 182.666 496 447.999 496c68.667 0 124.667 -10.667 168 -32l-48 -218c-31.333 12 -64 18 -98 18c-40.667 0 -76.334 -14.333 -107.001 -43s-52.334 -102.334 -65.001 -221.001h206v-212h-232
c-32.667 -252.667 -52.834 -403.167 -60.501 -451.5s-25.5 -101.333 -53.5 -159s-69.333 -103.334 -124 -137.001s-125.334 -50.5 -212.001 -50.5c-75.333 0 -137.333 11.333 -186 34l44 216c30 -12 62 -18 96 -18c58.667 0 97.667 23.167 117 69.5s33 100.166 41 161.499
l40 335h-160z" />
    <glyph glyph-name="Scommaaccent" unicode="&#x218;" horiz-adv-x="1114" 
d="M84 64l63.999 254c115.333 -58.667 232.666 -88 351.999 -88c68.667 0 122.167 13 160.5 39s57.5 61.667 57.5 107c0 40.667 -17.333 74.667 -52 102s-94.667 55.333 -180 84c-257.333 85.333 -386 219.333 -386 402c0 118 47.333 215.167 142 291.5
s220.667 114.5 378 114.5c137.333 0 257.333 -23.333 360 -70l-70 -246c-94 44 -192 66 -294 66c-62.667 0 -111.667 -12 -147 -36s-53 -55.333 -53 -94c0 -35.333 14.833 -65.5 44.5 -90.5s100.834 -57.5 213.501 -97.5c124.667 -44 215.834 -98.5 273.501 -163.5
s86.5 -145.833 86.5 -242.5c0 -124 -48.667 -224.667 -146 -302s-233.333 -116 -408 -116c-149.333 0 -281.333 28.667 -396 86zM487.999 -486l-146 -12c48 132.667 82.667 266 104 400l220 14c-50.667 -156.667 -110 -290.667 -178 -402z" />
    <glyph glyph-name="scommaaccent" unicode="&#x219;" horiz-adv-x="894" 
d="M68 48l55.9971 220c36 -20.667 80.167 -38.167 132.5 -52.5s98.833 -21.5 139.5 -21.5c89.333 0 134 26.667 134 80c0 26.667 -10.833 47.334 -32.5 62.001s-60.167 30.667 -115.5 48c-192 59.333 -288 156.666 -288 291.999c0 94 37.5 171.5 112.5 232.5
s173.5 91.5 295.5 91.5c106.667 0 201.334 -19.333 284.001 -58l-54 -212c-77.333 37.333 -150.666 56 -219.999 56c-80 0 -120 -26 -120 -78c0 -23.333 12.167 -43 36.5 -59s66.833 -33.667 127.5 -53c93.333 -29.333 162 -68.166 206 -116.499s66 -109.5 66 -183.5
c0 -96.667 -38 -173.834 -114 -231.501s-182 -86.5 -318 -86.5c-125.333 0 -234.666 23.333 -327.999 70zM377.997 -486l-146 -12c48 132.667 82.667 266 104 400l220 14c-50.667 -156.667 -110 -290.667 -178 -402z" />
    <glyph glyph-name="circumflex" unicode="&#x2c6;" 
d="M202 1402h198l202 -306h-198l-102 174l-106 -174h-196z" />
    <glyph glyph-name="caron" unicode="&#x2c7;" 
d="M402 1096h-206l-202 306h198l108 -176l106 176h198z" />
    <glyph glyph-name="uni02C9" unicode="&#x2c9;" horiz-adv-x="1000" 
d="M0 1600h1000v-100h-1000v100z" />
    <glyph glyph-name="breve" unicode="&#x2d8;" 
d="M38 1382h147.999c13.333 -81.333 51.333 -122 114 -122c70 0 108.667 40.667 116 122h148c-1.33301 -83.333 -25 -147.5 -71 -192.5s-110.333 -67.5 -193 -67.5s-146.667 22.5 -192 67.5s-68.666 109.167 -69.999 192.5z" />
    <glyph glyph-name="dotaccent" unicode="&#x2d9;" 
d="M372 1228c0 -38 -12.832 -70.501 -38.499 -97.501s-57.5 -40.5 -95.5 -40.5c-39.333 0 -72.5 13.667 -99.5 41s-40.5 59.666 -40.5 96.999c0 38.667 13.667 71.334 41 98.001s61 40 101 40c37.333 0 68.666 -13.167 93.999 -39.5s38 -59.166 38 -98.499z" />
    <glyph glyph-name="ring" unicode="&#x2da;" horiz-adv-x="800" 
d="M168 1272c0 59.333 21.168 107.833 63.501 145.5s99.166 56.5 170.499 56.5s127.5 -18.5 168.5 -55.5s61.5 -85.833 61.5 -146.5c0 -56.667 -21.167 -103.5 -63.5 -140.5s-97.833 -55.5 -166.5 -55.5c-70 0 -126.5 18.5 -169.5 55.5s-64.5 83.833 -64.5 140.5z
M494.001 1274c0 28 -8.5 51.334 -25.5 70.001s-39.167 28 -66.5 28c-28 0 -50.333 -9.5 -67 -28.5s-25 -42.833 -25 -71.5c0 -25.333 8.5 -47.333 25.5 -66s38.5 -28 64.5 -28c28 0 50.667 9.16699 68 27.5s26 41.166 26 68.499z" />
    <glyph glyph-name="ogonek" unicode="&#x2db;" 
d="M308 0h152c-56 -28 -101.333 -61.667 -136 -101s-52 -74.333 -52 -105c0 -22.667 7.66699 -41 23 -55s34.333 -21 57 -21c30.667 0 64 7.33301 100 22l22 -110c-46 -24 -103.333 -36 -172 -36c-58 0 -104.167 14.833 -138.5 44.5s-51.5 70.167 -51.5 121.5
c0 33.333 10.667 67.5 32 102.5s51.5 66.667 90.5 95s63.5 42.5 73.5 42.5z" />
    <glyph glyph-name="tilde" unicode="&#x2dc;" 
d="M156 1110h-137.999c0 169.333 51.333 254 154 254c30 0 74.667 -13.333 134 -40c43.333 -25.333 72.666 -38 87.999 -38c19.333 0 32.5 7.16699 39.5 21.5s11.833 36.5 14.5 66.5h136c0 -88.667 -13 -152.167 -39 -190.5s-66.333 -57.5 -121 -57.5
c-38.667 0 -86 14.667 -142 44c-36 20 -62 30 -78 30c-28 0 -44 -30 -48 -90z" />
    <glyph glyph-name="hungarumlaut" unicode="&#x2dd;" 
d="M110 1402h244l-194 -298h-174zM464 1402h244l-194 -298h-174z" />
    <glyph glyph-name="pi" unicode="&#x3c0;" horiz-adv-x="1232" 
d="M1044 746l0.000976562 -429.999c0 -69.333 2.16699 -131.5 6.5 -186.5s10.166 -98.167 17.499 -129.5h-296c-6.66699 9.33301 -12.167 23.666 -16.5 42.999s-7.83301 42 -10.5 68s-4.5 54.333 -5.5 85s-1.5 62 -1.5 94v456h-220
c-0.666992 -38 -2.33398 -79.667 -5.00098 -125s-6.5 -91.666 -11.5 -138.999s-10.667 -94.5 -17 -141.5s-13.5 -91.667 -21.5 -134s-16.5 -81.333 -25.5 -117s-18.833 -65.5 -29.5 -89.5h-298c15.333 47.333 29.666 103 42.999 167s25 130.167 35 198.5
s17.833 135.666 23.5 201.999s7.83398 125.833 6.50098 178.5c-29.333 0 -60.166 -0.833008 -92.499 -2.5s-62.166 -5.5 -89.499 -11.5l-30 178c22 22 61.667 38.833 119 50.5s135.666 17.5 234.999 17.5h834l-28 -232h-122z" />
    <glyph glyph-name="endash" unicode="&#x2013;" horiz-adv-x="1000" 
d="M60 600h880v-188h-880v188z" />
    <glyph glyph-name="emdash" unicode="&#x2014;" horiz-adv-x="2000" 
d="M60 600h1880v-188h-1880v188z" />
    <glyph glyph-name="quoteleft" unicode="&#x2018;" horiz-adv-x="536" 
d="M300 1370l190 16c-64 -178.667 -110.667 -360 -140 -544l-292 -18c63.333 201.333 144 383.333 242 546z" />
    <glyph glyph-name="quoteright" unicode="&#x2019;" horiz-adv-x="536" 
d="M246 842l-190 -18.001c64 178.667 110.667 360 140 544l292 18c-65.333 -205.333 -146 -386.666 -242 -543.999z" />
    <glyph glyph-name="quotesinglbase" unicode="&#x201a;" horiz-adv-x="536" 
d="M226 -190l-190 -16c64 178.667 110.667 360 140 544l292 18c-63.333 -201.333 -144 -383.333 -242 -546z" />
    <glyph glyph-name="quotedblleft" unicode="&#x201c;" horiz-adv-x="934" 
d="M698 1370l190 16c-64 -178.667 -110.667 -360 -140 -544l-292 -18c68 208.667 148.667 390.667 242 546zM298 1370l190 16c-64 -178.667 -110.667 -360 -140 -544l-292 -18c63.333 201.333 144 383.333 242 546z" />
    <glyph glyph-name="quotedblright" unicode="&#x201d;" horiz-adv-x="934" 
d="M246 842l-190 -18c64 178.667 110.667 360 140 544l292 18c-70 -212.667 -150.667 -394 -242 -544zM646 842l-190 -18.001c64 178.667 110.667 360 140 544l292 18c-65.333 -205.333 -146 -386.666 -242 -543.999z" />
    <glyph glyph-name="quotedblbase" unicode="&#x201e;" horiz-adv-x="946" 
d="M224 -190l-190 -16c64 178.667 110.667 360 140 544l292 18c-68 -208.667 -148.667 -390.667 -242 -546zM624 -190l-190 -16c64 178.667 110.667 360 140 544l292 18c-63.333 -201.333 -144 -383.333 -242 -546z" />
    <glyph glyph-name="dagger" unicode="&#x2020;" horiz-adv-x="1070" 
d="M394 1348h282l-28 -404l352 24v-236l-352 26l28 -858h-282l28 858l-352 -26v236l352 -24z" />
    <glyph glyph-name="daggerdbl" unicode="&#x2021;" horiz-adv-x="1070" 
d="M396 1348h278l-22 -372l348 24v-236l-348 26v-316l348 26v-236l-348 24l22 -388h-276l20 388l-348 -24v236l348 -26v316l-348 -26v236l348 -24z" />
    <glyph glyph-name="bullet" unicode="&#x2022;" horiz-adv-x="688" 
d="M610 686c0 -73.333 -26 -136 -78 -188s-114.667 -78 -188 -78s-136 25.667 -188 77s-78 114.333 -78 189c0 73.333 26.167 136 78.5 188s114.833 78 187.5 78s135.167 -26 187.5 -78s78.5 -114.667 78.5 -188z" />
    <glyph glyph-name="ellipsis" unicode="&#x2026;" horiz-adv-x="2000" 
d="M516 164c0 -54.667 -17.167 -99.332 -51.5 -133.999s-78.5 -52 -132.5 -52c-53.333 0 -97 17.5 -131 52.5s-51 79.5 -51 133.5s17.333 98.5 52 133.5s78.667 52.5 132 52.5c54 0 97.833 -17.333 131.5 -52s50.5 -79.334 50.5 -134.001zM1182 164.002
c0 -54.667 -17.167 -99.332 -51.5 -133.999s-78.5 -52 -132.5 -52c-53.333 0 -97 17.5 -131 52.5s-51 79.5 -51 133.5s17.333 98.5 52 133.5s78.667 52.5 132 52.5c54 0 97.833 -17.333 131.5 -52s50.5 -79.334 50.5 -134.001zM1848 164.004
c0 -54.667 -17.167 -99.332 -51.5 -133.999s-78.5 -52 -132.5 -52c-53.333 0 -97 17.5 -131 52.5s-51 79.5 -51 133.5s17.167 98.5 51.5 133.5s78.5 52.5 132.5 52.5s97.833 -17.333 131.5 -52s50.5 -79.334 50.5 -134.001z" />
    <glyph glyph-name="perthousand" unicode="&#x2030;" horiz-adv-x="2646" 
d="M56 914c0 118.667 34.499 216.333 103.499 293s159.167 115 270.5 115c110.667 0 198.667 -35.333 264 -106s98 -164 98 -280c0 -125.333 -35.667 -226 -107 -302s-159.666 -114 -264.999 -114c-104.667 0 -191.5 36 -260.5 108s-103.5 167.333 -103.5 286z
M561.999 921.999c0 69.333 -11.001 125 -33.001 167s-55.667 63 -101 63c-43.333 0 -77.166 -20.833 -101.499 -62.5s-36.5 -98.167 -36.5 -169.5c0 -68 12 -123.333 36 -166s58 -64 102 -64c89.333 0 134 77.333 134 232zM609.998 -22.001h-166l752 1342h166zM1018 373.999
c0 119.333 34.668 217.167 104.001 293.5s159.333 114.5 270 114.5s198.667 -35.333 264 -106s98 -164 98 -280c0 -129.333 -36.333 -231 -109 -305s-160.334 -111 -263.001 -111c-104.667 0 -191.5 36 -260.5 108s-103.5 167.333 -103.5 286zM1524 382
c0 69.333 -11.002 125 -33.002 167s-55.667 63 -101 63c-43.333 0 -77.166 -20.833 -101.499 -62.5s-36.5 -98.167 -36.5 -169.5c0 -70 12.333 -125.833 37 -167.5s58.334 -62.5 101.001 -62.5c89.333 0 134 77.333 134 232zM1850 374
c0 119.333 34.6689 217.167 104.002 293.5s159.333 114.5 269.999 114.5c110.667 0 198.667 -35.333 264 -106s98 -164 98 -280c0 -129.333 -36.333 -231 -109 -305s-160.334 -111 -263.001 -111c-104.667 0 -191.5 36 -260.5 108s-103.5 167.333 -103.5 286zM2356 382.001
c0 73.333 -11.501 130 -34.501 170s-56.167 60 -99.5 60s-77.166 -20.833 -101.499 -62.5s-36.5 -98.167 -36.5 -169.5c0 -68 12 -123.333 36 -166s58 -64 102 -64c89.333 0 134 77.333 134 232z" />
    <glyph glyph-name="guilsinglleft" unicode="&#x2039;" horiz-adv-x="552" 
d="M504 888l-242 -382l242 -384h-214l-234 384l234 382h214z" />
    <glyph glyph-name="guilsinglright" unicode="&#x203a;" horiz-adv-x="552" 
d="M290 506l-242 382h212l236 -382l-236 -384h-212z" />
    <glyph glyph-name="fraction" unicode="&#x2044;" horiz-adv-x="874" 
d="M148 -22h-168l744 1344h168z" />
    <glyph glyph-name="Euro" unicode="&#x20ac;" horiz-adv-x="1140" 
d="M1080 58c-35.333 -21.333 -81.499 -39.999 -138.499 -55.999s-118.833 -24 -185.5 -24c-51.333 0 -101.333 5.16699 -150 15.5s-94.667 25.5 -138 45.5s-83.5 44.833 -120.5 74.5s-70.167 63.834 -99.5 102.501c-26 33.333 -48.333 70.666 -67 111.999
s-33 86.666 -43 135.999h-132v144h112v34c0 10 0.333008 19.833 1 29.5s1 19.167 1 28.5h-114v144h138c26 108.667 73.333 199.334 142 272.001c58.667 65.333 127.834 116 207.501 152s167.834 54 264.501 54c63.333 0 122 -6 176 -18s100 -26.667 138 -44l-58 -230
c-27.333 13.333 -61.333 25.333 -102 36s-84 16 -130 16c-50 0 -97.167 -9.16699 -141.5 -27.5s-82.5 -46.5 -114.5 -84.5c-15.333 -16 -28 -34.667 -38 -56s-18.667 -44.666 -26 -69.999h520v-144h-552c-2 -9.33301 -3.16699 -18.833 -3.5 -28.5s-0.5 -20.167 -0.5 -31.5
v-32h556v-144h-526c7.33301 -28 16.666 -53 27.999 -75s24.666 -41.667 39.999 -59c34 -36 74.167 -62.333 120.5 -79s96.166 -25 149.499 -25c24 0 47.667 1.83301 71 5.5s45.5 8.16699 66.5 13.5s40 11.166 57 17.499s30.833 12.166 41.5 17.499z" />
    <glyph glyph-name="litre" unicode="&#x2113;" horiz-adv-x="1134" 
d="M514 702c59.333 61.333 104.499 124.668 135.499 190.001s46.5 127.333 46.5 186c0 48 -7.66699 84.333 -23 109s-35 37 -59 37c-13.333 0 -26.166 -4.33301 -38.499 -13s-23 -22.5 -32 -41.5s-16.167 -43.833 -21.5 -74.5s-8 -68.334 -8 -113.001v-280zM1072 256.002
c-30 -50.667 -62.9951 -93.6689 -98.9951 -129.002s-74 -64 -114 -86s-81.667 -38 -125 -48s-87.333 -15 -132 -15c-199.333 0 -322 94 -368 282c-1.33301 2 -2 4 -2 6s-0.666992 4 -2 6l-49 -32.5l-49 -29.5l-78 164l85 57.5l85 60.5v440
c0 84.667 9.5 157.834 28.5 219.501s45.5 112.5 79.5 152.5s74.5 69.667 121.5 89s98.5 29 154.5 29c49.333 0 93.666 -8 132.999 -24s72.833 -38.833 100.5 -68.5s49 -65.5 64 -107.5s22.5 -88.667 22.5 -140c0 -59.333 -8.83301 -116.166 -26.5 -170.499
s-43.834 -107.666 -78.501 -159.999s-77.834 -104.833 -129.501 -157.5s-111.5 -107.334 -179.5 -164.001v-22c1.33301 -59.333 16.666 -103.833 45.999 -133.5s68 -44.5 116 -44.5c29.333 0 56.5 5.33301 81.5 16s48.167 24 69.5 40s40.666 33.5 57.999 52.5
s32.333 36.833 45 53.5z" />
    <glyph glyph-name="trademark" unicode="&#x2122;" horiz-adv-x="1784" 
d="M34 1348h658v-162h-232v-634h-198v634h-228v162zM1688 552l-191.997 -0.000976562c-13.333 250.667 -21.333 468.667 -24 654h-4c-25.333 -105.333 -90 -318.666 -194 -639.999h-154c-74.667 262.667 -117.334 416.667 -128.001 462l-42 178h-4
c-2.66699 -178 -11.334 -396 -26.001 -654h-180l54 796h272c70 -231.333 120 -409.333 150 -534h4c37.333 142 59.666 223.667 66.999 245l95 289h258z" />
    <glyph glyph-name="Omega" unicode="&#x2126;" horiz-adv-x="1538" 
d="M1192 232l279.994 0.000976562v-232h-614v180c36.667 27.333 71.334 58.166 104.001 92.499s61.334 73 86.001 116s44.167 90.167 58.5 141.5s21.5 107.333 21.5 168c0 57.333 -8.16699 111.833 -24.5 163.5s-39.666 97 -69.999 136s-67.333 70.167 -111 93.5
s-93.167 35 -148.5 35c-54.667 0 -104.167 -11.167 -148.5 -33.5s-82.333 -53 -114 -92s-56.167 -84.333 -73.5 -136s-26 -107.167 -26 -166.5c0 -53.333 7 -106.166 21 -158.499s33.167 -101.5 57.5 -147.5s53 -87.333 86 -124s68.167 -66 105.5 -88v-180h-616v232h274v8
c-28.667 21.333 -57.834 48 -87.501 80s-56.5 68.833 -80.5 110.5s-43.667 88 -59 139s-23 106.5 -23 166.5c0 88 16.833 170.5 50.5 247.5s80.834 144.167 141.501 201.5s133.334 102.5 218.001 135.5s178 49.5 280 49.5c106 0 200.333 -17 283 -51
s152.334 -79.333 209.001 -136s99.834 -121.834 129.501 -195.501s44.5 -150.167 44.5 -229.5c0 -66 -8 -126 -24 -180s-36.5 -102.333 -61.5 -145s-52.5 -80 -82.5 -112s-58.667 -59 -86 -81v-8z" />
    <glyph glyph-name="estimated" unicode="&#x212e;" horiz-adv-x="1634" 
d="M354 632c-6.66699 0 -10 -2.66797 -10 -8.00098v-366c0 -8 1.66699 -15.5 5 -22.5s7.66602 -13.5 12.999 -19.5c57.333 -61.333 125.333 -109.666 204 -144.999s163.334 -53 254.001 -53c48 0 94.5 5.16699 139.5 15.5s88 25.166 129 44.499s79.333 42.666 115 69.999
s67.834 58 96.501 92h110c-34 -39.333 -72.667 -75.166 -116 -107.499s-90.333 -60 -141 -83s-104.167 -40.667 -160.5 -53s-114.5 -18.5 -174.5 -18.5c-68.667 0 -134.834 8 -198.501 24s-123.167 38.5 -178.5 67.5s-105.833 64 -151.5 105s-84.667 86.333 -117 136
s-57.5 103.167 -75.5 160.5s-27 117 -27 179s9 121.667 27 179s43.167 110.833 75.5 160.5s71.333 95 117 136s96.167 76 151.5 105s114.833 51.5 178.5 67.5s129.834 24 198.501 24c103.333 0 200.166 -17.5 290.499 -52.5s169.333 -83 237 -144s121 -132.167 160 -213.5
s58.5 -168.666 58.5 -261.999v-18h-1210zM1292 1048c0 9.33301 -1.83301 17.5 -5.5 24.5s-8.5 13.5 -14.5 19.5c-58.667 58.667 -126.5 105 -203.5 139s-159.833 51 -248.5 51c-90.667 0 -174.667 -17.5 -252 -52.5s-145.333 -82.833 -204 -143.5
c-6 -6 -10.833 -12.833 -14.5 -20.5s-5.5 -16.167 -5.5 -25.5v-360c0 -6.66699 3.33301 -10 10 -10h928c6.66699 0 10 3.33301 10 10v368z" />
    <glyph glyph-name="partialdiff" unicode="&#x2202;" horiz-adv-x="1174" 
d="M94 1346c14.667 9.33301 34.333 20.668 59 34.001s54 26 88 38s72.667 22.333 116 31s91 13 143 13c86.667 0 167.167 -16.833 241.5 -50.5s138.833 -81.834 193.5 -144.501s97.5 -138.5 128.5 -227.5s46.5 -188.833 46.5 -299.5c0 -124.667 -16.333 -234.5 -49 -329.5
s-77 -174.5 -133 -238.5s-121 -112.333 -195 -145s-152.333 -49 -235 -49c-78 0 -145.333 14 -202 42s-103.5 63.833 -140.5 107.5s-64.5 92 -82.5 145s-27 104.167 -27 153.5c0 67.333 10.667 131 32 191s51.5 112.5 90.5 157.5s86.5 80.5 142.5 106.5s118.333 39 187 39
c40.667 0 77.5 -5.16699 110.5 -15.5s62.167 -23.5 87.5 -39.5s46.833 -33.167 64.5 -51.5s31.5 -35.5 41.5 -51.5h2c1.33301 5.33301 2 11 2 17v17c0 59.333 -8 114.5 -24 165.5s-39 95 -69 132s-66.167 66 -108.5 87s-89.833 31.5 -142.5 31.5
c-34 0 -65.5 -2.66699 -94.5 -8s-55.167 -11.833 -78.5 -19.5s-43.833 -15.667 -61.5 -24s-32.167 -15.833 -43.5 -22.5zM531.999 224.002c32 0 61.668 8.66699 89.001 26s51.5 40.333 72.5 69s38.5 61.167 52.5 97.5s23.333 73.5 28 111.5
c-4.66699 16.667 -12.834 34 -24.501 52s-26 34.5 -43 49.5s-37 27.5 -60 37.5s-48.5 15 -76.5 15c-30.667 0 -59.167 -6.66699 -85.5 -20s-49 -31.5 -68 -54.5s-33.833 -50.167 -44.5 -81.5s-16 -65.333 -16 -102c0 -31.333 4.5 -59.5 13.5 -84.5s21.333 -46 37 -63
s34 -30 55 -39s43.833 -13.5 68.5 -13.5h2z" />
    <glyph glyph-name="Delta" unicode="&#x2206;" horiz-adv-x="1304" 
d="M88 0v154l382 1150h372l372 -1148v-156h-1126zM724 750c-6.66699 21.333 -13.832 45.667 -21.499 73l-23 83.5c-7.66699 28.333 -14.834 56.166 -21.501 83.499l-18 72h-6l-15 -61l-19 -78l-20.5 -82c-7 -27.333 -13.5 -51.666 -19.5 -72.999l-160 -518h480z" />
    <glyph glyph-name="product" unicode="&#x220f;" horiz-adv-x="1366" 
d="M1148 1048v-1228h-288v1228h-358v-1228h-288v1228h-192v252h1318v-252h-192z" />
    <glyph glyph-name="summation" unicode="&#x2211;" horiz-adv-x="1118" 
d="M30 -180v174l448 558l-424 546v202h1000v-252h-604v-8l364 -476l-386 -482v-10h680v-252h-1078z" />
    <glyph glyph-name="minus" unicode="&#x2212;" horiz-adv-x="1192" 
d="M80 628h1032v-188h-1032v188z" />
    <glyph glyph-name="uni2215" unicode="&#x2215;" horiz-adv-x="874" 
d="M148 -22h-168l744 1344h168z" />
    <glyph glyph-name="uni2219" unicode="&#x2219;" horiz-adv-x="526" 
d="M446 532c0 -54.667 -17.167 -99.332 -51.5 -133.999s-78.5 -52 -132.5 -52c-53.333 0 -97 17.5 -131 52.5s-51 79.5 -51 133.5s17.333 98.5 52 133.5s78.667 52.5 132 52.5c54 0 97.833 -17.333 131.5 -52s50.5 -79.334 50.5 -134.001z" />
    <glyph glyph-name="radical" unicode="&#x221a;" horiz-adv-x="1188" 
d="M778 -160l-206 -0.00195312l-326 824l-156 -64l-52 138l356 148l220 -600c10 -27.333 19 -54.666 27 -81.999s15 -52.666 21 -75.999h4c4 21.333 9 46.333 15 75s13 59 21 91l334 1386h208z" />
    <glyph glyph-name="infinity" unicode="&#x221e;" horiz-adv-x="1506" 
d="M1110 192c-36.667 0 -71.332 6.16699 -103.999 18.5s-64 28.333 -94 48s-58.333 41.667 -85 66l-77 71.5l-78 -72.5c-26 -24.333 -53.667 -46.166 -83 -65.499s-61.333 -35.166 -96 -47.499s-73.667 -18.5 -117 -18.5c-48 0 -91.833 8.66699 -131.5 26
s-73.834 41 -102.501 71s-50.834 65.5 -66.501 106.5s-23.5 85.167 -23.5 132.5c0 44.667 8.16699 87.167 24.5 127.5s39.333 76 69 107s65.5 55.667 107.5 74s88.333 27.5 139 27.5c37.333 0 72.5 -6.16699 105.5 -18.5s64.5 -28.333 94.5 -48s58.333 -41.667 85 -66
l77 -71.5l77 72.5c26 24.333 53.667 46.166 83 65.499s61.5 35.166 96.5 47.499s74.167 18.5 117.5 18.5c48 0 91.833 -8.66699 131.5 -26s73.5 -41 101.5 -71s49.833 -65.5 65.5 -106.5s23.5 -85.167 23.5 -132.5c0 -44.667 -8 -87.167 -24 -127.5s-38.833 -76 -68.5 -107
s-65.167 -55.667 -106.5 -74s-87.666 -27.5 -138.999 -27.5h-2zM1108 378c20 0 38.832 4.00098 56.499 12.001s33 18.833 46 32.5s23.167 29.5 30.5 47.5s11 37.333 11 58c0 22 -3.66699 42.167 -11 60.5s-17.333 34.166 -30 47.499s-27.5 23.666 -44.5 30.999
s-35.167 11 -54.5 11c-22.667 0 -44.5 -4.5 -65.5 -13.5s-41.167 -20.667 -60.5 -35s-38.166 -30.166 -56.499 -47.499l-53.5 -52l49 -49c17.333 -18 35.5 -34.5 54.5 -49.5s39 -27.667 60 -38s43.167 -15.5 66.5 -15.5h2zM394.001 378.001
c22 0 43.334 4.49805 64.001 13.498s40.5 20.667 59.5 35s37.667 30.333 56 48l52.5 51.5l-47.5 49.5c-17 17.667 -35 34 -54 49s-39 27.667 -60 38s-43.167 15.5 -66.5 15.5c-20.667 0 -39.834 -4 -57.501 -12s-33 -18.833 -46 -32.5s-23.333 -29.5 -31 -47.5
s-11.5 -37.333 -11.5 -58c0 -22 3.5 -42.167 10.5 -60.5s16.833 -34.166 29.5 -47.499s27.5 -23.666 44.5 -30.999s35.5 -11 55.5 -11h2z" />
    <glyph glyph-name="integral" unicode="&#x222b;" horiz-adv-x="720" 
d="M678 1418c-10 3.33301 -20.832 5.82812 -32.499 7.49512s-24.167 2.5 -37.5 2.5c-21.333 0 -40.5 -5 -57.5 -15s-30.5 -23 -40.5 -39c-14 -23.333 -24.833 -58.166 -32.5 -104.499s-11.5 -110.166 -11.5 -191.499c0 -76 1.66699 -149.167 5 -219.5s7 -141 11 -212
s7.66699 -143.667 11 -218s5 -153.833 5 -238.5c0 -83.333 -6.16699 -156.166 -18.5 -218.499s-29.5 -112.166 -51.5 -149.499c-14.667 -27.333 -31.834 -50.833 -51.501 -70.5s-41 -35.667 -64 -48s-47.333 -21.333 -73 -27s-51.5 -8.5 -77.5 -8.5
c-28 0 -55.5 2.16699 -82.5 6.5s-47.5 10.166 -61.5 17.499l32 188c10 -3.33301 22 -6.16602 36 -8.49902s28.667 -3.5 44 -3.5c35.333 0 64.666 14.667 87.999 44c7.33301 10 14.166 22.333 20.499 37s11.833 32.834 16.5 54.501s8.33398 47.167 11.001 76.5
s4 63.333 4 102c0 86 -1.5 167 -4.5 243s-6.5 150.333 -10.5 223s-7.5 145.5 -10.5 218.5s-4.5 149.5 -4.5 229.5c0 54.667 2.5 103.5 7.5 146.5s12.667 81.833 23 116.5s23.333 65.5 39 92.5s33.834 51.833 54.501 74.5c28 32 61.667 55 101 69s81 21 125 21
c24 0 46.667 -1.33301 68 -4s38 -6 50 -10z" />
    <glyph glyph-name="approxequal" unicode="&#x2248;" horiz-adv-x="1192" 
d="M1152 756c-16.667 -28.667 -36.498 -55.1689 -59.498 -79.502s-48.333 -45.5 -76 -63.5s-57.334 -32 -89.001 -42s-64.834 -15 -99.501 -15c-26.667 0 -51.5 2.5 -74.5 7.5s-44.5 11 -64.5 18s-38.833 14.833 -56.5 23.5s-34.5 16.334 -50.5 23.001l-46 21.5
c-16 7.66699 -32.833 15 -50.5 22s-36.5 12.833 -56.5 17.5s-41.667 7 -65 7c-24.667 0 -47.667 -3.83301 -69 -11.5s-41.333 -17.667 -60 -30s-35.667 -26 -51 -41s-29.333 -30.167 -42 -45.5l-104 124c17.333 25.333 37.333 49.5 60 72.5s47.834 43.333 75.501 61
s57.667 31.834 90 42.501s66.5 16 102.5 16c27.333 0 52.333 -2.33301 75 -7s43.834 -10.5 63.501 -17.5s38 -14.833 55 -23.5s33.833 -16.667 50.5 -24c15.333 -6 30.666 -12.833 45.999 -20.5s31.666 -15 48.999 -22s35.833 -13 55.5 -18s40.834 -7.5 63.501 -7.5
c25.333 0 48.666 4.5 69.999 13.5s41 20.167 59 33.5s34 27.5 48 42.5s25.667 28.5 35 40.5zM1156 335.998c-17.333 -30 -37.8281 -57.666 -61.4951 -82.999s-49.667 -47 -78 -65s-58.5 -32.167 -90.5 -42.5s-65.333 -15.5 -100 -15.5c-25.333 0 -49.166 2.5 -71.499 7.5
s-43.5 11 -63.5 18s-38.833 14.833 -56.5 23.5s-34.5 16.334 -50.5 23.001l-46 21.5c-16 7.66699 -33 15 -51 22s-37.167 12.833 -57.5 17.5s-42.833 7 -67.5 7c-22.667 0 -44.334 -3.83301 -65.001 -11.5s-40.334 -17.667 -59.001 -30s-35.834 -26 -51.501 -41
s-29.834 -30.167 -42.501 -45.5l-104 128c17.333 26 37.833 50.5 61.5 73.5s49.5 43.167 77.5 60.5s57.833 31 89.5 41s64.167 15 97.5 15c27.333 0 52.5 -2.5 75.5 -7.5s44.5 -11 64.5 -18s38.667 -14.667 56 -23l50 -23.5c15.333 -6.66699 30.833 -13.834 46.5 -21.501
s32.167 -15 49.5 -22s35.666 -12.833 54.999 -17.5s40.333 -7 63 -7c25.333 0 49 3.83301 71 11.5s42.167 17.667 60.5 30s34.666 26.166 48.999 41.499s26.833 30.333 37.5 45z" />
    <glyph glyph-name="notequal" unicode="&#x2260;" horiz-adv-x="1192" 
d="M1112 232h-600l-154 -276l-170 96l100 180h-208v188h318l136 244h-454v188h566l166 292l168 -96l-110 -196h242v-188h-354l-136 -244h490v-188z" />
    <glyph glyph-name="lessequal" unicode="&#x2264;" horiz-adv-x="1192" 
d="M1088 1364v-192l-760 -328l760 -330v-190l-974 428v184zM114 0v188h974v-188h-974z" />
    <glyph glyph-name="greaterequal" unicode="&#x2265;" horiz-adv-x="1192" 
d="M90 1364l1014 -428v-184l-1014 -428v190l778 330l-778 328v192zM90 0v188h1014v-188h-1014z" />
    <glyph glyph-name="lozenge" unicode="&#x25ca;" horiz-adv-x="942" 
d="M404 0l-390 740l390 724h136l390 -724l-390 -740h-136zM216 740l256 -496l256 496l-256 484z" />
    <glyph glyph-name="apple" unicode="&#xf000;" horiz-adv-x="414" 
 />
    <glyph glyph-name="four.superior" unicode="&#xf003;" horiz-adv-x="748" 
d="M634 534h-222v180h-402v126l348 482h276v-458h108v-150h-108v-180zM412 864v150c0 9.33301 2.66699 59.333 8 150h-4c-38 -73.333 -62 -117 -72 -131l-118 -167l6 -2h180z" />
    <glyph glyph-name="pi.1" unicode="&#xf006;" horiz-adv-x="1232" 
d="M1044 746l0.000976562 -429.999c0 -69.333 2.16699 -131.5 6.5 -186.5s10.166 -98.167 17.499 -129.5h-296c-6.66699 9.33301 -12.167 23.666 -16.5 42.999s-7.83301 42 -10.5 68s-4.5 54.333 -5.5 85s-1.5 62 -1.5 94v456h-220
c-0.666992 -38 -2.33398 -79.667 -5.00098 -125s-6.5 -91.666 -11.5 -138.999s-10.667 -94.5 -17 -141.5s-13.5 -91.667 -21.5 -134s-16.5 -81.333 -25.5 -117s-18.833 -65.5 -29.5 -89.5h-298c15.333 47.333 29.666 103 42.999 167s25 130.167 35 198.5
s17.833 135.666 23.5 201.999s7.83398 125.833 6.50098 178.5c-29.333 0 -60.166 -0.833008 -92.499 -2.5s-62.166 -5.5 -89.499 -11.5l-30 178c22 22 61.667 38.833 119 50.5s135.666 17.5 234.999 17.5h834l-28 -232h-122z" />
    <glyph glyph-name="acute.cap" unicode="&#xf100;" 
d="M224 1702h324l-248 -252h-248z" />
    <glyph glyph-name="dieresis.cap" unicode="&#xf101;" 
d="M230 1592c0 -37.333 -12.6689 -69.333 -38.002 -96s-56.666 -40 -93.999 -40c-40 0 -73.667 13.333 -101 40s-41 58.667 -41 96c0 38.667 13.667 71.334 41 98.001s61 40 101 40c36.667 0 67.834 -13.333 93.501 -40s38.5 -59.334 38.5 -98.001zM643.998 1592
c0 -38 -12.832 -70.165 -38.499 -96.498s-57.5 -39.5 -95.5 -39.5c-40 0 -73 13.167 -99 39.5s-39 58.5 -39 96.5c0 39.333 13.167 72.166 39.5 98.499s59.166 39.5 98.499 39.5c38 0 69.833 -13.333 95.5 -40s38.5 -59.334 38.5 -98.001z" />
    <glyph glyph-name="circumflex.cap" unicode="&#xf102;" 
d="M190 1702h220l210 -252h-214l-104 132l-106 -132h-216z" />
    <glyph glyph-name="tilde.cap" unicode="&#xf103;" 
d="M156 1458h-142c0 169.333 52 254 156 254c37.333 0 81.333 -13.333 132 -40c53.333 -26.667 83.333 -40 90 -40c20 0 33.5 7.16699 40.5 21.5s12.167 36.5 15.5 66.5h138c0 -100.667 -14.5 -167.167 -43.5 -199.5s-67.833 -48.5 -116.5 -48.5
c-42.667 0 -86.667 12.667 -132 38c-45.333 24 -75.333 36 -90 36c-28 0 -44 -29.333 -48 -88z" />
    <glyph glyph-name="macron.cap" unicode="&#xf104;" 
d="M38 1658h524v-162h-524v162z" />
    <glyph glyph-name="breve.cap" unicode="&#xf105;" 
d="M16 1696l159.998 -0.000976562c8.66699 -72 49.334 -108 122.001 -108c76 0 116.667 36 122 108h166c-7.33301 -164 -102.666 -246 -285.999 -246c-88.667 0 -157.5 21.333 -206.5 64s-74.833 103.334 -77.5 182.001z" />
    <glyph glyph-name="dotaccent.cap" unicode="&#xf106;" 
d="M438 1594c0 -37.333 -13 -69.666 -39 -96.999s-57.667 -41 -95 -41c-39.333 0 -72.833 13.667 -100.5 41s-41.5 59.666 -41.5 96.999c0 38.667 13.667 71.334 41 98.001s61 40 101 40c37.333 0 69 -13.333 95 -40s39 -59.334 39 -98.001z" />
    <glyph glyph-name="ring.cap" unicode="&#xf107;" 
d="M68 1568c0 57.333 21.3311 104.666 63.998 141.999s99.334 56 170.001 56c71.333 0 127.5 -18.167 168.5 -54.5s61.5 -84.166 61.5 -143.499c0 -56.667 -20.667 -103.167 -62 -139.5s-97.333 -54.5 -168 -54.5c-69.333 0 -125.666 18.333 -168.999 55s-65 83 -65 139z
M391.998 1568c0 26.667 -8.66699 49.334 -26 68.001s-40 28 -68 28c-26 0 -47.167 -9.33301 -63.5 -28s-24.5 -41.334 -24.5 -68.001c0 -25.333 8.33301 -47 25 -65s37.667 -27 63 -27c28 0 50.667 8.66699 68 26s26 39.333 26 66z" />
    <glyph glyph-name="cedilla.cap" unicode="&#xf108;" 
d="M242 8h164l-54 -96c42.667 -5.33301 77.667 -21.5 105 -48.5s41 -58.833 41 -95.5c0 -61.333 -23 -106 -69 -134s-105 -42 -177 -42c-62.667 0 -116.667 13.333 -162 40l40 112c39.333 -21.333 76 -32 110 -32c48 0 72 17.333 72 52c0 40.667 -52.667 64.667 -158 72z
" />
    <glyph glyph-name="hungarumlaut.cap" unicode="&#xf109;" 
d="M42 1706h286l-208 -238h-216zM410 1706h286l-208 -238h-216z" />
    <glyph glyph-name="ogonek.cap" unicode="&#xf110;" 
d="M308 0h152c-56 -28 -101.333 -61.667 -136 -101s-52 -74.333 -52 -105c0 -22.667 7.66699 -41 23 -55s34.333 -21 57 -21c30.667 0 64 7.33301 100 22l22 -110c-46 -24 -103.333 -36 -172 -36c-58 0 -104.167 14.833 -138.5 44.5s-51.5 70.167 -51.5 121.5
c0 33.333 10.667 67.5 32 102.5s51.5 66.667 90.5 95s63.5 42.5 73.5 42.5z" />
    <glyph glyph-name="caron.cap" unicode="&#xf111;" 
d="M414 1450h-226l-208 252h212l110 -132l104 132h214z" />
    <glyph glyph-name="grave.cap" unicode="&#xf112;" horiz-adv-x="601" 
d="M52 1704h322l176 -250h-248z" />
    <glyph glyph-name="commaaccent" unicode="&#xf6c3;" 
d="M230 -486l-146 -12c48 132.667 82.667 266 104 400l220 14c-50.667 -156.667 -110 -290.667 -178 -402z" />
    <glyph glyph-name="f_i.1" unicode="&#xfb01;" horiz-adv-x="1200" 
d="M468 0h-310.001v750h-128v228h128v40c0 134 47 238.833 141 314.5s220.333 113.5 379 113.5c126 0 224.667 -21.333 296 -64l-62 -230c-61.333 33.333 -136.666 50 -225.999 50c-146.667 0 -220 -63.333 -220 -190v-34h608v-978h-310v750h-296v-750z" />
    <glyph glyph-name="f_l.1" unicode="&#xfb02;" horiz-adv-x="1200" 
d="M468 0h-310v750h-128v228h128v42c0 114 44.5 213.5 133.5 298.5s221.167 127.5 396.5 127.5c152 0 280.667 -28.667 386 -86v-1360h-310v1196c-23.333 14.667 -63.333 22 -120 22s-100.5 -18 -131.5 -54s-46.5 -85.333 -46.5 -148v-38h182v-228h-180v-750z" />
    <glyph glyph-name="NULL" horiz-adv-x="0" 
 />
    <glyph glyph-name="nonmarkingreturn" horiz-adv-x="414" 
 />
    <glyph glyph-name="uni021A" horiz-adv-x="1132" 
d="M408 0v1090h-378v258h1072v-258h-384v-1090h-310zM496 -486l-146 -12c48 132.667 82.667 266 104 400l220 14c-50.667 -156.667 -110 -290.667 -178 -402z" />
    </font>
</defs>
</svg>
